Amaranth-otf.ufo
<glyph name="exclam" format="1">
  <advance width="319"/>
  <unicode hex="0021"/>
  <outline>
    <contour>
      <point x="176" y="141" type="curve" smooth="yes"/>
      <point x="223" y="141"/>
      <point x="249" y="110"/>
      <point x="249" y="66" type="curve" smooth="yes"/>
      <point x="249" y="23"/>
      <point x="224" y="-11"/>
      <point x="173" y="-11" type="curve" smooth="yes"/>
      <point x="126" y="-11"/>
      <point x="100" y="23"/>
      <point x="100" y="63" type="curve" smooth="yes"/>
      <point x="100" y="107"/>
      <point x="125" y="141"/>
    </contour>
    <contour>
      <point x="126" y="677" type="line"/>
      <point x="255" y="677" type="line"/>
      <point x="226" y="220" type="line"/>
      <point x="126" y="220" type="line"/>
    </contour>
  </outline>
</glyph>
<glyph name="quotedbl" format="1">
  <advance width="367"/>
  <unicode hex="0022"/>
  <outline>
    <contour>
      <point x="147" y="677" type="line"/>
      <point x="139" y="434" type="line"/>
      <point x="58" y="434" type="line"/>
      <point x="50" y="677" type="line"/>
    </contour>
    <contour>
      <point x="317" y="677" type="line"/>
      <point x="309" y="434" type="line"/>
      <point x="228" y="434" type="line"/>
      <point x="220" y="677" type="line"/>
    </contour>
  </outline>
</glyph>
<glyph name="dollar" format="1">
  <advance width="520"/>
  <unicode hex="0024"/>
  <outline>
    <contour>
      <point x="306" y="694" type="line"/>
      <point x="306" y="617" type="line"/>
      <point x="376" y="609"/>
      <point x="436" y="581"/>
      <point x="452" y="571" type="curve"/>
      <point x="411" y="489" type="line"/>
      <point x="396" y="496"/>
      <point x="380" y="503"/>
      <point x="364" y="509" type="curve" smooth="yes"/>
      <point x="337" y="520"/>
      <point x="303" y="530"/>
      <point x="275" y="530" type="curve" smooth="yes"/>
      <point x="230" y="530"/>
      <point x="189" y="515"/>
      <point x="189" y="472" type="curve" smooth="yes"/>
      <point x="189" y="419"/>
      <point x="227" y="395"/>
      <point x="304" y="366" type="curve"/>
      <point x="403" y="326"/>
      <point x="460" y="285"/>
      <point x="460" y="192" type="curve" smooth="yes"/>
      <point x="460" y="113"/>
      <point x="406" y="36"/>
      <point x="306" y="15" type="curve"/>
      <point x="306" y="-83" type="line"/>
      <point x="223" y="-83" type="line"/>
      <point x="223" y="11" type="line"/>
      <point x="139" y="19"/>
      <point x="72" y="55"/>
      <point x="50" y="69" type="curve"/>
      <point x="93" y="158" type="line"/>
      <point x="112" y="147"/>
      <point x="131" y="138"/>
      <point x="149" y="130" type="curve" smooth="yes"/>
      <point x="180" y="115"/>
      <point x="217" y="102"/>
      <point x="244" y="102" type="curve" smooth="yes"/>
      <point x="310" y="102"/>
      <point x="343" y="129"/>
      <point x="343" y="184" type="curve" smooth="yes"/>
      <point x="343" y="238"/>
      <point x="307" y="251"/>
      <point x="248" y="272" type="curve"/>
      <point x="137" y="314"/>
      <point x="71" y="362"/>
      <point x="71" y="459" type="curve" smooth="yes"/>
      <point x="71" y="535"/>
      <point x="132" y="599"/>
      <point x="223" y="615" type="curve"/>
      <point x="223" y="694" type="line"/>
    </contour>
  </outline>
</glyph>
<glyph name="percent" format="1">
  <advance width="843"/>
  <unicode hex="0025"/>
  <outline>
    <contour>
      <point x="512" y="587" type="line"/>
      <point x="607" y="587" type="line"/>
      <point x="333" y="0" type="line"/>
      <point x="238" y="0" type="line"/>
    </contour>
    <contour>
      <point x="194" y="591" type="curve" smooth="yes"/>
      <point x="298" y="591"/>
      <point x="342" y="525"/>
      <point x="342" y="417" type="curve" smooth="yes"/>
      <point x="342" y="316"/>
      <point x="292" y="237"/>
      <point x="188" y="237" type="curve" smooth="yes"/>
      <point x="84" y="237"/>
      <point x="40" y="303"/>
      <point x="40" y="410" type="curve" smooth="yes"/>
      <point x="40" y="514"/>
      <point x="90" y="591"/>
    </contour>
    <contour>
      <point x="188" y="520" type="curve" smooth="yes"/>
      <point x="148" y="520"/>
      <point x="139" y="476"/>
      <point x="139" y="416" type="curve" smooth="yes"/>
      <point x="139" y="356"/>
      <point x="148" y="308"/>
      <point x="194" y="308" type="curve" smooth="yes"/>
      <point x="234" y="308"/>
      <point x="243" y="352"/>
      <point x="243" y="412" type="curve" smooth="yes"/>
      <point x="243" y="472"/>
      <point x="234" y="520"/>
    </contour>
    <contour>
      <point x="655" y="351" type="curve" smooth="yes"/>
      <point x="759" y="351"/>
      <point x="803" y="285"/>
      <point x="803" y="177" type="curve" smooth="yes"/>
      <point x="803" y="76"/>
      <point x="753" y="-3"/>
      <point x="649" y="-3" type="curve" smooth="yes"/>
      <point x="545" y="-3"/>
      <point x="501" y="63"/>
      <point x="501" y="170" type="curve" smooth="yes"/>
      <point x="501" y="274"/>
      <point x="551" y="351"/>
    </contour>
    <contour>
      <point x="649" y="280" type="curve" smooth="yes"/>
      <point x="609" y="280"/>
      <point x="600" y="236"/>
      <point x="600" y="176" type="curve" smooth="yes"/>
      <point x="600" y="116"/>
      <point x="609" y="68"/>
      <point x="655" y="68" type="curve" smooth="yes"/>
      <point x="695" y="68"/>
      <point x="704" y="112"/>
      <point x="704" y="172" type="curve" smooth="yes"/>
      <point x="704" y="232"/>
      <point x="695" y="280"/>
    </contour>
  </outline>
</glyph>
<glyph name="ampersand" format="1">
  <advance width="575"/>
  <unicode hex="0026"/>
  <outline>
    <contour>
      <point x="385" y="459" type="line"/>
      <point x="359" y="480" type="line"/>
      <point x="343" y="491"/>
      <point x="324" y="501"/>
      <point x="301" y="501" type="curve" smooth="yes"/>
      <point x="260" y="501"/>
      <point x="240" y="480"/>
      <point x="240" y="448" type="curve" smooth="yes"/>
      <point x="240" y="383"/>
      <point x="310" y="309"/>
      <point x="413" y="217" type="curve"/>
      <point x="429" y="244"/>
      <point x="442" y="269"/>
      <point x="453" y="296" type="curve"/>
      <point x="538" y="261" type="line"/>
      <point x="523" y="228"/>
      <point x="506" y="191"/>
      <point x="483" y="156" type="curve"/>
      <point x="580" y="72" type="line"/>
      <point x="522" y="-5" type="line"/>
      <point x="487" y="23"/>
      <point x="454" y="50"/>
      <point x="421" y="78" type="curve"/>
      <point x="370" y="29"/>
      <point x="305" y="-6"/>
      <point x="217" y="-6" type="curve" smooth="yes"/>
      <point x="125" y="-6"/>
      <point x="35" y="57"/>
      <point x="35" y="169" type="curve" smooth="yes"/>
      <point x="35" y="268"/>
      <point x="98" y="330"/>
      <point x="144" y="363" type="curve"/>
      <point x="129" y="394"/>
      <point x="121" y="424"/>
      <point x="121" y="453" type="curve" smooth="yes"/>
      <point x="121" y="525"/>
      <point x="169" y="595"/>
      <point x="292" y="595" type="curve" smooth="yes"/>
      <point x="360" y="595"/>
      <point x="408" y="568"/>
      <point x="443" y="523" type="curve"/>
    </contour>
    <contour>
      <point x="349" y="138" type="curve"/>
      <point x="289" y="189"/>
      <point x="234" y="238"/>
      <point x="194" y="289" type="curve"/>
      <point x="175" y="269"/>
      <point x="154" y="235"/>
      <point x="154" y="184" type="curve" smooth="yes"/>
      <point x="154" y="128"/>
      <point x="189" y="93"/>
      <point x="250" y="93" type="curve" smooth="yes"/>
      <point x="285" y="93"/>
      <point x="318" y="110"/>
    </contour>
  </outline>
</glyph>
<glyph name="parenleft" format="1">
  <advance width="383"/>
  <unicode hex="0028"/>
  <outline>
    <contour>
      <point x="70" y="269" type="curve" smooth="yes"/>
      <point x="70" y="527"/>
      <point x="208" y="675"/>
      <point x="281" y="726" type="curve"/>
      <point x="343" y="657" type="line"/>
      <point x="284" y="609"/>
      <point x="184" y="483"/>
      <point x="184" y="268" type="curve" smooth="yes"/>
      <point x="184" y="52"/>
      <point x="284" y="-74"/>
      <point x="343" y="-122" type="curve"/>
      <point x="281" y="-191" type="line"/>
      <point x="208" y="-140"/>
      <point x="70" y="7"/>
    </contour>
  </outline>
</glyph>
<glyph name="parenright" format="1">
  <advance width="383"/>
  <unicode hex="0029"/>
  <outline>
    <contour>
      <point x="343" y="269" type="curve" smooth="yes"/>
      <point x="343" y="7"/>
      <point x="205" y="-140"/>
      <point x="132" y="-191" type="curve"/>
      <point x="70" y="-122" type="line"/>
      <point x="129" y="-74"/>
      <point x="229" y="52"/>
      <point x="229" y="268" type="curve" smooth="yes"/>
      <point x="229" y="483"/>
      <point x="129" y="609"/>
      <point x="70" y="657" type="curve"/>
      <point x="132" y="726" type="line"/>
      <point x="205" y="675"/>
      <point x="343" y="527"/>
    </contour>
  </outline>
</glyph>
<glyph name="asterisk" format="1">
  <advance width="451"/>
  <unicode hex="002A"/>
  <outline>
    <contour>
      <point x="271" y="677" type="line"/>
      <point x="261" y="563" type="line"/>
      <point x="371" y="609" type="line"/>
      <point x="401" y="517" type="line"/>
      <point x="288" y="490" type="line"/>
      <point x="364" y="403" type="line"/>
      <point x="285" y="346" type="line"/>
      <point x="224" y="445" type="line"/>
      <point x="163" y="345" type="line"/>
      <point x="84" y="402" type="line"/>
      <point x="161" y="491" type="line"/>
      <point x="50" y="517" type="line"/>
      <point x="80" y="609" type="line"/>
      <point x="183" y="566" type="line"/>
      <point x="174" y="677" type="line"/>
    </contour>
  </outline>
</glyph>
<glyph name="comma" format="1">
  <advance width="281"/>
  <unicode hex="002C"/>
  <outline>
    <contour>
      <point x="87" y="123" type="curve"/>
      <point x="90" y="126"/>
      <point x="95" y="129"/>
      <point x="102" y="132" type="curve" smooth="yes"/>
      <point x="113" y="136"/>
      <point x="129" y="141"/>
      <point x="153" y="141" type="curve" smooth="yes"/>
      <point x="200" y="141"/>
      <point x="221" y="110"/>
      <point x="221" y="66" type="curve" smooth="yes"/>
      <point x="221" y="-42"/>
      <point x="155" y="-111"/>
      <point x="83" y="-148" type="curve"/>
      <point x="40" y="-89" type="line"/>
      <point x="147" y="-8"/>
      <point x="93" y="73"/>
    </contour>
  </outline>
</glyph>
<glyph name="period" format="1">
  <advance width="269"/>
  <unicode hex="002E"/>
  <outline>
    <contour>
      <point x="136" y="141" type="curve" smooth="yes"/>
      <point x="183" y="141"/>
      <point x="209" y="110"/>
      <point x="209" y="66" type="curve" smooth="yes"/>
      <point x="209" y="23"/>
      <point x="184" y="-11"/>
      <point x="133" y="-11" type="curve" smooth="yes"/>
      <point x="86" y="-11"/>
      <point x="60" y="23"/>
      <point x="60" y="63" type="curve" smooth="yes"/>
      <point x="60" y="107"/>
      <point x="85" y="141"/>
    </contour>
  </outline>
</glyph>
<glyph name="zero" format="1">
  <advance width="564"/>
  <unicode hex="0030"/>
  <outline>
    <contour>
      <point x="289" y="642" type="curve" smooth="yes"/>
      <point x="454" y="642"/>
      <point x="519" y="528"/>
      <point x="519" y="327" type="curve" smooth="yes"/>
      <point x="519" y="128"/>
      <point x="449" y="-6"/>
      <point x="276" y="-6" type="curve" smooth="yes"/>
      <point x="111" y="-6"/>
      <point x="45" y="108"/>
      <point x="45" y="311" type="curve" smooth="yes"/>
      <point x="45" y="511"/>
      <point x="117" y="642"/>
    </contour>
    <contour>
      <point x="276" y="554" type="curve" smooth="yes"/>
      <point x="193" y="554"/>
      <point x="170" y="463"/>
      <point x="170" y="322" type="curve" smooth="yes"/>
      <point x="170" y="190"/>
      <point x="188" y="82"/>
      <point x="288" y="82" type="curve" smooth="yes"/>
      <point x="372" y="82"/>
      <point x="393" y="175"/>
      <point x="393" y="315" type="curve" smooth="yes"/>
      <point x="393" y="448"/>
      <point x="376" y="554"/>
    </contour>
  </outline>
</glyph>
<glyph name="one" format="1">
  <advance width="386"/>
  <unicode hex="0031"/>
  <outline>
    <contour>
      <point x="286" y="637" type="line"/>
      <point x="286" y="0" type="line"/>
      <point x="171" y="0" type="line"/>
      <point x="171" y="503" type="line"/>
      <point x="130" y="464"/>
      <point x="84" y="433"/>
      <point x="45" y="421" type="curve"/>
      <point x="0" y="504" type="line"/>
      <point x="65" y="534"/>
      <point x="125" y="557"/>
      <point x="200" y="637" type="curve"/>
    </contour>
  </outline>
</glyph>
<glyph name="two" format="1">
  <advance width="492"/>
  <unicode hex="0032"/>
  <outline>
    <contour>
      <point x="39" y="586" type="line"/>
      <point x="93" y="610"/>
      <point x="178" y="642"/>
      <point x="257" y="642" type="curve" smooth="yes"/>
      <point x="352" y="642"/>
      <point x="435" y="601"/>
      <point x="435" y="469" type="curve" smooth="yes"/>
      <point x="435" y="382"/>
      <point x="372" y="304"/>
      <point x="273" y="192" type="curve"/>
      <point x="182" y="92" type="line"/>
      <point x="452" y="92" type="line"/>
      <point x="452" y="0" type="line"/>
      <point x="35" y="0" type="line"/>
      <point x="35" y="92" type="line"/>
      <point x="58" y="118"/>
      <point x="150" y="213"/>
      <point x="172" y="238" type="curve" smooth="yes"/>
      <point x="277" y="359"/>
      <point x="309" y="403"/>
      <point x="309" y="470" type="curve" smooth="yes"/>
      <point x="309" y="521"/>
      <point x="278" y="554"/>
      <point x="233" y="554" type="curve" smooth="yes"/>
      <point x="181" y="554"/>
      <point x="141" y="533"/>
      <point x="78" y="506" type="curve"/>
    </contour>
  </outline>
</glyph>
<glyph name="three" format="1">
  <advance width="500"/>
  <unicode hex="0033"/>
  <outline>
    <contour>
      <point x="247" y="642" type="curve" smooth="yes"/>
      <point x="364" y="642"/>
      <point x="426" y="586"/>
      <point x="426" y="503" type="curve" smooth="yes"/>
      <point x="426" y="424"/>
      <point x="365" y="386"/>
      <point x="324" y="367" type="curve"/>
      <point x="408" y="342"/>
      <point x="455" y="271"/>
      <point x="455" y="198" type="curve" smooth="yes"/>
      <point x="455" y="97"/>
      <point x="399" y="-6"/>
      <point x="223" y="-6" type="curve" smooth="yes"/>
      <point x="163" y="-6"/>
      <point x="96" y="18"/>
      <point x="35" y="46" type="curve"/>
      <point x="69" y="130" type="line"/>
      <point x="130" y="103"/>
      <point x="172" y="82"/>
      <point x="219" y="82" type="curve" smooth="yes"/>
      <point x="279" y="82"/>
      <point x="337" y="119"/>
      <point x="337" y="196" type="curve" smooth="yes"/>
      <point x="337" y="256"/>
      <point x="295" y="298"/>
      <point x="248" y="298" type="curve" smooth="yes"/>
      <point x="203" y="298"/>
      <point x="156" y="286"/>
      <point x="151" y="286" type="curve"/>
      <point x="119" y="365" type="line"/>
      <point x="219" y="397"/>
      <point x="305" y="419"/>
      <point x="305" y="491" type="curve" smooth="yes"/>
      <point x="305" y="532"/>
      <point x="278" y="554"/>
      <point x="231" y="554" type="curve" smooth="yes"/>
      <point x="181" y="554"/>
      <point x="149" y="538"/>
      <point x="87" y="514" type="curve"/>
      <point x="48" y="593" type="line"/>
      <point x="114" y="622"/>
      <point x="166" y="642"/>
    </contour>
    <contour>
      <point x="126" y="364" type="line" smooth="yes"/>
      <point x="123" y="364"/>
      <point x="122" y="365"/>
      <point x="119" y="365" type="curve" smooth="yes"/>
    </contour>
  </outline>
</glyph>
<glyph name="four" format="1">
  <advance width="525"/>
  <unicode hex="0034"/>
  <outline>
    <contour>
      <point x="414" y="263" type="line"/>
      <point x="510" y="263" type="line"/>
      <point x="494" y="175" type="line"/>
      <point x="414" y="175" type="line"/>
      <point x="414" y="0" type="line"/>
      <point x="299" y="0" type="line"/>
      <point x="299" y="175" type="line"/>
      <point x="20" y="175" type="line"/>
      <point x="20" y="240" type="line"/>
      <point x="201" y="637" type="line"/>
      <point x="320" y="637" type="line"/>
      <point x="145" y="263" type="line"/>
      <point x="299" y="263" type="line"/>
      <point x="299" y="465" type="line"/>
      <point x="414" y="485" type="line"/>
    </contour>
  </outline>
</glyph>
<glyph name="five" format="1">
  <advance width="509"/>
  <unicode hex="0035"/>
  <outline>
    <contour>
      <point x="279" y="404" type="curve" smooth="yes"/>
      <point x="391" y="404"/>
      <point x="461" y="315"/>
      <point x="461" y="206" type="curve" smooth="yes"/>
      <point x="461" y="96"/>
      <point x="401" y="-14"/>
      <point x="233" y="-6" type="curve" smooth="yes"/>
      <point x="164" y="-2"/>
      <point x="106" y="18"/>
      <point x="45" y="46" type="curve"/>
      <point x="79" y="130" type="line"/>
      <point x="140" y="103"/>
      <point x="182" y="82"/>
      <point x="230" y="82" type="curve" smooth="yes"/>
      <point x="306" y="82"/>
      <point x="336" y="123"/>
      <point x="336" y="207" type="curve" smooth="yes"/>
      <point x="336" y="276"/>
      <point x="297" y="314"/>
      <point x="237" y="314" type="curve" smooth="yes"/>
      <point x="159" y="314"/>
      <point x="120" y="288"/>
      <point x="113" y="286" type="curve"/>
      <point x="65" y="322" type="line"/>
      <point x="99" y="637" type="line"/>
      <point x="428" y="637" type="line"/>
      <point x="412" y="545" type="line"/>
      <point x="200" y="545" type="line"/>
      <point x="179" y="386" type="line"/>
      <point x="190" y="393"/>
      <point x="218" y="404"/>
    </contour>
  </outline>
</glyph>
<glyph name="six" format="1">
  <advance width="525"/>
  <unicode hex="0036"/>
  <outline>
    <contour>
      <point x="413" y="533" type="line"/>
      <point x="382" y="544"/>
      <point x="347" y="551"/>
      <point x="312" y="551" type="curve" smooth="yes"/>
      <point x="199" y="551"/>
      <point x="171" y="459"/>
      <point x="168" y="350" type="curve"/>
      <point x="192" y="377"/>
      <point x="234" y="413"/>
      <point x="302" y="413" type="curve" smooth="yes"/>
      <point x="419" y="413"/>
      <point x="490" y="337"/>
      <point x="490" y="205" type="curve" smooth="yes"/>
      <point x="490" y="85"/>
      <point x="412" y="-6"/>
      <point x="268" y="-6" type="curve" smooth="yes"/>
      <point x="101" y="-6"/>
      <point x="45" y="129"/>
      <point x="45" y="318" type="curve" smooth="yes"/>
      <point x="45" y="489"/>
      <point x="121" y="640"/>
      <point x="316" y="640" type="curve" smooth="yes"/>
      <point x="365" y="640"/>
      <point x="409" y="628"/>
      <point x="444" y="613" type="curve"/>
    </contour>
    <contour>
      <point x="279" y="326" type="curve" smooth="yes"/>
      <point x="226" y="326"/>
      <point x="176" y="288"/>
      <point x="168" y="280" type="curve"/>
      <point x="173" y="143"/>
      <point x="202" y="80"/>
      <point x="277" y="80" type="curve" smooth="yes"/>
      <point x="345" y="80"/>
      <point x="373" y="131"/>
      <point x="373" y="204" type="curve" smooth="yes"/>
      <point x="373" y="273"/>
      <point x="348" y="326"/>
    </contour>
  </outline>
</glyph>
<glyph name="eight" format="1">
  <advance width="525"/>
  <unicode hex="0038"/>
  <outline>
    <contour>
      <point x="262" y="-6" type="curve" smooth="yes"/>
      <point x="147" y="-6"/>
      <point x="50" y="47"/>
      <point x="50" y="159" type="curve" smooth="yes"/>
      <point x="50" y="240"/>
      <point x="111" y="290"/>
      <point x="173" y="328" type="curve"/>
      <point x="113" y="363"/>
      <point x="67" y="416"/>
      <point x="67" y="488" type="curve" smooth="yes"/>
      <point x="67" y="573"/>
      <point x="155" y="642"/>
      <point x="267" y="642" type="curve" smooth="yes"/>
      <point x="371" y="642"/>
      <point x="454" y="577"/>
      <point x="454" y="492" type="curve" smooth="yes"/>
      <point x="454" y="423"/>
      <point x="406" y="372"/>
      <point x="351" y="335" type="curve"/>
      <point x="415" y="300"/>
      <point x="475" y="237"/>
      <point x="475" y="165" type="curve" smooth="yes"/>
      <point x="475" y="61"/>
      <point x="382" y="-6"/>
    </contour>
    <contour>
      <point x="170" y="163" type="curve" smooth="yes"/>
      <point x="170" y="114"/>
      <point x="205" y="74"/>
      <point x="269" y="74" type="curve" smooth="yes"/>
      <point x="320" y="74"/>
      <point x="352" y="114"/>
      <point x="352" y="161" type="curve" smooth="yes"/>
      <point x="352" y="210"/>
      <point x="303" y="257"/>
      <point x="264" y="286" type="curve"/>
      <point x="213" y="257"/>
      <point x="170" y="220"/>
    </contour>
    <contour>
      <point x="334" y="491" type="curve" smooth="yes"/>
      <point x="334" y="532"/>
      <point x="307" y="562"/>
      <point x="262" y="562" type="curve" smooth="yes"/>
      <point x="217" y="562"/>
      <point x="186" y="538"/>
      <point x="186" y="493" type="curve" smooth="yes"/>
      <point x="186" y="437"/>
      <point x="226" y="401"/>
      <point x="263" y="380" type="curve"/>
      <point x="302" y="403"/>
      <point x="334" y="431"/>
    </contour>
  </outline>
</glyph>
<glyph name="nine" format="1">
  <advance width="524"/>
  <unicode hex="0039"/>
  <outline>
    <contour>
      <point x="112" y="101" type="line"/>
      <point x="143" y="90"/>
      <point x="178" y="83"/>
      <point x="213" y="83" type="curve" smooth="yes"/>
      <point x="327" y="83"/>
      <point x="353" y="174"/>
      <point x="356" y="283" type="curve"/>
      <point x="335" y="256"/>
      <point x="290" y="221"/>
      <point x="223" y="221" type="curve" smooth="yes"/>
      <point x="106" y="221"/>
      <point x="35" y="297"/>
      <point x="35" y="429" type="curve" smooth="yes"/>
      <point x="35" y="549"/>
      <point x="113" y="640"/>
      <point x="257" y="640" type="curve" smooth="yes"/>
      <point x="424" y="640"/>
      <point x="480" y="505"/>
      <point x="480" y="316" type="curve" smooth="yes"/>
      <point x="480" y="145"/>
      <point x="404" y="-6"/>
      <point x="209" y="-6" type="curve" smooth="yes"/>
      <point x="160" y="-6"/>
      <point x="116" y="6"/>
      <point x="81" y="21" type="curve"/>
    </contour>
    <contour>
      <point x="246" y="308" type="curve" smooth="yes"/>
      <point x="298" y="308"/>
      <point x="348" y="345"/>
      <point x="356" y="353" type="curve"/>
      <point x="352" y="490"/>
      <point x="323" y="554"/>
      <point x="248" y="554" type="curve" smooth="yes"/>
      <point x="180" y="554"/>
      <point x="152" y="503"/>
      <point x="152" y="430" type="curve" smooth="yes"/>
      <point x="152" y="362"/>
      <point x="177" y="308"/>
    </contour>
  </outline>
</glyph>
<glyph name="colon" format="1">
  <advance width="289"/>
  <unicode hex="003A"/>
  <outline>
    <contour>
      <point x="166" y="141" type="curve" smooth="yes"/>
      <point x="213" y="141"/>
      <point x="239" y="110"/>
      <point x="239" y="66" type="curve" smooth="yes"/>
      <point x="239" y="23"/>
      <point x="214" y="-11"/>
      <point x="163" y="-11" type="curve" smooth="yes"/>
      <point x="116" y="-11"/>
      <point x="90" y="23"/>
      <point x="90" y="63" type="curve" smooth="yes"/>
      <point x="90" y="107"/>
      <point x="115" y="141"/>
    </contour>
    <contour>
      <point x="166" y="510" type="curve" smooth="yes"/>
      <point x="213" y="510"/>
      <point x="239" y="479"/>
      <point x="239" y="435" type="curve" smooth="yes"/>
      <point x="239" y="392"/>
      <point x="214" y="358"/>
      <point x="163" y="358" type="curve" smooth="yes"/>
      <point x="116" y="358"/>
      <point x="90" y="392"/>
      <point x="90" y="432" type="curve" smooth="yes"/>
      <point x="90" y="476"/>
      <point x="115" y="510"/>
    </contour>
  </outline>
</glyph>
<glyph name="semicolon" format="1">
  <advance width="290"/>
  <unicode hex="003B"/>
  <outline>
    <contour>
      <point x="165" y="510" type="curve" smooth="yes"/>
      <point x="212" y="510"/>
      <point x="238" y="479"/>
      <point x="238" y="435" type="curve" smooth="yes"/>
      <point x="238" y="392"/>
      <point x="213" y="358"/>
      <point x="162" y="358" type="curve" smooth="yes"/>
      <point x="115" y="358"/>
      <point x="89" y="392"/>
      <point x="89" y="432" type="curve" smooth="yes"/>
      <point x="89" y="476"/>
      <point x="114" y="510"/>
    </contour>
    <contour>
      <point x="106" y="123" type="curve"/>
      <point x="109" y="126"/>
      <point x="114" y="129"/>
      <point x="121" y="132" type="curve" smooth="yes"/>
      <point x="132" y="136"/>
      <point x="148" y="141"/>
      <point x="172" y="141" type="curve" smooth="yes"/>
      <point x="219" y="141"/>
      <point x="240" y="110"/>
      <point x="240" y="66" type="curve" smooth="yes"/>
      <point x="240" y="-42"/>
      <point x="174" y="-111"/>
      <point x="102" y="-148" type="curve"/>
      <point x="59" y="-89" type="line"/>
      <point x="166" y="-8"/>
      <point x="112" y="73"/>
    </contour>
  </outline>
</glyph>
<glyph name="equal" format="1">
  <advance width="503"/>
  <unicode hex="003D"/>
  <outline>
    <contour>
      <point x="70" y="436" type="line"/>
      <point x="433" y="436" type="line"/>
      <point x="433" y="347" type="line"/>
      <point x="70" y="347" type="line"/>
    </contour>
    <contour>
      <point x="70" y="261" type="line"/>
      <point x="433" y="261" type="line"/>
      <point x="433" y="172" type="line"/>
      <point x="70" y="172" type="line"/>
    </contour>
  </outline>
</glyph>
<glyph name="greater" format="1">
  <advance width="455"/>
  <unicode hex="003E"/>
  <outline>
    <contour>
      <point x="40" y="183" type="line"/>
      <point x="237" y="274" type="line" smooth="yes"/>
      <point x="257" y="283"/>
      <point x="281" y="293"/>
      <point x="300" y="300" type="curve"/>
      <point x="281" y="307"/>
      <point x="259" y="315"/>
      <point x="238" y="326" type="curve"/>
      <point x="46" y="413" type="line"/>
      <point x="86" y="507" type="line"/>
      <point x="425" y="342" type="line"/>
      <point x="425" y="258" type="line"/>
      <point x="80" y="90" type="line"/>
    </contour>
  </outline>
</glyph>
<glyph name="question" format="1">
  <advance width="434"/>
  <unicode hex="003F"/>
  <outline>
    <contour>
      <point x="219" y="687" type="curve" smooth="yes"/>
      <point x="336" y="687"/>
      <point x="409" y="644"/>
      <point x="409" y="537" type="curve" smooth="yes"/>
      <point x="409" y="460"/>
      <point x="356" y="397"/>
      <point x="307" y="337" type="curve" smooth="yes"/>
      <point x="270" y="290"/>
      <point x="238" y="246"/>
      <point x="223" y="197" type="curve"/>
      <point x="138" y="220" type="line"/>
      <point x="138" y="360"/>
      <point x="280" y="443"/>
      <point x="280" y="523" type="curve" smooth="yes"/>
      <point x="280" y="571"/>
      <point x="249" y="599"/>
      <point x="204" y="599" type="curve" smooth="yes"/>
      <point x="161" y="599"/>
      <point x="137" y="584"/>
      <point x="79" y="557" type="curve"/>
      <point x="40" y="637" type="line"/>
      <point x="95" y="662"/>
      <point x="151" y="687"/>
    </contour>
    <contour>
      <point x="187" y="141" type="curve" smooth="yes"/>
      <point x="234" y="141"/>
      <point x="260" y="110"/>
      <point x="260" y="66" type="curve" smooth="yes"/>
      <point x="260" y="23"/>
      <point x="235" y="-11"/>
      <point x="184" y="-11" type="curve" smooth="yes"/>
      <point x="137" y="-11"/>
      <point x="111" y="23"/>
      <point x="111" y="63" type="curve" smooth="yes"/>
      <point x="111" y="107"/>
      <point x="136" y="141"/>
    </contour>
  </outline>
</glyph>
<glyph name="at" format="1">
  <advance width="896"/>
  <unicode hex="0040"/>
  <outline>
    <contour>
      <point x="627" y="217" type="line" smooth="yes"/>
      <point x="627" y="141"/>
      <point x="633" y="74"/>
      <point x="678" y="74" type="curve" smooth="yes"/>
      <point x="722" y="74"/>
      <point x="755" y="159"/>
      <point x="760" y="244" type="curve" smooth="yes"/>
      <point x="771" y="445"/>
      <point x="638" y="538"/>
      <point x="481" y="538" type="curve" smooth="yes"/>
      <point x="313" y="538"/>
      <point x="141" y="423"/>
      <point x="141" y="203" type="curve" smooth="yes"/>
      <point x="141" y="59"/>
      <point x="195" y="-84"/>
      <point x="411" y="-84" type="curve" smooth="yes"/>
      <point x="450" y="-84"/>
      <point x="494" y="-76"/>
      <point x="527" y="-65" type="curve"/>
      <point x="546" y="-60"/>
      <point x="565" y="-53"/>
      <point x="583" y="-46" type="curve"/>
      <point x="611" y="-116" type="line"/>
      <point x="592" y="-125"/>
      <point x="571" y="-133"/>
      <point x="549" y="-140" type="curve" smooth="yes"/>
      <point x="512" y="-152"/>
      <point x="462" y="-163"/>
      <point x="411" y="-163" type="curve" smooth="yes"/>
      <point x="232" y="-163"/>
      <point x="55" y="-81"/>
      <point x="55" y="199" type="curve" smooth="yes"/>
      <point x="55" y="471"/>
      <point x="277" y="617"/>
      <point x="492" y="617" type="curve" smooth="yes"/>
      <point x="684" y="617"/>
      <point x="858" y="499"/>
      <point x="845" y="249" type="curve" smooth="yes"/>
      <point x="837" y="94"/>
      <point x="754" y="-6"/>
      <point x="670" y="-6" type="curve" smooth="yes"/>
      <point x="597" y="-6"/>
      <point x="559" y="41"/>
      <point x="542" y="109" type="curve"/>
      <point x="523" y="33"/>
      <point x="480" y="-6"/>
      <point x="400" y="-6" type="curve" smooth="yes"/>
      <point x="287" y="-6"/>
      <point x="234" y="82"/>
      <point x="234" y="218" type="curve" smooth="yes"/>
      <point x="234" y="355"/>
      <point x="321" y="456"/>
      <point x="450" y="456" type="curve" smooth="yes"/>
      <point x="486" y="456"/>
      <point x="530" y="450"/>
      <point x="565" y="443" type="curve" smooth="yes"/>
      <point x="586" y="439"/>
      <point x="606" y="435"/>
      <point x="627" y="430" type="curve"/>
    </contour>
    <contour>
      <point x="417" y="70" type="curve" smooth="yes"/>
      <point x="474" y="70"/>
      <point x="517" y="151"/>
      <point x="520" y="237" type="curve"/>
      <point x="520" y="371" type="line"/>
      <point x="509" y="374"/>
      <point x="480" y="381"/>
      <point x="461" y="381" type="curve" smooth="yes"/>
      <point x="382" y="381"/>
      <point x="348" y="317"/>
      <point x="348" y="227" type="curve" smooth="yes"/>
      <point x="348" y="144"/>
      <point x="358" y="70"/>
    </contour>
  </outline>
</glyph>
<glyph name="A" format="1">
  <advance width="606"/>
  <unicode hex="0041"/>
  <outline>
    <contour>
      <point x="301" y="677" type="move" name="topUC"/>
    </contour>
    <contour>
      <point x="255" y="677" type="line"/>
      <point x="351" y="677" type="line"/>
      <point x="611" y="0" type="line"/>
      <point x="483" y="0" type="line"/>
      <point x="421" y="177" type="line"/>
      <point x="178" y="177" type="line"/>
      <point x="115" y="0" type="line"/>
      <point x="-5" y="0" type="line"/>
    </contour>
    <contour>
      <point x="390" y="266" type="line"/>
      <point x="349" y="383"/>
      <point x="317" y="487"/>
      <point x="301" y="543" type="curve"/>
      <point x="282" y="483"/>
      <point x="251" y="381"/>
      <point x="210" y="266" type="curve"/>
    </contour>
  </outline>
</glyph>
<glyph name="B" format="1">
  <advance width="565"/>
  <unicode hex="0042"/>
  <outline>
    <contour>
      <point x="70" y="677" type="line"/>
      <point x="90" y="677" type="line" smooth="yes"/>
      <point x="115" y="677"/>
      <point x="138" y="677"/>
      <point x="161" y="678" type="curve"/>
      <point x="200" y="678"/>
      <point x="244" y="679"/>
      <point x="271" y="679" type="curve" smooth="yes"/>
      <point x="426" y="679"/>
      <point x="509" y="615"/>
      <point x="509" y="503" type="curve" smooth="yes"/>
      <point x="509" y="438"/>
      <point x="470" y="384"/>
      <point x="406" y="352" type="curve"/>
      <point x="486" y="321"/>
      <point x="530" y="263"/>
      <point x="530" y="190" type="curve" smooth="yes"/>
      <point x="530" y="75"/>
      <point x="443" y="-1"/>
      <point x="267" y="-1" type="curve" smooth="yes"/>
      <point x="153" y="-1" type="line" smooth="yes"/>
      <point x="132" y="-1"/>
      <point x="112" y="-1"/>
      <point x="93" y="0" type="curve"/>
      <point x="70" y="0" type="line"/>
    </contour>
    <contour>
      <point x="264" y="304" type="curve" smooth="yes"/>
      <point x="233" y="304"/>
      <point x="209" y="304"/>
      <point x="190" y="303" type="curve"/>
      <point x="190" y="86" type="line"/>
      <point x="275" y="86" type="line" smooth="yes"/>
      <point x="366" y="86"/>
      <point x="401" y="131"/>
      <point x="401" y="192" type="curve" smooth="yes"/>
      <point x="401" y="248"/>
      <point x="370" y="304"/>
    </contour>
    <contour>
      <point x="256" y="593" type="curve" smooth="yes"/>
      <point x="228" y="593"/>
      <point x="206" y="593"/>
      <point x="190" y="592" type="curve"/>
      <point x="190" y="389" type="line"/>
      <point x="266" y="389" type="line" smooth="yes"/>
      <point x="349" y="389"/>
      <point x="382" y="432"/>
      <point x="382" y="489" type="curve" smooth="yes"/>
      <point x="382" y="541"/>
      <point x="353" y="593"/>
    </contour>
  </outline>
</glyph>
<glyph name="C" format="1">
  <advance width="524"/>
  <unicode hex="0043"/>
  <outline>
    <contour>
      <point x="316" y="0" type="move" name="bottom"/>
    </contour>
    <contour>
      <point x="442" y="540" type="line"/>
      <point x="410" y="575"/>
      <point x="377" y="593"/>
      <point x="330" y="593" type="curve" smooth="yes"/>
      <point x="217" y="593"/>
      <point x="177" y="482"/>
      <point x="177" y="341" type="curve" smooth="yes"/>
      <point x="177" y="201"/>
      <point x="212" y="87"/>
      <point x="340" y="87" type="curve" smooth="yes"/>
      <point x="400" y="87"/>
      <point x="456" y="110"/>
      <point x="466" y="113" type="curve"/>
      <point x="494" y="28" type="line"/>
      <point x="479" y="21"/>
      <point x="462" y="16"/>
      <point x="444" y="11" type="curve" smooth="yes"/>
      <point x="412" y="2"/>
      <point x="368" y="-6"/>
      <point x="317" y="-6" type="curve" smooth="yes"/>
      <point x="137" y="-6"/>
      <point x="47" y="110"/>
      <point x="47" y="330" type="curve" smooth="yes"/>
      <point x="47" y="541"/>
      <point x="142" y="686"/>
      <point x="342" y="686" type="curve" smooth="yes"/>
      <point x="423" y="686"/>
      <point x="472" y="651"/>
      <point x="504" y="614" type="curve"/>
    </contour>
  </outline>
</glyph>
<glyph name="D" format="1">
  <advance width="643"/>
  <unicode hex="0044"/>
  <outline>
    <contour>
      <point x="70" y="677" type="line"/>
      <point x="90" y="677" type="line" smooth="yes"/>
      <point x="112" y="677"/>
      <point x="134" y="677"/>
      <point x="155" y="678" type="curve"/>
      <point x="191" y="678"/>
      <point x="235" y="679"/>
      <point x="267" y="679" type="curve" smooth="yes"/>
      <point x="494" y="679"/>
      <point x="600" y="564"/>
      <point x="600" y="343" type="curve" smooth="yes"/>
      <point x="600" y="120"/>
      <point x="493" y="-2"/>
      <point x="254" y="-2" type="curve" smooth="yes"/>
      <point x="213" y="-2"/>
      <point x="174" y="-2"/>
      <point x="143" y="-1" type="curve" smooth="yes"/>
      <point x="126" y="-1"/>
      <point x="109" y="-1"/>
      <point x="93" y="0" type="curve"/>
      <point x="70" y="0" type="line"/>
    </contour>
    <contour>
      <point x="253" y="589" type="curve" smooth="yes"/>
      <point x="222" y="589"/>
      <point x="203" y="588"/>
      <point x="190" y="588" type="curve"/>
      <point x="190" y="89" type="line"/>
      <point x="205" y="88"/>
      <point x="225" y="88"/>
      <point x="268" y="88" type="curve" smooth="yes"/>
      <point x="408" y="88"/>
      <point x="470" y="171"/>
      <point x="470" y="332" type="curve" smooth="yes"/>
      <point x="470" y="487"/>
      <point x="411" y="589"/>
    </contour>
  </outline>
</glyph>
<glyph name="E" format="1">
  <advance width="513"/>
  <unicode hex="0045"/>
  <outline>
    <contour>
      <point x="284" y="677" type="move" name="topUC"/>
    </contour>
    <contour>
      <point x="70" y="677" type="line"/>
      <point x="473" y="677" type="line"/>
      <point x="473" y="586" type="line"/>
      <point x="190" y="586" type="line"/>
      <point x="190" y="398" type="line"/>
      <point x="423" y="398" type="line"/>
      <point x="408" y="307" type="line"/>
      <point x="190" y="307" type="line"/>
      <point x="190" y="91" type="line"/>
      <point x="488" y="91" type="line"/>
      <point x="488" y="0" type="line"/>
      <point x="70" y="0" type="line"/>
    </contour>
  </outline>
</glyph>
<glyph name="G" format="1">
  <advance width="605"/>
  <unicode hex="0047"/>
  <outline>
    <contour>
      <point x="447" y="15" type="curve" smooth="yes"/>
      <point x="449" y="34"/>
      <point x="450" y="50"/>
      <point x="450" y="65" type="curve" smooth="yes"/>
      <point x="450" y="72"/>
      <point x="450" y="76"/>
      <point x="449" y="79" type="curve"/>
      <point x="418" y="23"/>
      <point x="358" y="-8"/>
      <point x="281" y="-8" type="curve" smooth="yes"/>
      <point x="113" y="-8"/>
      <point x="43" y="126"/>
      <point x="43" y="329" type="curve" smooth="yes"/>
      <point x="43" y="537"/>
      <point x="137" y="686"/>
      <point x="339" y="686" type="curve" smooth="yes"/>
      <point x="428" y="686"/>
      <point x="489" y="651"/>
      <point x="524" y="614" type="curve"/>
      <point x="465" y="538" type="line"/>
      <point x="430" y="573"/>
      <point x="377" y="593"/>
      <point x="326" y="593" type="curve" smooth="yes"/>
      <point x="212" y="593"/>
      <point x="173" y="479"/>
      <point x="173" y="339" type="curve" smooth="yes"/>
      <point x="173" y="188"/>
      <point x="210" y="86"/>
      <point x="304" y="86" type="curve" smooth="yes"/>
      <point x="366" y="86"/>
      <point x="437" y="144"/>
      <point x="437" y="238" type="curve" smooth="yes"/>
      <point x="437" y="329" type="line"/>
      <point x="555" y="329" type="line"/>
      <point x="555" y="27" type="line" smooth="yes"/>
      <point x="555" y="-135"/>
      <point x="459" y="-183"/>
      <point x="377" y="-223" type="curve"/>
      <point x="330" y="-143" type="line"/>
      <point x="440" y="-92"/>
      <point x="442" y="-27"/>
    </contour>
  </outline>
</glyph>
<glyph name="J" format="1">
  <advance width="260"/>
  <unicode hex="004A"/>
  <outline>
    <contour>
      <point x="190" y="26" type="line" smooth="yes"/>
      <point x="190" y="-134"/>
      <point x="94" y="-183"/>
      <point x="12" y="-223" type="curve"/>
      <point x="-35" y="-143" type="line"/>
      <point x="72" y="-89"/>
      <point x="70" y="-29"/>
      <point x="70" y="14" type="curve" smooth="yes"/>
      <point x="70" y="677" type="line"/>
      <point x="190" y="677" type="line"/>
    </contour>
  </outline>
</glyph>
<glyph name="K" format="1">
  <advance width="593"/>
  <unicode hex="004B"/>
  <outline>
    <contour>
      <point x="70" y="677" type="line"/>
      <point x="190" y="677" type="line"/>
      <point x="190" y="0" type="line"/>
      <point x="70" y="0" type="line"/>
    </contour>
    <contour>
      <point x="541" y="677" type="line"/>
      <point x="498" y="476"/>
      <point x="438" y="409"/>
      <point x="354" y="352" type="curve"/>
      <point x="600" y="0" type="line"/>
      <point x="460" y="0" type="line"/>
      <point x="203" y="366" type="line"/>
      <point x="203" y="373" type="line"/>
      <point x="326" y="418"/>
      <point x="386" y="524"/>
      <point x="422" y="677" type="curve"/>
    </contour>
  </outline>
</glyph>
<glyph name="L" format="1">
  <advance width="443"/>
  <unicode hex="004C"/>
  <outline>
    <contour>
      <point x="70" y="677" type="line"/>
      <point x="190" y="677" type="line"/>
      <point x="190" y="91" type="line"/>
      <point x="443" y="91" type="line"/>
      <point x="443" y="0" type="line"/>
      <point x="70" y="0" type="line"/>
    </contour>
  </outline>
</glyph>
<glyph name="M" format="1">
  <advance width="813"/>
  <unicode hex="004D"/>
  <outline>
    <contour>
      <point x="630" y="255" type="line"/>
      <point x="627" y="290"/>
      <point x="626" y="359"/>
      <point x="625" y="424" type="curve"/>
      <point x="601" y="358"/>
      <point x="573" y="286"/>
      <point x="562" y="258" type="curve"/>
      <point x="451" y="0" type="line"/>
      <point x="366" y="0" type="line"/>
      <point x="254" y="255" type="line" smooth="yes"/>
      <point x="241" y="284"/>
      <point x="211" y="360"/>
      <point x="187" y="427" type="curve"/>
      <point x="187" y="357"/>
      <point x="183" y="285"/>
      <point x="183" y="258" type="curve"/>
      <point x="173" y="0" type="line"/>
      <point x="60" y="0" type="line"/>
      <point x="100" y="679" type="line"/>
      <point x="194" y="679" type="line"/>
      <point x="365" y="256" type="line"/>
      <point x="407" y="152" type="line"/>
      <point x="420" y="187"/>
      <point x="434" y="224"/>
      <point x="449" y="256" type="curve"/>
      <point x="619" y="676" type="line"/>
      <point x="619" y="679" type="line"/>
      <point x="713" y="679" type="line"/>
      <point x="753" y="0" type="line"/>
      <point x="640" y="0" type="line"/>
    </contour>
  </outline>
</glyph>
<glyph name="N" format="1">
  <advance width="660"/>
  <unicode hex="004E"/>
  <outline>
    <contour>
      <point x="470" y="677" type="line"/>
      <point x="590" y="677" type="line"/>
      <point x="590" y="-1" type="line"/>
      <point x="490" y="-1" type="line"/>
      <point x="263" y="353" type="line" smooth="yes"/>
      <point x="238" y="392"/>
      <point x="206" y="445"/>
      <point x="179" y="486" type="curve"/>
      <point x="183" y="443"/>
      <point x="187" y="394"/>
      <point x="187" y="351" type="curve" smooth="yes"/>
      <point x="190" y="0" type="line"/>
      <point x="70" y="0" type="line"/>
      <point x="70" y="679" type="line"/>
      <point x="164" y="679" type="line"/>
      <point x="398" y="329" type="line" smooth="yes"/>
      <point x="425" y="290"/>
      <point x="454" y="244"/>
      <point x="479" y="205" type="curve"/>
      <point x="476" y="248"/>
      <point x="473" y="295"/>
      <point x="473" y="326" type="curve" smooth="yes"/>
    </contour>
  </outline>
</glyph>
<glyph name="O" format="1">
  <advance width="669"/>
  <unicode hex="004F"/>
  <outline>
    <contour>
      <point x="333" y="677" type="move" name="topUC"/>
    </contour>
    <contour>
      <point x="341" y="686" type="curve" smooth="yes"/>
      <point x="541" y="686"/>
      <point x="624" y="555"/>
      <point x="624" y="344" type="curve" smooth="yes"/>
      <point x="624" y="136"/>
      <point x="532" y="-6"/>
      <point x="328" y="-6" type="curve" smooth="yes"/>
      <point x="128" y="-6"/>
      <point x="45" y="118"/>
      <point x="45" y="330" type="curve" smooth="yes"/>
      <point x="45" y="539"/>
      <point x="137" y="686"/>
    </contour>
    <contour>
      <point x="327" y="593" type="curve" smooth="yes"/>
      <point x="212" y="593"/>
      <point x="175" y="484"/>
      <point x="175" y="341" type="curve" smooth="yes"/>
      <point x="175" y="205"/>
      <point x="206" y="87"/>
      <point x="342" y="87" type="curve" smooth="yes"/>
      <point x="457" y="87"/>
      <point x="494" y="192"/>
      <point x="494" y="334" type="curve" smooth="yes"/>
      <point x="494" y="469"/>
      <point x="463" y="593"/>
    </contour>
  </outline>
</glyph>
<glyph name="P" format="1">
  <advance width="535"/>
  <unicode hex="0050"/>
  <outline>
    <contour>
      <point x="70" y="677" type="line"/>
      <point x="90" y="677" type="line" smooth="yes"/>
      <point x="115" y="677"/>
      <point x="138" y="677"/>
      <point x="161" y="678" type="curve"/>
      <point x="200" y="678"/>
      <point x="244" y="679"/>
      <point x="271" y="679" type="curve" smooth="yes"/>
      <point x="434" y="679"/>
      <point x="510" y="602"/>
      <point x="510" y="475" type="curve" smooth="yes"/>
      <point x="510" y="351"/>
      <point x="424" y="265"/>
      <point x="259" y="265" type="curve" smooth="yes"/>
      <point x="190" y="265" type="line"/>
      <point x="190" y="0" type="line"/>
      <point x="70" y="0" type="line"/>
    </contour>
    <contour>
      <point x="256" y="593" type="curve" smooth="yes"/>
      <point x="228" y="593"/>
      <point x="206" y="593"/>
      <point x="190" y="592" type="curve"/>
      <point x="190" y="354" type="line"/>
      <point x="266" y="354" type="line" smooth="yes"/>
      <point x="349" y="354"/>
      <point x="382" y="404"/>
      <point x="382" y="471" type="curve" smooth="yes"/>
      <point x="382" y="532"/>
      <point x="353" y="593"/>
    </contour>
  </outline>
</glyph>
<glyph name="Q" format="1">
  <advance width="673"/>
  <unicode hex="0051"/>
  <outline>
    <contour>
      <point x="657" y="-148" type="line"/>
      <point x="540" y="-228"/>
      <point x="369" y="-267"/>
      <point x="189" y="-76" type="curve"/>
      <point x="190" y="-75" type="line" smooth="yes"/>
      <point x="189" y="-76"/>
      <point x="189" y="-76"/>
      <point x="189" y="-76" type="curve"/>
      <point x="211" y="-9" type="line"/>
      <point x="364" y="-41"/>
      <point x="497" y="86"/>
      <point x="497" y="332" type="curve" smooth="yes"/>
      <point x="497" y="467"/>
      <point x="466" y="593"/>
      <point x="330" y="593" type="curve" smooth="yes"/>
      <point x="215" y="593"/>
      <point x="169" y="477"/>
      <point x="169" y="344" type="curve" smooth="yes"/>
      <point x="169" y="222"/>
      <point x="193" y="152"/>
      <point x="279" y="133" type="curve"/>
      <point x="266" y="47" type="line"/>
      <point x="103" y="58"/>
      <point x="43" y="203"/>
      <point x="43" y="335" type="curve" smooth="yes"/>
      <point x="43" y="537"/>
      <point x="141" y="686"/>
      <point x="344" y="686" type="curve" smooth="yes"/>
      <point x="544" y="686"/>
      <point x="627" y="554"/>
      <point x="627" y="343" type="curve" smooth="yes"/>
      <point x="627" y="97"/>
      <point x="497" y="-56"/>
      <point x="347" y="-83" type="curve"/>
      <point x="420" y="-134"/>
      <point x="498" y="-119"/>
      <point x="616" y="-63" type="curve"/>
    </contour>
  </outline>
</glyph>
<glyph name="R" format="1">
  <advance width="575"/>
  <unicode hex="0052"/>
  <outline>
    <contour>
      <point x="271" y="679" type="curve" smooth="yes"/>
      <point x="436" y="679"/>
      <point x="510" y="611"/>
      <point x="510" y="494" type="curve" smooth="yes"/>
      <point x="510" y="415"/>
      <point x="474" y="353"/>
      <point x="386" y="326" type="curve"/>
      <point x="462" y="283"/>
      <point x="495" y="177"/>
      <point x="573" y="0" type="curve"/>
      <point x="442" y="0" type="line"/>
      <point x="351" y="211"/>
      <point x="317" y="293"/>
      <point x="219" y="293" type="curve" smooth="yes"/>
      <point x="190" y="293" type="line"/>
      <point x="190" y="0" type="line"/>
      <point x="70" y="0" type="line"/>
      <point x="70" y="677" type="line"/>
      <point x="90" y="677" type="line" smooth="yes"/>
      <point x="115" y="677"/>
      <point x="138" y="677"/>
      <point x="161" y="678" type="curve"/>
      <point x="200" y="678"/>
      <point x="244" y="679"/>
    </contour>
    <contour>
      <point x="190" y="593" type="line"/>
      <point x="190" y="380" type="line"/>
      <point x="266" y="380" type="line" smooth="yes"/>
      <point x="339" y="380"/>
      <point x="382" y="414"/>
      <point x="382" y="479" type="curve" smooth="yes"/>
      <point x="382" y="538"/>
      <point x="353" y="593"/>
      <point x="256" y="593" type="curve" smooth="yes"/>
    </contour>
  </outline>
</glyph>
<glyph name="S" format="1">
  <advance width="508"/>
  <unicode hex="0053"/>
  <outline>
    <contour>
      <point x="265" y="686" type="curve" smooth="yes"/>
      <point x="359" y="686"/>
      <point x="441" y="646"/>
      <point x="462" y="633" type="curve"/>
      <point x="413" y="546" type="line"/>
      <point x="398" y="554"/>
      <point x="382" y="562"/>
      <point x="365" y="569" type="curve" smooth="yes"/>
      <point x="337" y="580"/>
      <point x="303" y="592"/>
      <point x="272" y="592" type="curve" smooth="yes"/>
      <point x="224" y="592"/>
      <point x="183" y="570"/>
      <point x="183" y="523" type="curve" smooth="yes"/>
      <point x="183" y="463"/>
      <point x="220" y="429"/>
      <point x="303" y="397" type="curve"/>
      <point x="410" y="354"/>
      <point x="473" y="308"/>
      <point x="473" y="199" type="curve" smooth="yes"/>
      <point x="473" y="96"/>
      <point x="393" y="-6"/>
      <point x="247" y="-6" type="curve" smooth="yes"/>
      <point x="144" y="-6"/>
      <point x="56" y="44"/>
      <point x="30" y="59" type="curve"/>
      <point x="72" y="152" type="line"/>
      <point x="93" y="140"/>
      <point x="113" y="129"/>
      <point x="134" y="120" type="curve" smooth="yes"/>
      <point x="169" y="104"/>
      <point x="210" y="88"/>
      <point x="239" y="88" type="curve" smooth="yes"/>
      <point x="310" y="88"/>
      <point x="343" y="125"/>
      <point x="343" y="186" type="curve" smooth="yes"/>
      <point x="343" y="246"/>
      <point x="304" y="269"/>
      <point x="243" y="293" type="curve"/>
      <point x="124" y="343"/>
      <point x="52" y="389"/>
      <point x="52" y="506" type="curve" smooth="yes"/>
      <point x="52" y="604"/>
      <point x="141" y="686"/>
    </contour>
  </outline>
</glyph>
<glyph name="U" format="1">
  <advance width="636"/>
  <unicode hex="0055"/>
  <outline>
    <contour>
      <point x="319" y="677" type="move" name="topUC"/>
    </contour>
    <contour>
      <point x="179" y="677" type="line"/>
      <point x="179" y="259" type="line" smooth="yes"/>
      <point x="179" y="135"/>
      <point x="235" y="87"/>
      <point x="324" y="87" type="curve" smooth="yes"/>
      <point x="413" y="87"/>
      <point x="456" y="151"/>
      <point x="456" y="259" type="curve" smooth="yes"/>
      <point x="456" y="677" type="line"/>
      <point x="576" y="677" type="line"/>
      <point x="576" y="250" type="line" smooth="yes"/>
      <point x="576" y="111"/>
      <point x="509" y="-6"/>
      <point x="311" y="-6" type="curve" smooth="yes"/>
      <point x="122" y="-6"/>
      <point x="60" y="111"/>
      <point x="60" y="250" type="curve" smooth="yes"/>
      <point x="60" y="677" type="line"/>
    </contour>
  </outline>
</glyph>
<glyph name="V" format="1">
  <advance width="581"/>
  <unicode hex="0056"/>
  <outline>
    <contour>
      <point x="338" y="0" type="line"/>
      <point x="243" y="0" type="line"/>
      <point x="-10" y="677" type="line"/>
      <point x="119" y="677" type="line"/>
      <point x="203" y="434" type="line" smooth="yes"/>
      <point x="246" y="310"/>
      <point x="276" y="212"/>
      <point x="292" y="161" type="curve"/>
      <point x="307" y="212"/>
      <point x="337" y="307"/>
      <point x="381" y="432" type="curve" smooth="yes"/>
      <point x="468" y="677" type="line"/>
      <point x="591" y="677" type="line"/>
    </contour>
  </outline>
</glyph>
<glyph name="W" format="1">
  <advance width="870"/>
  <unicode hex="0057"/>
  <outline>
    <contour>
      <point x="462" y="408" type="line"/>
      <point x="451" y="437"/>
      <point x="445" y="465"/>
      <point x="438" y="490" type="curve"/>
      <point x="431" y="465"/>
      <point x="425" y="439"/>
      <point x="416" y="408" type="curve"/>
      <point x="287" y="0" type="line"/>
      <point x="198" y="0" type="line"/>
      <point x="10" y="677" type="line"/>
      <point x="130" y="677" type="line"/>
      <point x="218" y="341" type="line" smooth="yes"/>
      <point x="234" y="282"/>
      <point x="244" y="236"/>
      <point x="251" y="197" type="curve"/>
      <point x="260" y="234"/>
      <point x="273" y="281"/>
      <point x="291" y="339" type="curve" smooth="yes"/>
      <point x="396" y="677" type="line"/>
      <point x="486" y="677" type="line"/>
      <point x="591" y="339" type="line" smooth="yes"/>
      <point x="610" y="279"/>
      <point x="623" y="229"/>
      <point x="632" y="190" type="curve"/>
      <point x="637" y="229"/>
      <point x="646" y="278"/>
      <point x="663" y="339" type="curve"/>
      <point x="750" y="677" type="line"/>
      <point x="872" y="677" type="line"/>
      <point x="684" y="0" type="line"/>
      <point x="595" y="0" type="line"/>
    </contour>
  </outline>
</glyph>
<glyph name="X" format="1">
  <advance width="584"/>
  <unicode hex="0058"/>
  <outline>
    <contour>
      <point x="0" y="0" type="line"/>
      <point x="210" y="355" type="line"/>
      <point x="20" y="677" type="line"/>
      <point x="156" y="677" type="line"/>
      <point x="251" y="506" type="line" smooth="yes"/>
      <point x="262" y="487"/>
      <point x="277" y="458"/>
      <point x="292" y="427" type="curve"/>
      <point x="307" y="458"/>
      <point x="322" y="486"/>
      <point x="333" y="505" type="curve" smooth="yes"/>
      <point x="429" y="677" type="line"/>
      <point x="565" y="677" type="line"/>
      <point x="374" y="354" type="line"/>
      <point x="584" y="0" type="line"/>
      <point x="446" y="0" type="line"/>
      <point x="334" y="200" type="line" smooth="yes"/>
      <point x="323" y="219"/>
      <point x="307" y="250"/>
      <point x="292" y="281" type="curve"/>
      <point x="276" y="249"/>
      <point x="261" y="219"/>
      <point x="250" y="200" type="curve" smooth="yes"/>
      <point x="138" y="0" type="line"/>
    </contour>
  </outline>
</glyph>
<glyph name="Y" format="1">
  <advance width="544"/>
  <unicode hex="0059"/>
  <outline>
    <contour>
      <point x="275" y="677" type="move" name="topUC"/>
    </contour>
    <contour>
      <point x="210" y="259" type="line"/>
      <point x="0" y="677" type="line"/>
      <point x="130" y="677" type="line"/>
      <point x="272" y="372" type="line"/>
      <point x="416" y="677" type="line"/>
      <point x="544" y="677" type="line"/>
      <point x="330" y="254" type="line"/>
      <point x="330" y="0" type="line"/>
      <point x="210" y="0" type="line"/>
    </contour>
  </outline>
</glyph>
<glyph name="Z" format="1">
  <advance width="529"/>
  <unicode hex="005A"/>
  <outline>
    <contour>
      <point x="40" y="0" type="line"/>
      <point x="40" y="72" type="line"/>
      <point x="333" y="586" type="line"/>
      <point x="306" y="583"/>
      <point x="279" y="583"/>
      <point x="247" y="583" type="curve" smooth="yes"/>
      <point x="57" y="583" type="line"/>
      <point x="41" y="677" type="line"/>
      <point x="482" y="677" type="line"/>
      <point x="482" y="605" type="line"/>
      <point x="194" y="92" type="line"/>
      <point x="217" y="93"/>
      <point x="240" y="94"/>
      <point x="268" y="94" type="curve" smooth="yes"/>
      <point x="494" y="94" type="line"/>
      <point x="494" y="0" type="line"/>
    </contour>
  </outline>
</glyph>
<glyph name="bracketleft" format="1">
  <advance width="370"/>
  <unicode hex="005B"/>
  <outline>
    <contour>
      <point x="310" y="720" type="line"/>
      <point x="310" y="631" type="line"/>
      <point x="190" y="631" type="line"/>
      <point x="190" y="-97" type="line"/>
      <point x="310" y="-97" type="line"/>
      <point x="310" y="-186" type="line"/>
      <point x="80" y="-186" type="line"/>
      <point x="80" y="720" type="line"/>
    </contour>
  </outline>
</glyph>
<glyph name="backslash" format="1">
  <advance width="418"/>
  <unicode hex="005C"/>
  <outline>
    <contour>
      <point x="428" y="-126" type="line"/>
      <point x="308" y="-126" type="line"/>
      <point x="-10" y="729" type="line"/>
      <point x="110" y="729" type="line"/>
    </contour>
  </outline>
</glyph>
<glyph name="grave" format="1">
  <advance width="500"/>
  <unicode hex="0060"/>
  <outline>
    <contour>
      <point x="264" y="506" type="move" name="_top"/>
    </contour>
    <contour>
      <point x="324" y="539" type="line"/>
      <point x="301" y="554"/>
      <point x="278" y="570"/>
      <point x="255" y="587" type="curve" smooth="yes"/>
      <point x="215" y="618"/>
      <point x="165" y="660"/>
      <point x="126" y="709" type="curve"/>
      <point x="203" y="781" type="line"/>
      <point x="373" y="591" type="line"/>
    </contour>
  </outline>
</glyph>
<glyph name="a" format="1">
  <advance width="536"/>
  <unicode hex="0061"/>
  <outline>
    <contour>
      <point x="268" y="506" type="move" name="top"/>
    </contour>
    <contour>
      <point x="467" y="241" type="line" smooth="yes"/>
      <point x="467" y="161"/>
      <point x="479" y="108"/>
      <point x="491" y="75" type="curve" smooth="yes"/>
      <point x="498" y="55"/>
      <point x="507" y="39"/>
      <point x="516" y="28" type="curve"/>
      <point x="425" y="-8" type="line"/>
      <point x="417" y="1"/>
      <point x="409" y="11"/>
      <point x="402" y="23" type="curve" smooth="yes"/>
      <point x="390" y="43"/>
      <point x="377" y="74"/>
      <point x="374" y="114" type="curve"/>
      <point x="351" y="34"/>
      <point x="304" y="-6"/>
      <point x="219" y="-6" type="curve" smooth="yes"/>
      <point x="94" y="-6"/>
      <point x="35" y="92"/>
      <point x="35" y="242" type="curve" smooth="yes"/>
      <point x="35" y="394"/>
      <point x="133" y="506"/>
      <point x="274" y="506" type="curve" smooth="yes"/>
      <point x="314" y="506"/>
      <point x="361" y="498"/>
      <point x="400" y="491" type="curve" smooth="yes"/>
      <point x="422" y="487"/>
      <point x="444" y="482"/>
      <point x="467" y="477" type="curve"/>
    </contour>
    <contour>
      <point x="238" y="75" type="curve" smooth="yes"/>
      <point x="303" y="75"/>
      <point x="352" y="173"/>
      <point x="352" y="271" type="curve" smooth="yes"/>
      <point x="352" y="414" type="line"/>
      <point x="339" y="417"/>
      <point x="307" y="425"/>
      <point x="287" y="425" type="curve" smooth="yes"/>
      <point x="188" y="425"/>
      <point x="159" y="352"/>
      <point x="159" y="252" type="curve" smooth="yes"/>
      <point x="159" y="160"/>
      <point x="166" y="75"/>
    </contour>
  </outline>
</glyph>
<glyph name="b" format="1">
  <advance width="532"/>
  <unicode hex="0062"/>
  <outline>
    <contour>
      <point x="65" y="705" type="line"/>
      <point x="180" y="725" type="line"/>
      <point x="180" y="421" type="line"/>
      <point x="204" y="476"/>
      <point x="245" y="506"/>
      <point x="313" y="506" type="curve" smooth="yes"/>
      <point x="438" y="506"/>
      <point x="497" y="408"/>
      <point x="497" y="258" type="curve" smooth="yes"/>
      <point x="497" y="106"/>
      <point x="399" y="-6"/>
      <point x="258" y="-6" type="curve" smooth="yes"/>
      <point x="218" y="-6"/>
      <point x="170" y="1"/>
      <point x="131" y="8" type="curve" smooth="yes"/>
      <point x="109" y="12"/>
      <point x="87" y="17"/>
      <point x="65" y="23" type="curve"/>
    </contour>
    <contour>
      <point x="294" y="425" type="curve" smooth="yes"/>
      <point x="229" y="425"/>
      <point x="180" y="327"/>
      <point x="180" y="229" type="curve" smooth="yes"/>
      <point x="180" y="85" type="line"/>
      <point x="192" y="82"/>
      <point x="224" y="75"/>
      <point x="245" y="75" type="curve" smooth="yes"/>
      <point x="344" y="75"/>
      <point x="373" y="148"/>
      <point x="373" y="248" type="curve" smooth="yes"/>
      <point x="373" y="340"/>
      <point x="366" y="425"/>
    </contour>
  </outline>
</glyph>
<glyph name="c" format="1">
  <advance width="410"/>
  <unicode hex="0063"/>
  <outline>
    <contour>
      <point x="250" y="0" type="move" name="bottom"/>
    </contour>
    <contour>
      <point x="335" y="380" type="line"/>
      <point x="315" y="403"/>
      <point x="297" y="421"/>
      <point x="264" y="421" type="curve" smooth="yes"/>
      <point x="223" y="421"/>
      <point x="159" y="407"/>
      <point x="159" y="252" type="curve" smooth="yes"/>
      <point x="159" y="96"/>
      <point x="222" y="76"/>
      <point x="269" y="76" type="curve" smooth="yes"/>
      <point x="288" y="76"/>
      <point x="311" y="81"/>
      <point x="331" y="86" type="curve" smooth="yes"/>
      <point x="343" y="89"/>
      <point x="355" y="92"/>
      <point x="366" y="96" type="curve"/>
      <point x="394" y="23" type="line"/>
      <point x="383" y="17"/>
      <point x="370" y="12"/>
      <point x="355" y="8" type="curve" smooth="yes"/>
      <point x="330" y="0"/>
      <point x="296" y="-7"/>
      <point x="253" y="-7" type="curve" smooth="yes"/>
      <point x="99" y="-7"/>
      <point x="35" y="90"/>
      <point x="35" y="237" type="curve" smooth="yes"/>
      <point x="35" y="413"/>
      <point x="135" y="510"/>
      <point x="264" y="510" type="curve" smooth="yes"/>
      <point x="327" y="510"/>
      <point x="369" y="485"/>
      <point x="400" y="442" type="curve"/>
    </contour>
  </outline>
</glyph>
<glyph name="d" format="1">
  <advance width="536"/>
  <unicode hex="0064"/>
  <outline>
    <contour>
      <point x="425" y="-8" type="line"/>
      <point x="417" y="1"/>
      <point x="409" y="11"/>
      <point x="402" y="23" type="curve" smooth="yes"/>
      <point x="390" y="43"/>
      <point x="377" y="74"/>
      <point x="374" y="114" type="curve"/>
      <point x="351" y="34"/>
      <point x="304" y="-6"/>
      <point x="219" y="-6" type="curve" smooth="yes"/>
      <point x="94" y="-6"/>
      <point x="35" y="92"/>
      <point x="35" y="242" type="curve" smooth="yes"/>
      <point x="35" y="394"/>
      <point x="133" y="506"/>
      <point x="274" y="506" type="curve" smooth="yes"/>
      <point x="298" y="506"/>
      <point x="325" y="503"/>
      <point x="352" y="499" type="curve"/>
      <point x="352" y="725" type="line"/>
      <point x="467" y="705" type="line"/>
      <point x="467" y="241" type="line" smooth="yes"/>
      <point x="467" y="161"/>
      <point x="479" y="108"/>
      <point x="491" y="75" type="curve" smooth="yes"/>
      <point x="498" y="56"/>
      <point x="507" y="40"/>
      <point x="516" y="28" type="curve"/>
    </contour>
    <contour>
      <point x="238" y="76" type="curve" smooth="yes"/>
      <point x="303" y="76"/>
      <point x="352" y="172"/>
      <point x="352" y="271" type="curve" smooth="yes"/>
      <point x="352" y="414" type="line"/>
      <point x="339" y="417"/>
      <point x="307" y="425"/>
      <point x="287" y="425" type="curve" smooth="yes"/>
      <point x="188" y="425"/>
      <point x="159" y="352"/>
      <point x="159" y="252" type="curve" smooth="yes"/>
      <point x="159" y="160"/>
      <point x="166" y="76"/>
    </contour>
  </outline>
</glyph>
<glyph name="e" format="1">
  <advance width="473"/>
  <unicode hex="0065"/>
  <outline>
    <contour>
      <point x="257" y="506" type="move" name="top"/>
    </contour>
    <contour>
      <point x="35" y="237" type="curve" smooth="yes"/>
      <point x="35" y="416"/>
      <point x="140" y="510"/>
      <point x="276" y="510" type="curve" smooth="yes"/>
      <point x="395" y="510"/>
      <point x="443" y="448"/>
      <point x="443" y="368" type="curve" smooth="yes"/>
      <point x="443" y="271"/>
      <point x="333" y="191"/>
      <point x="157" y="188" type="curve"/>
      <point x="165" y="127"/>
      <point x="189" y="76"/>
      <point x="267" y="76" type="curve" smooth="yes"/>
      <point x="296" y="76"/>
      <point x="332" y="84"/>
      <point x="360" y="93" type="curve" smooth="yes"/>
      <point x="377" y="98"/>
      <point x="393" y="104"/>
      <point x="409" y="111" type="curve"/>
      <point x="439" y="39" type="line"/>
      <point x="422" y="30"/>
      <point x="403" y="23"/>
      <point x="383" y="16" type="curve" smooth="yes"/>
      <point x="348" y="4"/>
      <point x="302" y="-7"/>
      <point x="251" y="-7" type="curve" smooth="yes"/>
      <point x="96" y="-7"/>
      <point x="35" y="90"/>
    </contour>
    <contour>
      <point x="267" y="431" type="curve" smooth="yes"/>
      <point x="179" y="431"/>
      <point x="157" y="342"/>
      <point x="154" y="261" type="curve"/>
      <point x="279" y="264"/>
      <point x="328" y="322"/>
      <point x="328" y="368" type="curve" smooth="yes"/>
      <point x="328" y="407"/>
      <point x="303" y="431"/>
    </contour>
  </outline>
</glyph>
<glyph name="f" format="1">
  <advance width="353"/>
  <unicode hex="0066"/>
  <outline>
    <contour>
      <point x="328" y="614" type="line"/>
      <point x="324" y="618"/>
      <point x="299" y="633"/>
      <point x="280" y="633" type="curve" smooth="yes"/>
      <point x="249" y="633"/>
      <point x="181" y="619"/>
      <point x="213" y="499" type="curve"/>
      <point x="213" y="498" type="line"/>
      <point x="337" y="498" type="line"/>
      <point x="323" y="416" type="line"/>
      <point x="219" y="416" type="line"/>
      <point x="219" y="25" type="line" smooth="yes"/>
      <point x="219" y="-134"/>
      <point x="127" y="-183"/>
      <point x="47" y="-223" type="curve"/>
      <point x="0" y="-146" type="line"/>
      <point x="99" y="-95"/>
      <point x="104" y="-28"/>
      <point x="104" y="14" type="curve" smooth="yes"/>
      <point x="104" y="416" type="line"/>
      <point x="14" y="416" type="line"/>
      <point x="14" y="498" type="line"/>
      <point x="101" y="498" type="line"/>
      <point x="100" y="502"/>
      <point x="99" y="505"/>
      <point x="99" y="509" type="curve"/>
      <point x="70" y="650"/>
      <point x="164" y="722"/>
      <point x="272" y="722" type="curve" smooth="yes"/>
      <point x="324" y="722"/>
      <point x="355" y="703"/>
      <point x="378" y="679" type="curve"/>
    </contour>
  </outline>
</glyph>
<glyph name="g" format="1">
  <advance width="531"/>
  <unicode hex="0067"/>
  <outline>
    <contour>
      <point x="374" y="84" type="curve"/>
      <point x="371" y="88"/>
      <point x="372" y="93"/>
      <point x="369" y="98" type="curve"/>
      <point x="346" y="30"/>
      <point x="299" y="-6"/>
      <point x="219" y="-6" type="curve" smooth="yes"/>
      <point x="94" y="-6"/>
      <point x="35" y="92"/>
      <point x="35" y="242" type="curve" smooth="yes"/>
      <point x="35" y="394"/>
      <point x="133" y="506"/>
      <point x="274" y="506" type="curve" smooth="yes"/>
      <point x="340" y="506"/>
      <point x="425" y="487"/>
      <point x="454" y="479" type="curve"/>
      <point x="470" y="477" type="line"/>
      <point x="465" y="203" type="line"/>
      <point x="462" y="124"/>
      <point x="496" y="73"/>
      <point x="496" y="-7" type="curve" smooth="yes"/>
      <point x="496" y="-155"/>
      <point x="406" y="-227"/>
      <point x="270" y="-216" type="curve" smooth="yes"/>
      <point x="227" y="-213"/>
      <point x="189" y="-204"/>
      <point x="160" y="-193" type="curve"/>
      <point x="143" y="-188"/>
      <point x="127" y="-182"/>
      <point x="112" y="-175" type="curve"/>
      <point x="140" y="-87" type="line"/>
      <point x="195" y="-108"/>
      <point x="227" y="-121"/>
      <point x="270" y="-125" type="curve" smooth="yes"/>
      <point x="385" y="-136"/>
      <point x="411" y="-31"/>
    </contour>
    <contour>
      <point x="238" y="75" type="curve" smooth="yes"/>
      <point x="301" y="75"/>
      <point x="349" y="168"/>
      <point x="352" y="263" type="curve"/>
      <point x="352" y="414" type="line"/>
      <point x="339" y="417"/>
      <point x="307" y="425"/>
      <point x="287" y="425" type="curve" smooth="yes"/>
      <point x="188" y="425"/>
      <point x="159" y="352"/>
      <point x="159" y="252" type="curve" smooth="yes"/>
      <point x="159" y="160"/>
      <point x="166" y="75"/>
    </contour>
  </outline>
</glyph>
<glyph name="h" format="1">
  <advance width="540"/>
  <unicode hex="0068"/>
  <outline>
    <contour>
      <point x="180" y="435" type="line"/>
      <point x="219" y="486"/>
      <point x="275" y="506"/>
      <point x="334" y="506" type="curve" smooth="yes"/>
      <point x="379" y="506"/>
      <point x="413" y="494"/>
      <point x="438" y="469" type="curve" smooth="yes"/>
      <point x="466" y="441"/>
      <point x="480" y="396"/>
      <point x="480" y="334" type="curve" smooth="yes"/>
      <point x="480" y="0" type="line"/>
      <point x="365" y="0" type="line"/>
      <point x="365" y="326" type="line" smooth="yes"/>
      <point x="365" y="382"/>
      <point x="347" y="416"/>
      <point x="300" y="416" type="curve" smooth="yes"/>
      <point x="244" y="416"/>
      <point x="185" y="358"/>
      <point x="180" y="267" type="curve"/>
      <point x="180" y="0" type="line"/>
      <point x="65" y="0" type="line"/>
      <point x="65" y="705" type="line"/>
      <point x="180" y="725" type="line"/>
    </contour>
  </outline>
</glyph>
<glyph name="i" format="1">
  <advance width="257"/>
  <unicode hex="0069"/>
  <outline>
    <contour>
      <point x="170" y="-4" type="curve" smooth="yes"/>
      <point x="99" y="-4"/>
      <point x="61" y="42"/>
      <point x="61" y="109" type="curve" smooth="yes"/>
      <point x="61" y="498" type="line"/>
      <point x="176" y="498" type="line"/>
      <point x="176" y="120" type="line" smooth="yes"/>
      <point x="176" y="89"/>
      <point x="185" y="81"/>
      <point x="204" y="81" type="curve" smooth="yes"/>
      <point x="209" y="81"/>
      <point x="216" y="81"/>
      <point x="221" y="82" type="curve" smooth="yes"/>
      <point x="224" y="82"/>
      <point x="227" y="82"/>
      <point x="230" y="83" type="curve"/>
      <point x="242" y="10" type="line"/>
      <point x="237" y="7"/>
      <point x="231" y="5"/>
      <point x="224" y="3" type="curve" smooth="yes"/>
      <point x="212" y="-1"/>
      <point x="194" y="-4"/>
    </contour>
    <contour>
      <point x="120" y="721" type="curve" smooth="yes"/>
      <point x="163" y="721"/>
      <point x="187" y="692"/>
      <point x="187" y="652" type="curve" smooth="yes"/>
      <point x="187" y="612"/>
      <point x="164" y="581"/>
      <point x="117" y="581" type="curve" smooth="yes"/>
      <point x="74" y="581"/>
      <point x="50" y="612"/>
      <point x="50" y="649" type="curve" smooth="yes"/>
      <point x="50" y="690"/>
      <point x="73" y="721"/>
    </contour>
  </outline>
</glyph>
<glyph name="j" format="1">
  <advance width="245"/>
  <unicode hex="006A"/>
  <outline>
    <contour>
      <point x="65" y="498" type="line"/>
      <point x="180" y="498" type="line"/>
      <point x="180" y="25" type="line" smooth="yes"/>
      <point x="180" y="-134"/>
      <point x="88" y="-183"/>
      <point x="8" y="-223" type="curve"/>
      <point x="-39" y="-146" type="line"/>
      <point x="60" y="-95"/>
      <point x="65" y="-28"/>
      <point x="65" y="14" type="curve" smooth="yes"/>
    </contour>
    <contour>
      <point x="124" y="721" type="curve" smooth="yes"/>
      <point x="167" y="721"/>
      <point x="191" y="692"/>
      <point x="191" y="652" type="curve" smooth="yes"/>
      <point x="191" y="612"/>
      <point x="168" y="581"/>
      <point x="121" y="581" type="curve" smooth="yes"/>
      <point x="78" y="581"/>
      <point x="54" y="612"/>
      <point x="54" y="649" type="curve" smooth="yes"/>
      <point x="54" y="690"/>
      <point x="77" y="721"/>
    </contour>
  </outline>
</glyph>
<glyph name="k" format="1">
  <advance width="521"/>
  <unicode hex="006B"/>
  <outline>
    <contour>
      <point x="226" y="259" type="line"/>
      <point x="247" y="264"/>
      <point x="363" y="295"/>
      <point x="363" y="366" type="curve" smooth="yes"/>
      <point x="363" y="405"/>
      <point x="338" y="425"/>
      <point x="302" y="425" type="curve" smooth="yes"/>
      <point x="202" y="425"/>
      <point x="183" y="330"/>
      <point x="180" y="321" type="curve"/>
      <point x="180" y="0" type="line"/>
      <point x="65" y="0" type="line"/>
      <point x="65" y="705" type="line"/>
      <point x="180" y="725" type="line"/>
      <point x="180" y="441" type="line"/>
      <point x="201" y="468"/>
      <point x="245" y="507"/>
      <point x="333" y="507" type="curve" smooth="yes"/>
      <point x="416" y="507"/>
      <point x="480" y="458"/>
      <point x="480" y="375" type="curve" smooth="yes"/>
      <point x="480" y="315"/>
      <point x="451" y="278"/>
      <point x="420" y="255" type="curve" smooth="yes"/>
      <point x="403" y="242"/>
      <point x="383" y="231"/>
      <point x="361" y="223" type="curve"/>
      <point x="501" y="0" type="line"/>
      <point x="370" y="0" type="line"/>
      <point x="227" y="249" type="line"/>
    </contour>
  </outline>
</glyph>
<glyph name="l" format="1">
  <advance width="292"/>
  <unicode hex="006C"/>
  <outline>
    <contour>
      <point x="171" y="-4" type="curve" smooth="yes"/>
      <point x="95" y="-4"/>
      <point x="60" y="42"/>
      <point x="60" y="109" type="curve" smooth="yes"/>
      <point x="60" y="705" type="line"/>
      <point x="175" y="726" type="line"/>
      <point x="175" y="120" type="line" smooth="yes"/>
      <point x="175" y="89"/>
      <point x="187" y="79"/>
      <point x="210" y="79" type="curve" smooth="yes"/>
      <point x="223" y="79"/>
      <point x="236" y="80"/>
      <point x="247" y="83" type="curve" smooth="yes"/>
      <point x="263" y="87" type="line"/>
      <point x="277" y="14" type="line"/>
      <point x="248" y="5" type="line" smooth="yes"/>
      <point x="229" y="0"/>
      <point x="203" y="-4"/>
    </contour>
  </outline>
</glyph>
<glyph name="m" format="1">
  <advance width="809"/>
  <unicode hex="006D"/>
  <outline>
    <contour>
      <point x="189" y="0" type="line"/>
      <point x="74" y="0" type="line"/>
      <point x="74" y="252" type="line" smooth="yes"/>
      <point x="74" y="332"/>
      <point x="61" y="385"/>
      <point x="49" y="418" type="curve" smooth="yes"/>
      <point x="42" y="437"/>
      <point x="34" y="453"/>
      <point x="25" y="465" type="curve"/>
      <point x="116" y="501" type="line"/>
      <point x="123" y="494"/>
      <point x="129" y="485"/>
      <point x="136" y="474" type="curve" smooth="yes"/>
      <point x="147" y="455"/>
      <point x="158" y="429"/>
      <point x="165" y="394" type="curve"/>
      <point x="198" y="473"/>
      <point x="265" y="506"/>
      <point x="332" y="506" type="curve" smooth="yes"/>
      <point x="400" y="506"/>
      <point x="434" y="469"/>
      <point x="453" y="414" type="curve"/>
      <point x="489" y="479"/>
      <point x="549" y="506"/>
      <point x="612" y="506" type="curve" smooth="yes"/>
      <point x="655" y="506"/>
      <point x="687" y="494"/>
      <point x="710" y="469" type="curve" smooth="yes"/>
      <point x="736" y="442"/>
      <point x="749" y="397"/>
      <point x="749" y="334" type="curve" smooth="yes"/>
      <point x="749" y="0" type="line"/>
      <point x="634" y="0" type="line"/>
      <point x="634" y="326" type="line" smooth="yes"/>
      <point x="634" y="382"/>
      <point x="620" y="416"/>
      <point x="577" y="416" type="curve" smooth="yes"/>
      <point x="529" y="416"/>
      <point x="472" y="361"/>
      <point x="469" y="269" type="curve"/>
      <point x="469" y="0" type="line"/>
      <point x="354" y="0" type="line"/>
      <point x="354" y="326" type="line" smooth="yes"/>
      <point x="354" y="382"/>
      <point x="340" y="416"/>
      <point x="297" y="416" type="curve" smooth="yes"/>
      <point x="245" y="416"/>
      <point x="184" y="349"/>
      <point x="189" y="244" type="curve"/>
    </contour>
  </outline>
</glyph>
<glyph name="n" format="1">
  <advance width="549"/>
  <unicode hex="006E"/>
  <outline>
    <contour>
      <point x="319" y="506" type="move" name="top"/>
    </contour>
    <contour>
      <point x="189" y="0" type="line"/>
      <point x="74" y="0" type="line"/>
      <point x="74" y="252" type="line" smooth="yes"/>
      <point x="74" y="332"/>
      <point x="61" y="385"/>
      <point x="49" y="418" type="curve" smooth="yes"/>
      <point x="42" y="437"/>
      <point x="34" y="453"/>
      <point x="25" y="465" type="curve"/>
      <point x="116" y="501" type="line"/>
      <point x="123" y="494"/>
      <point x="129" y="485"/>
      <point x="136" y="474" type="curve" smooth="yes"/>
      <point x="147" y="455"/>
      <point x="158" y="429"/>
      <point x="165" y="394" type="curve"/>
      <point x="200" y="473"/>
      <point x="271" y="506"/>
      <point x="343" y="506" type="curve" smooth="yes"/>
      <point x="388" y="506"/>
      <point x="422" y="494"/>
      <point x="447" y="469" type="curve" smooth="yes"/>
      <point x="475" y="441"/>
      <point x="489" y="396"/>
      <point x="489" y="334" type="curve" smooth="yes"/>
      <point x="489" y="0" type="line"/>
      <point x="374" y="0" type="line"/>
      <point x="374" y="323" type="line" smooth="yes"/>
      <point x="374" y="379"/>
      <point x="356" y="415"/>
      <point x="309" y="415" type="curve" smooth="yes"/>
      <point x="250" y="415"/>
      <point x="184" y="349"/>
      <point x="189" y="244" type="curve"/>
    </contour>
  </outline>
</glyph>
<glyph name="o" format="1">
  <advance width="517"/>
  <unicode hex="006F"/>
  <outline>
    <contour>
      <point x="257" y="506" type="move" name="top"/>
    </contour>
    <contour>
      <point x="263" y="510" type="curve" smooth="yes"/>
      <point x="416" y="510"/>
      <point x="482" y="414"/>
      <point x="482" y="255" type="curve" smooth="yes"/>
      <point x="482" y="106"/>
      <point x="407" y="-10"/>
      <point x="254" y="-10" type="curve" smooth="yes"/>
      <point x="101" y="-10"/>
      <point x="35" y="87"/>
      <point x="35" y="244" type="curve" smooth="yes"/>
      <point x="35" y="395"/>
      <point x="110" y="510"/>
    </contour>
    <contour>
      <point x="253" y="425" type="curve" smooth="yes"/>
      <point x="177" y="425"/>
      <point x="159" y="350"/>
      <point x="159" y="254" type="curve" smooth="yes"/>
      <point x="159" y="155"/>
      <point x="179" y="75"/>
      <point x="264" y="75" type="curve" smooth="yes"/>
      <point x="340" y="75"/>
      <point x="358" y="149"/>
      <point x="358" y="245" type="curve" smooth="yes"/>
      <point x="358" y="345"/>
      <point x="338" y="425"/>
    </contour>
  </outline>
</glyph>
<glyph name="p" format="1">
  <advance width="541"/>
  <unicode hex="0070"/>
  <outline>
    <contour>
      <point x="116" y="501" type="line"/>
      <point x="124" y="493"/>
      <point x="131" y="483"/>
      <point x="138" y="471" type="curve" smooth="yes"/>
      <point x="149" y="451"/>
      <point x="161" y="423"/>
      <point x="166" y="384" type="curve"/>
      <point x="189" y="464"/>
      <point x="235" y="506"/>
      <point x="322" y="506" type="curve" smooth="yes"/>
      <point x="447" y="506"/>
      <point x="506" y="408"/>
      <point x="506" y="258" type="curve" smooth="yes"/>
      <point x="506" y="106"/>
      <point x="408" y="-6"/>
      <point x="267" y="-6" type="curve" smooth="yes"/>
      <point x="242" y="-6"/>
      <point x="216" y="-3"/>
      <point x="189" y="0" type="curve"/>
      <point x="189" y="-201" type="line"/>
      <point x="74" y="-221" type="line"/>
      <point x="74" y="252" type="line" smooth="yes"/>
      <point x="74" y="332"/>
      <point x="61" y="385"/>
      <point x="49" y="418" type="curve" smooth="yes"/>
      <point x="42" y="437"/>
      <point x="34" y="453"/>
      <point x="25" y="465" type="curve"/>
    </contour>
    <contour>
      <point x="303" y="424" type="curve" smooth="yes"/>
      <point x="239" y="424"/>
      <point x="192" y="332"/>
      <point x="189" y="236" type="curve"/>
      <point x="189" y="85" type="line"/>
      <point x="201" y="82"/>
      <point x="233" y="75"/>
      <point x="254" y="75" type="curve" smooth="yes"/>
      <point x="353" y="75"/>
      <point x="382" y="148"/>
      <point x="382" y="248" type="curve" smooth="yes"/>
      <point x="382" y="340"/>
      <point x="375" y="424"/>
    </contour>
  </outline>
</glyph>
<glyph name="q" format="1">
  <advance width="532"/>
  <unicode hex="0071"/>
  <outline>
    <contour>
      <point x="467" y="-222" type="line"/>
      <point x="352" y="-201" type="line"/>
      <point x="352" y="61" type="line"/>
      <point x="325" y="16"/>
      <point x="280" y="-6"/>
      <point x="219" y="-6" type="curve" smooth="yes"/>
      <point x="94" y="-6"/>
      <point x="35" y="92"/>
      <point x="35" y="242" type="curve" smooth="yes"/>
      <point x="35" y="394"/>
      <point x="133" y="506"/>
      <point x="274" y="506" type="curve" smooth="yes"/>
      <point x="314" y="506"/>
      <point x="361" y="498"/>
      <point x="400" y="491" type="curve" smooth="yes"/>
      <point x="422" y="487"/>
      <point x="444" y="482"/>
      <point x="467" y="477" type="curve"/>
    </contour>
    <contour>
      <point x="238" y="76" type="curve" smooth="yes"/>
      <point x="303" y="76"/>
      <point x="352" y="172"/>
      <point x="352" y="271" type="curve" smooth="yes"/>
      <point x="352" y="414" type="line"/>
      <point x="339" y="417"/>
      <point x="307" y="425"/>
      <point x="287" y="425" type="curve" smooth="yes"/>
      <point x="188" y="425"/>
      <point x="159" y="352"/>
      <point x="159" y="252" type="curve" smooth="yes"/>
      <point x="159" y="160"/>
      <point x="166" y="76"/>
    </contour>
  </outline>
</glyph>
<glyph name="r" format="1">
  <advance width="370"/>
  <unicode hex="0072"/>
  <outline>
    <contour>
      <point x="289" y="393" type="curve" smooth="yes"/>
      <point x="241" y="393"/>
      <point x="196" y="348"/>
      <point x="189" y="276" type="curve"/>
      <point x="189" y="0" type="line"/>
      <point x="74" y="0" type="line"/>
      <point x="74" y="252" type="line" smooth="yes"/>
      <point x="74" y="332"/>
      <point x="61" y="385"/>
      <point x="49" y="418" type="curve" smooth="yes"/>
      <point x="42" y="437"/>
      <point x="34" y="453"/>
      <point x="25" y="465" type="curve"/>
      <point x="116" y="501" type="line"/>
      <point x="135" y="474" type="line"/>
      <point x="146" y="455"/>
      <point x="157" y="432"/>
      <point x="164" y="397" type="curve"/>
      <point x="191" y="473"/>
      <point x="244" y="505"/>
      <point x="308" y="505" type="curve" smooth="yes"/>
      <point x="323" y="505"/>
      <point x="339" y="502"/>
      <point x="351" y="499" type="curve" smooth="yes"/>
      <point x="370" y="494" type="line"/>
      <point x="338" y="382" type="line"/>
      <point x="334" y="383"/>
      <point x="330" y="385"/>
      <point x="325" y="387" type="curve" smooth="yes"/>
      <point x="317" y="390"/>
      <point x="305" y="393"/>
    </contour>
  </outline>
</glyph>
<glyph name="s" format="1">
  <advance width="412"/>
  <unicode hex="0073"/>
  <outline>
    <contour>
      <point x="212" y="510" type="curve" smooth="yes"/>
      <point x="252" y="510"/>
      <point x="291" y="501"/>
      <point x="320" y="490" type="curve" smooth="yes"/>
      <point x="337" y="484"/>
      <point x="353" y="478"/>
      <point x="368" y="471" type="curve"/>
      <point x="333" y="392" type="line"/>
      <point x="320" y="398"/>
      <point x="307" y="403"/>
      <point x="294" y="408" type="curve" smooth="yes"/>
      <point x="271" y="416"/>
      <point x="241" y="425"/>
      <point x="216" y="425" type="curve" smooth="yes"/>
      <point x="185" y="425"/>
      <point x="160" y="410"/>
      <point x="160" y="381" type="curve" smooth="yes"/>
      <point x="160" y="344"/>
      <point x="188" y="314"/>
      <point x="243" y="293" type="curve" smooth="yes"/>
      <point x="326" y="261"/>
      <point x="377" y="225"/>
      <point x="377" y="139" type="curve" smooth="yes"/>
      <point x="377" y="63"/>
      <point x="314" y="-10"/>
      <point x="202" y="-10" type="curve" smooth="yes"/>
      <point x="158" y="-10"/>
      <point x="113" y="2"/>
      <point x="80" y="14" type="curve" smooth="yes"/>
      <point x="60" y="21"/>
      <point x="41" y="29"/>
      <point x="24" y="38" type="curve"/>
      <point x="61" y="123" type="line"/>
      <point x="76" y="114"/>
      <point x="92" y="106"/>
      <point x="107" y="99" type="curve" smooth="yes"/>
      <point x="134" y="87"/>
      <point x="165" y="75"/>
      <point x="192" y="75" type="curve" smooth="yes"/>
      <point x="239" y="75"/>
      <point x="260" y="95"/>
      <point x="260" y="126" type="curve" smooth="yes"/>
      <point x="260" y="161"/>
      <point x="235" y="189"/>
      <point x="187" y="208" type="curve" smooth="yes"/>
      <point x="84" y="247"/>
      <point x="43" y="291"/>
      <point x="43" y="370" type="curve" smooth="yes"/>
      <point x="43" y="446"/>
      <point x="116" y="510"/>
    </contour>
  </outline>
</glyph>
<glyph name="t" format="1">
  <advance width="362"/>
  <unicode hex="0074"/>
  <outline>
    <contour>
      <point x="10" y="498" type="line"/>
      <point x="100" y="498" type="line"/>
      <point x="120" y="615" type="line"/>
      <point x="215" y="636" type="line"/>
      <point x="215" y="498" type="line"/>
      <point x="338" y="498" type="line"/>
      <point x="324" y="416" type="line"/>
      <point x="215" y="416" type="line"/>
      <point x="215" y="122" type="line" smooth="yes"/>
      <point x="215" y="87"/>
      <point x="237" y="81"/>
      <point x="260" y="81" type="curve" smooth="yes"/>
      <point x="279" y="81"/>
      <point x="298" y="84"/>
      <point x="313" y="88" type="curve" smooth="yes"/>
      <point x="322" y="90"/>
      <point x="330" y="92"/>
      <point x="338" y="95" type="curve"/>
      <point x="357" y="19" type="line"/>
      <point x="346" y="14"/>
      <point x="334" y="10"/>
      <point x="321" y="7" type="curve" smooth="yes"/>
      <point x="298" y="0"/>
      <point x="266" y="-4"/>
      <point x="229" y="-4" type="curve" smooth="yes"/>
      <point x="154" y="-4"/>
      <point x="100" y="26"/>
      <point x="100" y="109" type="curve" smooth="yes"/>
      <point x="100" y="416" type="line"/>
      <point x="10" y="416" type="line"/>
    </contour>
  </outline>
</glyph>
<glyph name="u" format="1">
  <advance width="549"/>
  <unicode hex="0075"/>
  <outline>
    <contour>
      <point x="271" y="506" type="move" name="top"/>
    </contour>
    <contour>
      <point x="360" y="498" type="line"/>
      <point x="475" y="498" type="line"/>
      <point x="475" y="241" type="line" smooth="yes"/>
      <point x="475" y="161"/>
      <point x="487" y="108"/>
      <point x="499" y="75" type="curve" smooth="yes"/>
      <point x="506" y="55"/>
      <point x="515" y="39"/>
      <point x="524" y="28" type="curve"/>
      <point x="433" y="-8" type="line"/>
      <point x="426" y="-1"/>
      <point x="419" y="9"/>
      <point x="412" y="20" type="curve" smooth="yes"/>
      <point x="401" y="39"/>
      <point x="388" y="66"/>
      <point x="383" y="102" type="curve"/>
      <point x="347" y="25"/>
      <point x="278" y="-6"/>
      <point x="206" y="-6" type="curve" smooth="yes"/>
      <point x="161" y="-6"/>
      <point x="127" y="6"/>
      <point x="102" y="31" type="curve" smooth="yes"/>
      <point x="74" y="59"/>
      <point x="60" y="104"/>
      <point x="60" y="166" type="curve" smooth="yes"/>
      <point x="60" y="498" type="line"/>
      <point x="175" y="498" type="line"/>
      <point x="175" y="169" type="line" smooth="yes"/>
      <point x="175" y="113"/>
      <point x="193" y="79"/>
      <point x="240" y="79" type="curve" smooth="yes"/>
      <point x="299" y="79"/>
      <point x="365" y="149"/>
      <point x="360" y="254" type="curve"/>
    </contour>
  </outline>
</glyph>
<glyph name="v" format="1">
  <advance width="524"/>
  <unicode hex="0076"/>
  <outline>
    <contour>
      <point x="469" y="498" type="line"/>
      <point x="470" y="488"/>
      <point x="472" y="477"/>
      <point x="474" y="466" type="curve" smooth="yes"/>
      <point x="477" y="447"/>
      <point x="479" y="420"/>
      <point x="479" y="395" type="curve" smooth="yes"/>
      <point x="479" y="100"/>
      <point x="393" y="-5"/>
      <point x="206" y="-5" type="curve" smooth="yes"/>
      <point x="161" y="-5"/>
      <point x="127" y="7"/>
      <point x="102" y="32" type="curve" smooth="yes"/>
      <point x="74" y="60"/>
      <point x="60" y="105"/>
      <point x="60" y="166" type="curve" smooth="yes"/>
      <point x="60" y="498" type="line"/>
      <point x="175" y="498" type="line"/>
      <point x="175" y="169" type="line" smooth="yes"/>
      <point x="175" y="113"/>
      <point x="193" y="76"/>
      <point x="240" y="76" type="curve" smooth="yes"/>
      <point x="335" y="76"/>
      <point x="363" y="231"/>
      <point x="363" y="383" type="curve" smooth="yes"/>
      <point x="363" y="411"/>
      <point x="360" y="438"/>
      <point x="357" y="461" type="curve" smooth="yes"/>
      <point x="355" y="474"/>
      <point x="353" y="486"/>
      <point x="352" y="498" type="curve"/>
    </contour>
  </outline>
</glyph>
<glyph name="w" format="1">
  <advance width="771"/>
  <unicode hex="0077"/>
  <outline>
    <contour>
      <point x="716" y="498" type="line"/>
      <point x="717" y="488"/>
      <point x="719" y="477"/>
      <point x="721" y="466" type="curve" smooth="yes"/>
      <point x="724" y="447"/>
      <point x="726" y="422"/>
      <point x="726" y="395" type="curve" smooth="yes"/>
      <point x="726" y="100"/>
      <point x="665" y="-7"/>
      <point x="481" y="-7" type="curve" smooth="yes"/>
      <point x="436" y="-7"/>
      <point x="402" y="5"/>
      <point x="377" y="30" type="curve" smooth="yes"/>
      <point x="364" y="43"/>
      <point x="355" y="57"/>
      <point x="348" y="73" type="curve"/>
      <point x="324" y="17"/>
      <point x="287" y="-7"/>
      <point x="206" y="-7" type="curve" smooth="yes"/>
      <point x="161" y="-7"/>
      <point x="127" y="5"/>
      <point x="102" y="30" type="curve" smooth="yes"/>
      <point x="74" y="58"/>
      <point x="60" y="102"/>
      <point x="60" y="163" type="curve" smooth="yes"/>
      <point x="60" y="498" type="line"/>
      <point x="175" y="498" type="line"/>
      <point x="175" y="172" type="line" smooth="yes"/>
      <point x="175" y="116"/>
      <point x="193" y="76"/>
      <point x="240" y="76" type="curve" smooth="yes"/>
      <point x="301" y="76"/>
      <point x="335" y="131"/>
      <point x="335" y="270" type="curve" smooth="yes"/>
      <point x="335" y="498" type="line"/>
      <point x="450" y="498" type="line"/>
      <point x="449" y="448"/>
      <point x="449" y="402"/>
      <point x="449" y="359" type="curve" smooth="yes"/>
      <point x="449" y="285"/>
      <point x="448" y="205"/>
      <point x="448" y="172" type="curve" smooth="yes"/>
      <point x="448" y="116"/>
      <point x="468" y="76"/>
      <point x="515" y="76" type="curve" smooth="yes"/>
      <point x="607" y="76"/>
      <point x="610" y="231"/>
      <point x="610" y="383" type="curve" smooth="yes"/>
      <point x="610" y="414"/>
      <point x="607" y="443"/>
      <point x="604" y="464" type="curve" smooth="yes"/>
      <point x="602" y="476"/>
      <point x="600" y="487"/>
      <point x="599" y="498" type="curve"/>
    </contour>
  </outline>
</glyph>
<glyph name="x" format="1">
  <advance width="481"/>
  <unicode hex="0078"/>
  <outline>
    <contour>
      <point x="-5" y="0" type="line"/>
      <point x="162" y="264" type="line"/>
      <point x="16" y="498" type="line"/>
      <point x="149" y="498" type="line"/>
      <point x="212" y="395" type="line" smooth="yes"/>
      <point x="220" y="382"/>
      <point x="235" y="351"/>
      <point x="248" y="323" type="curve"/>
      <point x="263" y="347"/>
      <point x="279" y="371"/>
      <point x="291" y="394" type="curve" smooth="yes"/>
      <point x="307" y="423"/>
      <point x="318" y="449"/>
      <point x="325" y="468" type="curve" smooth="yes"/>
      <point x="336" y="498" type="line"/>
      <point x="455" y="498" type="line"/>
      <point x="443" y="464" type="line" smooth="yes"/>
      <point x="434" y="441"/>
      <point x="421" y="411"/>
      <point x="401" y="375" type="curve" smooth="yes"/>
      <point x="378" y="335"/>
      <point x="347" y="294"/>
      <point x="319" y="263" type="curve"/>
      <point x="481" y="0" type="line"/>
      <point x="350" y="0" type="line"/>
      <point x="276" y="129" type="line" smooth="yes"/>
      <point x="265" y="148"/>
      <point x="251" y="174"/>
      <point x="238" y="201" type="curve"/>
      <point x="223" y="174"/>
      <point x="210" y="147"/>
      <point x="199" y="128" type="curve" smooth="yes"/>
      <point x="124" y="0" type="line"/>
    </contour>
  </outline>
</glyph>
<glyph name="y" format="1">
  <advance width="538"/>
  <unicode hex="0079"/>
  <outline>
    <contour>
      <point x="268" y="506" type="move" name="top"/>
    </contour>
    <contour>
      <point x="378" y="92" type="line"/>
      <point x="341" y="21"/>
      <point x="274" y="-6"/>
      <point x="206" y="-6" type="curve" smooth="yes"/>
      <point x="161" y="-6"/>
      <point x="127" y="6"/>
      <point x="102" y="31" type="curve" smooth="yes"/>
      <point x="74" y="59"/>
      <point x="60" y="104"/>
      <point x="60" y="166" type="curve" smooth="yes"/>
      <point x="60" y="498" type="line"/>
      <point x="175" y="498" type="line"/>
      <point x="175" y="170" type="line" smooth="yes"/>
      <point x="175" y="114"/>
      <point x="193" y="80"/>
      <point x="240" y="80" type="curve" smooth="yes"/>
      <point x="291" y="80"/>
      <point x="351" y="135"/>
      <point x="359" y="220" type="curve"/>
      <point x="359" y="498" type="line"/>
      <point x="477" y="498" type="line"/>
      <point x="472" y="203" type="line"/>
      <point x="469" y="124"/>
      <point x="503" y="73"/>
      <point x="503" y="-7" type="curve" smooth="yes"/>
      <point x="503" y="-155"/>
      <point x="413" y="-227"/>
      <point x="277" y="-216" type="curve" smooth="yes"/>
      <point x="234" y="-213"/>
      <point x="196" y="-204"/>
      <point x="167" y="-193" type="curve"/>
      <point x="150" y="-188"/>
      <point x="134" y="-182"/>
      <point x="119" y="-175" type="curve"/>
      <point x="148" y="-88" type="line"/>
      <point x="203" y="-109"/>
      <point x="235" y="-121"/>
      <point x="278" y="-125" type="curve" smooth="yes"/>
      <point x="392" y="-136"/>
      <point x="418" y="-31"/>
      <point x="381" y="84" type="curve" smooth="yes"/>
    </contour>
  </outline>
</glyph>
<glyph name="z" format="1">
  <advance width="418"/>
  <unicode hex="007A"/>
  <outline>
    <contour>
      <point x="30" y="0" type="line"/>
      <point x="30" y="69" type="line"/>
      <point x="250" y="417" type="line"/>
      <point x="216" y="415"/>
      <point x="183" y="414"/>
      <point x="150" y="414" type="curve" smooth="yes"/>
      <point x="52" y="414" type="line"/>
      <point x="38" y="498" type="line"/>
      <point x="384" y="498" type="line"/>
      <point x="384" y="429" type="line"/>
      <point x="168" y="81" type="line"/>
      <point x="197" y="83"/>
      <point x="226" y="84"/>
      <point x="256" y="84" type="curve" smooth="yes"/>
      <point x="393" y="84" type="line"/>
      <point x="393" y="0" type="line"/>
    </contour>
  </outline>
</glyph>
<glyph name="braceleft" format="1">
  <advance width="365"/>
  <unicode hex="007B"/>
  <outline>
    <contour>
      <point x="116" y="-77" type="curve" smooth="yes"/>
      <point x="116" y="-5"/>
      <point x="130" y="65"/>
      <point x="130" y="125" type="curve" smooth="yes"/>
      <point x="130" y="177"/>
      <point x="107" y="213"/>
      <point x="60" y="224" type="curve"/>
      <point x="60" y="307" type="line"/>
      <point x="107" y="318"/>
      <point x="130" y="354"/>
      <point x="130" y="406" type="curve" smooth="yes"/>
      <point x="130" y="466"/>
      <point x="116" y="536"/>
      <point x="116" y="608" type="curve" smooth="yes"/>
      <point x="116" y="697"/>
      <point x="198" y="747"/>
      <point x="345" y="712" type="curve"/>
      <point x="322" y="627" type="line"/>
      <point x="246" y="654"/>
      <point x="231" y="615"/>
      <point x="231" y="592" type="curve" smooth="yes"/>
      <point x="231" y="532"/>
      <point x="244" y="472"/>
      <point x="244" y="420" type="curve" smooth="yes"/>
      <point x="244" y="361"/>
      <point x="233" y="308"/>
      <point x="161" y="265" type="curve"/>
      <point x="233" y="222"/>
      <point x="244" y="169"/>
      <point x="244" y="111" type="curve" smooth="yes"/>
      <point x="244" y="59"/>
      <point x="231" y="-1"/>
      <point x="231" y="-61" type="curve" smooth="yes"/>
      <point x="231" y="-84"/>
      <point x="246" y="-123"/>
      <point x="322" y="-96" type="curve"/>
      <point x="345" y="-181" type="line"/>
      <point x="199" y="-218"/>
      <point x="116" y="-164"/>
    </contour>
  </outline>
</glyph>
<glyph name="bar" format="1">
  <advance width="310"/>
  <unicode hex="007C"/>
  <outline>
    <contour>
      <point x="210" y="729" type="line"/>
      <point x="210" y="-126" type="line"/>
      <point x="100" y="-126" type="line"/>
      <point x="100" y="729" type="line"/>
    </contour>
  </outline>
</glyph>
<glyph name="braceright" format="1">
  <advance width="365"/>
  <unicode hex="007D"/>
  <outline>
    <contour>
      <point x="249" y="-77" type="curve" smooth="yes"/>
      <point x="249" y="-164"/>
      <point x="166" y="-218"/>
      <point x="20" y="-181" type="curve"/>
      <point x="43" y="-96" type="line"/>
      <point x="119" y="-123"/>
      <point x="134" y="-84"/>
      <point x="134" y="-61" type="curve" smooth="yes"/>
      <point x="134" y="-1"/>
      <point x="121" y="59"/>
      <point x="121" y="111" type="curve" smooth="yes"/>
      <point x="121" y="168"/>
      <point x="132" y="223"/>
      <point x="203" y="265" type="curve"/>
      <point x="132" y="307"/>
      <point x="121" y="362"/>
      <point x="121" y="420" type="curve" smooth="yes"/>
      <point x="121" y="472"/>
      <point x="134" y="532"/>
      <point x="134" y="592" type="curve" smooth="yes"/>
      <point x="134" y="615"/>
      <point x="119" y="654"/>
      <point x="43" y="627" type="curve"/>
      <point x="20" y="712" type="line"/>
      <point x="166" y="746"/>
      <point x="249" y="697"/>
      <point x="249" y="608" type="curve" smooth="yes"/>
      <point x="249" y="536"/>
      <point x="235" y="466"/>
      <point x="235" y="406" type="curve" smooth="yes"/>
      <point x="235" y="354"/>
      <point x="258" y="318"/>
      <point x="305" y="307" type="curve"/>
      <point x="305" y="224" type="line"/>
      <point x="258" y="213"/>
      <point x="235" y="177"/>
      <point x="235" y="125" type="curve" smooth="yes"/>
      <point x="235" y="65"/>
      <point x="249" y="-5"/>
    </contour>
  </outline>
</glyph>
<glyph name="asciitilde" format="1">
  <advance width="517"/>
  <unicode hex="007E"/>
  <outline>
    <contour>
      <point x="50" y="308" type="line"/>
      <point x="58" y="323"/>
      <point x="68" y="337"/>
      <point x="80" y="349" type="curve" smooth="yes"/>
      <point x="100" y="370"/>
      <point x="131" y="391"/>
      <point x="174" y="391" type="curve" smooth="yes"/>
      <point x="252" y="391"/>
      <point x="281" y="331"/>
      <point x="342" y="331" type="curve" smooth="yes"/>
      <point x="383" y="331"/>
      <point x="396" y="345"/>
      <point x="425" y="377" type="curve"/>
      <point x="467" y="330" type="line"/>
      <point x="458" y="314"/>
      <point x="448" y="300"/>
      <point x="436" y="288" type="curve" smooth="yes"/>
      <point x="415" y="267"/>
      <point x="385" y="247"/>
      <point x="342" y="247" type="curve" smooth="yes"/>
      <point x="265" y="247"/>
      <point x="236" y="307"/>
      <point x="174" y="307" type="curve" smooth="yes"/>
      <point x="134" y="307"/>
      <point x="121" y="293"/>
      <point x="92" y="261" type="curve"/>
    </contour>
  </outline>
</glyph>
<glyph name="exclamdown" format="1">
  <advance width="319"/>
  <unicode hex="00A1"/>
  <outline>
    <contour>
      <point x="140" y="354" type="curve" smooth="yes"/>
      <point x="187" y="354"/>
      <point x="213" y="385"/>
      <point x="213" y="429" type="curve" smooth="yes"/>
      <point x="213" y="472"/>
      <point x="188" y="506"/>
      <point x="137" y="506" type="curve" smooth="yes"/>
      <point x="90" y="506"/>
      <point x="64" y="472"/>
      <point x="64" y="432" type="curve" smooth="yes"/>
      <point x="64" y="388"/>
      <point x="89" y="354"/>
    </contour>
    <contour>
      <point x="90" y="-182" type="line"/>
      <point x="219" y="-182" type="line"/>
      <point x="190" y="275" type="line"/>
      <point x="90" y="275" type="line"/>
    </contour>
  </outline>
</glyph>
<glyph name="cent" format="1">
  <advance width="460"/>
  <unicode hex="00A2"/>
  <outline>
    <contour>
      <point x="321" y="581" type="line"/>
      <point x="321" y="494" type="line"/>
      <point x="365" y="486"/>
      <point x="401" y="463"/>
      <point x="425" y="430" type="curve"/>
      <point x="360" y="368" type="line"/>
      <point x="348" y="380"/>
      <point x="336" y="392"/>
      <point x="321" y="400" type="curve"/>
      <point x="321" y="86" type="line"/>
      <point x="337" y="89"/>
      <point x="355" y="92"/>
      <point x="368" y="96" type="curve" smooth="yes"/>
      <point x="375" y="99"/>
      <point x="383" y="101"/>
      <point x="391" y="103" type="curve"/>
      <point x="419" y="30" type="line"/>
      <point x="411" y="26"/>
      <point x="402" y="22"/>
      <point x="392" y="19" type="curve"/>
      <point x="375" y="12"/>
      <point x="350" y="6"/>
      <point x="321" y="3" type="curve"/>
      <point x="321" y="-115" type="line"/>
      <point x="242" y="-115" type="line"/>
      <point x="242" y="1" type="line"/>
      <point x="110" y="13"/>
      <point x="55" y="101"/>
      <point x="55" y="237" type="curve" smooth="yes"/>
      <point x="55" y="392"/>
      <point x="134" y="479"/>
      <point x="242" y="495" type="curve"/>
      <point x="242" y="581" type="line"/>
    </contour>
    <contour>
      <point x="176" y="252" type="curve" smooth="yes"/>
      <point x="176" y="145"/>
      <point x="207" y="104"/>
      <point x="242" y="91" type="curve"/>
      <point x="242" y="404" type="line"/>
      <point x="207" y="393"/>
      <point x="176" y="360"/>
    </contour>
  </outline>
</glyph>
<glyph name="sterling" format="1">
  <advance width="563"/>
  <unicode hex="00A3"/>
  <outline>
    <contour>
      <point x="60" y="342" type="line"/>
      <point x="134" y="342" type="line"/>
      <point x="141" y="429" type="line"/>
      <point x="149" y="553"/>
      <point x="232" y="636"/>
      <point x="355" y="636" type="curve" smooth="yes"/>
      <point x="448" y="636"/>
      <point x="492" y="604"/>
      <point x="513" y="591" type="curve"/>
      <point x="464" y="503" type="line"/>
      <point x="456" y="510"/>
      <point x="447" y="516"/>
      <point x="436" y="522" type="curve" smooth="yes"/>
      <point x="417" y="533"/>
      <point x="393" y="542"/>
      <point x="362" y="542" type="curve" smooth="yes"/>
      <point x="314" y="542"/>
      <point x="269" y="519"/>
      <point x="261" y="436" type="curve" smooth="yes"/>
      <point x="251" y="342" type="line"/>
      <point x="433" y="342" type="line"/>
      <point x="418" y="251" type="line"/>
      <point x="241" y="251" type="line"/>
      <point x="237" y="212" type="line" smooth="yes"/>
      <point x="230" y="152"/>
      <point x="213" y="116"/>
      <point x="196" y="89" type="curve"/>
      <point x="220" y="93"/>
      <point x="244" y="95"/>
      <point x="268" y="95" type="curve" smooth="yes"/>
      <point x="307" y="95"/>
      <point x="342" y="89"/>
      <point x="381" y="89" type="curve" smooth="yes"/>
      <point x="401" y="89"/>
      <point x="424" y="93"/>
      <point x="443" y="100" type="curve"/>
      <point x="454" y="103"/>
      <point x="464" y="107"/>
      <point x="475" y="112" type="curve"/>
      <point x="510" y="27" type="line"/>
      <point x="497" y="20"/>
      <point x="484" y="15"/>
      <point x="470" y="10" type="curve" smooth="yes"/>
      <point x="446" y="2"/>
      <point x="414" y="-6"/>
      <point x="382" y="-6" type="curve" smooth="yes"/>
      <point x="322" y="-6"/>
      <point x="278" y="6"/>
      <point x="233" y="6" type="curve" smooth="yes"/>
      <point x="194" y="6"/>
      <point x="160" y="5"/>
      <point x="135" y="2" type="curve" smooth="yes"/>
      <point x="95" y="-2" type="line"/>
      <point x="67" y="66" type="line"/>
      <point x="76" y="72"/>
      <point x="85" y="80"/>
      <point x="92" y="91" type="curve" smooth="yes"/>
      <point x="105" y="110"/>
      <point x="118" y="136"/>
      <point x="121" y="179" type="curve" smooth="yes"/>
      <point x="121" y="176" type="line"/>
      <point x="127" y="251" type="line"/>
      <point x="60" y="251" type="line"/>
    </contour>
  </outline>
</glyph>
<glyph name="currency" format="1">
  <advance width="589"/>
  <unicode hex="00A4"/>
  <outline>
    <contour>
      <point x="30" y="63" type="line"/>
      <point x="116" y="140" type="line"/>
      <point x="86" y="179"/>
      <point x="71" y="227"/>
      <point x="71" y="283" type="curve" smooth="yes"/>
      <point x="71" y="339"/>
      <point x="87" y="387"/>
      <point x="118" y="426" type="curve"/>
      <point x="32" y="504" type="line"/>
      <point x="101" y="573" type="line"/>
      <point x="184" y="480" type="line"/>
      <point x="216" y="497"/>
      <point x="252" y="507"/>
      <point x="295" y="507" type="curve" smooth="yes"/>
      <point x="336" y="507"/>
      <point x="373" y="498"/>
      <point x="406" y="481" type="curve"/>
      <point x="489" y="573" type="line"/>
      <point x="558" y="504" type="line"/>
      <point x="471" y="426" type="line"/>
      <point x="502" y="387"/>
      <point x="518" y="339"/>
      <point x="518" y="283" type="curve" smooth="yes"/>
      <point x="518" y="227"/>
      <point x="502" y="180"/>
      <point x="471" y="141" type="curve"/>
      <point x="559" y="63" type="line"/>
      <point x="490" y="-6" type="line"/>
      <point x="406" y="87" type="line"/>
      <point x="373" y="70"/>
      <point x="336" y="60"/>
      <point x="293" y="60" type="curve" smooth="yes"/>
      <point x="252" y="60"/>
      <point x="215" y="69"/>
      <point x="182" y="86" type="curve"/>
      <point x="99" y="-6" type="line"/>
    </contour>
    <contour>
      <point x="157" y="288" type="curve" smooth="yes"/>
      <point x="157" y="204"/>
      <point x="213" y="136"/>
      <point x="293" y="136" type="curve" smooth="yes"/>
      <point x="376" y="136"/>
      <point x="432" y="197"/>
      <point x="432" y="280" type="curve" smooth="yes"/>
      <point x="432" y="364"/>
      <point x="376" y="432"/>
      <point x="293" y="432" type="curve" smooth="yes"/>
      <point x="213" y="432"/>
      <point x="157" y="372"/>
    </contour>
  </outline>
</glyph>
<glyph name="brokenbar" format="1">
  <advance width="310"/>
  <unicode hex="00A6"/>
  <outline>
    <contour>
      <point x="210" y="729" type="line"/>
      <point x="210" y="353" type="line"/>
      <point x="100" y="353" type="line"/>
      <point x="100" y="729" type="line"/>
    </contour>
    <contour>
      <point x="210" y="248" type="line"/>
      <point x="210" y="-126" type="line"/>
      <point x="100" y="-126" type="line"/>
      <point x="100" y="248" type="line"/>
    </contour>
  </outline>
</glyph>
<glyph name="section" format="1">
  <advance width="559"/>
  <unicode hex="00A7"/>
  <outline>
    <contour>
      <point x="255" y="-216" type="curve" smooth="yes"/>
      <point x="222" y="-216"/>
      <point x="190" y="-209"/>
      <point x="167" y="-202" type="curve" smooth="yes"/>
      <point x="153" y="-198"/>
      <point x="140" y="-193"/>
      <point x="128" y="-188" type="curve"/>
      <point x="163" y="-109" type="line"/>
      <point x="172" y="-114"/>
      <point x="181" y="-117"/>
      <point x="191" y="-120" type="curve"/>
      <point x="208" y="-127"/>
      <point x="230" y="-131"/>
      <point x="251" y="-131" type="curve" smooth="yes"/>
      <point x="288" y="-131"/>
      <point x="307" y="-114"/>
      <point x="307" y="-79" type="curve" smooth="yes"/>
      <point x="307" y="30"/>
      <point x="50" y="73"/>
      <point x="50" y="245" type="curve" smooth="yes"/>
      <point x="50" y="332"/>
      <point x="114" y="375"/>
      <point x="159" y="393" type="curve"/>
      <point x="135" y="424"/>
      <point x="120" y="456"/>
      <point x="120" y="495" type="curve" smooth="yes"/>
      <point x="120" y="578"/>
      <point x="186" y="643"/>
      <point x="289" y="643" type="curve" smooth="yes"/>
      <point x="322" y="643"/>
      <point x="353" y="636"/>
      <point x="377" y="629" type="curve" smooth="yes"/>
      <point x="390" y="625"/>
      <point x="403" y="620"/>
      <point x="416" y="615" type="curve"/>
      <point x="381" y="536" type="line"/>
      <point x="372" y="540"/>
      <point x="363" y="544"/>
      <point x="353" y="547" type="curve" smooth="yes"/>
      <point x="336" y="552"/>
      <point x="314" y="558"/>
      <point x="293" y="558" type="curve" smooth="yes"/>
      <point x="256" y="558"/>
      <point x="237" y="541"/>
      <point x="237" y="506" type="curve" smooth="yes"/>
      <point x="237" y="397"/>
      <point x="494" y="354"/>
      <point x="494" y="182" type="curve" smooth="yes"/>
      <point x="494" y="95"/>
      <point x="428" y="52"/>
      <point x="385" y="33" type="curve"/>
      <point x="408" y="4"/>
      <point x="424" y="-29"/>
      <point x="424" y="-68" type="curve" smooth="yes"/>
      <point x="424" y="-151"/>
      <point x="358" y="-216"/>
    </contour>
    <contour>
      <point x="377" y="169" type="curve" smooth="yes"/>
      <point x="377" y="228"/>
      <point x="294" y="276"/>
      <point x="222" y="332" type="curve"/>
      <point x="198" y="323"/>
      <point x="167" y="303"/>
      <point x="167" y="258" type="curve" smooth="yes"/>
      <point x="167" y="198"/>
      <point x="250" y="152"/>
      <point x="321" y="94" type="curve"/>
      <point x="346" y="103"/>
      <point x="377" y="124"/>
    </contour>
  </outline>
</glyph>
<glyph name="dieresis" format="1">
  <advance width="500"/>
  <unicode hex="00A8"/>
  <outline>
    <contour>
      <point x="250" y="487" type="move" name="_top"/>
    </contour>
    <contour>
      <point x="151" y="696" type="curve" smooth="yes"/>
      <point x="190" y="696"/>
      <point x="212" y="669"/>
      <point x="212" y="633" type="curve" smooth="yes"/>
      <point x="212" y="596"/>
      <point x="191" y="568"/>
      <point x="148" y="568" type="curve" smooth="yes"/>
      <point x="109" y="568"/>
      <point x="87" y="595"/>
      <point x="87" y="630" type="curve" smooth="yes"/>
      <point x="87" y="669"/>
      <point x="108" y="696"/>
    </contour>
    <contour>
      <point x="351" y="696" type="curve" smooth="yes"/>
      <point x="390" y="696"/>
      <point x="412" y="669"/>
      <point x="412" y="633" type="curve" smooth="yes"/>
      <point x="412" y="596"/>
      <point x="391" y="568"/>
      <point x="348" y="568" type="curve" smooth="yes"/>
      <point x="309" y="568"/>
      <point x="287" y="595"/>
      <point x="287" y="630" type="curve" smooth="yes"/>
      <point x="287" y="669"/>
      <point x="308" y="696"/>
    </contour>
  </outline>
</glyph>
<glyph name="copyright" format="1">
  <advance width="782"/>
  <unicode hex="00A9"/>
  <outline>
    <contour>
      <point x="45" y="340" type="curve" smooth="yes"/>
      <point x="45" y="543"/>
      <point x="191" y="686"/>
      <point x="394" y="686" type="curve" smooth="yes"/>
      <point x="597" y="686"/>
      <point x="737" y="543"/>
      <point x="737" y="340" type="curve" smooth="yes"/>
      <point x="737" y="137"/>
      <point x="591" y="-6"/>
      <point x="387" y="-6" type="curve" smooth="yes"/>
      <point x="184" y="-6"/>
      <point x="45" y="137"/>
    </contour>
    <contour>
      <point x="131" y="346" type="curve" smooth="yes"/>
      <point x="131" y="190"/>
      <point x="238" y="68"/>
      <point x="390" y="68" type="curve" smooth="yes"/>
      <point x="545" y="68"/>
      <point x="651" y="178"/>
      <point x="651" y="333" type="curve" smooth="yes"/>
      <point x="651" y="489"/>
      <point x="545" y="612"/>
      <point x="391" y="612" type="curve" smooth="yes"/>
      <point x="238" y="612"/>
      <point x="131" y="502"/>
    </contour>
    <contour>
      <point x="464" y="452" type="line"/>
      <point x="460" y="455"/>
      <point x="455" y="458"/>
      <point x="449" y="461" type="curve" smooth="yes"/>
      <point x="438" y="466"/>
      <point x="425" y="471"/>
      <point x="410" y="471" type="curve" smooth="yes"/>
      <point x="358" y="471"/>
      <point x="342" y="413"/>
      <point x="342" y="344" type="curve" smooth="yes"/>
      <point x="342" y="272"/>
      <point x="364" y="217"/>
      <point x="416" y="217" type="curve" smooth="yes"/>
      <point x="451" y="217"/>
      <point x="478" y="227"/>
      <point x="483" y="230" type="curve"/>
      <point x="505" y="163" type="line"/>
      <point x="496" y="159"/>
      <point x="487" y="156"/>
      <point x="476" y="153" type="curve" smooth="yes"/>
      <point x="457" y="148"/>
      <point x="432" y="143"/>
      <point x="403" y="143" type="curve" smooth="yes"/>
      <point x="299" y="143"/>
      <point x="246" y="210"/>
      <point x="246" y="338" type="curve" smooth="yes"/>
      <point x="246" y="461"/>
      <point x="301" y="545"/>
      <point x="418" y="545" type="curve" smooth="yes"/>
      <point x="467" y="545"/>
      <point x="496" y="525"/>
      <point x="513" y="506" type="curve"/>
    </contour>
  </outline>
</glyph>
<glyph name="ordfeminine" format="1">
  <advance width="401"/>
  <unicode hex="00AA"/>
  <outline>
    <contour>
      <point x="338" y="505" type="line" smooth="yes"/>
      <point x="338" y="453"/>
      <point x="346" y="416"/>
      <point x="354" y="393" type="curve" smooth="yes"/>
      <point x="359" y="380"/>
      <point x="364" y="369"/>
      <point x="371" y="360" type="curve"/>
      <point x="304" y="334" type="line"/>
      <point x="299" y="338"/>
      <point x="294" y="343"/>
      <point x="289" y="350" type="curve" smooth="yes"/>
      <point x="281" y="361"/>
      <point x="272" y="376"/>
      <point x="265" y="396" type="curve"/>
      <point x="248" y="355"/>
      <point x="215" y="335"/>
      <point x="167" y="335" type="curve" smooth="yes"/>
      <point x="76" y="335"/>
      <point x="35" y="403"/>
      <point x="35" y="507" type="curve" smooth="yes"/>
      <point x="35" y="611"/>
      <point x="102" y="686"/>
      <point x="202" y="686" type="curve" smooth="yes"/>
      <point x="229" y="686"/>
      <point x="263" y="681"/>
      <point x="290" y="676" type="curve" smooth="yes"/>
      <point x="338" y="667" type="line"/>
    </contour>
    <contour>
      <point x="178" y="400" type="curve" smooth="yes"/>
      <point x="217" y="400"/>
      <point x="247" y="467"/>
      <point x="247" y="539" type="curve" smooth="yes"/>
      <point x="247" y="617" type="line"/>
      <point x="236" y="620"/>
      <point x="221" y="623"/>
      <point x="210" y="623" type="curve" smooth="yes"/>
      <point x="150" y="623"/>
      <point x="133" y="577"/>
      <point x="133" y="513" type="curve" smooth="yes"/>
      <point x="133" y="456"/>
      <point x="138" y="400"/>
    </contour>
  </outline>
</glyph>
<glyph name="guillemotleft" format="1">
  <advance width="568"/>
  <unicode hex="00AB"/>
  <outline>
    <contour>
      <point x="265" y="27" type="line"/>
      <point x="238" y="50"/>
      <point x="212" y="74"/>
      <point x="186" y="99" type="curve" smooth="yes"/>
      <point x="142" y="142"/>
      <point x="89" y="196"/>
      <point x="50" y="245" type="curve"/>
      <point x="89" y="294"/>
      <point x="142" y="348"/>
      <point x="186" y="391" type="curve" smooth="yes"/>
      <point x="212" y="416"/>
      <point x="238" y="440"/>
      <point x="265" y="463" type="curve"/>
      <point x="313" y="408" type="line"/>
      <point x="183" y="245" type="line"/>
      <point x="313" y="82" type="line"/>
    </contour>
    <contour>
      <point x="485" y="27" type="line"/>
      <point x="458" y="50"/>
      <point x="432" y="74"/>
      <point x="406" y="99" type="curve" smooth="yes"/>
      <point x="362" y="142"/>
      <point x="309" y="196"/>
      <point x="270" y="245" type="curve"/>
      <point x="309" y="294"/>
      <point x="362" y="348"/>
      <point x="406" y="391" type="curve" smooth="yes"/>
      <point x="432" y="416"/>
      <point x="458" y="440"/>
      <point x="485" y="463" type="curve"/>
      <point x="533" y="408" type="line"/>
      <point x="403" y="245" type="line"/>
      <point x="533" y="82" type="line"/>
    </contour>
  </outline>
</glyph>
<glyph name="logicalnot" format="1">
  <advance width="511"/>
  <unicode hex="00AC"/>
  <outline>
    <contour>
      <point x="50" y="396" type="line"/>
      <point x="461" y="396" type="line"/>
      <point x="461" y="182" type="line"/>
      <point x="374" y="182" type="line"/>
      <point x="374" y="307" type="line"/>
      <point x="50" y="307" type="line"/>
    </contour>
  </outline>
</glyph>
<glyph name="registered" format="1">
  <advance width="584"/>
  <unicode hex="00AE"/>
  <outline>
    <contour>
      <point x="60" y="454" type="curve" smooth="yes"/>
      <point x="60" y="590"/>
      <point x="158" y="686"/>
      <point x="294" y="686" type="curve" smooth="yes"/>
      <point x="430" y="686"/>
      <point x="524" y="590"/>
      <point x="524" y="454" type="curve" smooth="yes"/>
      <point x="524" y="318"/>
      <point x="425" y="222"/>
      <point x="290" y="222" type="curve" smooth="yes"/>
      <point x="154" y="222"/>
      <point x="60" y="318"/>
    </contour>
    <contour>
      <point x="125" y="457" type="curve" smooth="yes"/>
      <point x="125" y="358"/>
      <point x="194" y="279"/>
      <point x="290" y="279" type="curve" smooth="yes"/>
      <point x="388" y="279"/>
      <point x="457" y="349"/>
      <point x="457" y="449" type="curve" smooth="yes"/>
      <point x="457" y="548"/>
      <point x="390" y="627"/>
      <point x="290" y="627" type="curve" smooth="yes"/>
      <point x="194" y="627"/>
      <point x="125" y="557"/>
    </contour>
    <contour>
      <point x="284" y="581" type="curve" smooth="yes"/>
      <point x="348" y="581"/>
      <point x="376" y="555"/>
      <point x="376" y="510" type="curve" smooth="yes"/>
      <point x="376" y="485"/>
      <point x="361" y="466"/>
      <point x="337" y="451" type="curve"/>
      <point x="358" y="444"/>
      <point x="367" y="418"/>
      <point x="395" y="345" type="curve"/>
      <point x="345" y="327" type="line"/>
      <point x="312" y="409"/>
      <point x="307" y="430"/>
      <point x="267" y="433" type="curve" smooth="yes"/>
      <point x="262" y="433" type="line"/>
      <point x="262" y="325" type="line"/>
      <point x="209" y="325" type="line"/>
      <point x="209" y="580" type="line"/>
      <point x="216" y="580" type="line"/>
      <point x="243" y="580" type="line" smooth="yes"/>
      <point x="258" y="580"/>
      <point x="273" y="581"/>
    </contour>
    <contour>
      <point x="262" y="549" type="line"/>
      <point x="262" y="464" type="line"/>
      <point x="265" y="464"/>
      <point x="278" y="465"/>
      <point x="285" y="466" type="curve" smooth="yes"/>
      <point x="316" y="473"/>
      <point x="321" y="481"/>
      <point x="321" y="506" type="curve" smooth="yes"/>
      <point x="321" y="527"/>
      <point x="312" y="549"/>
      <point x="277" y="549" type="curve" smooth="yes"/>
    </contour>
  </outline>
</glyph>
<glyph name="degree" format="1">
  <advance width="310"/>
  <unicode hex="00B0"/>
  <outline>
    <contour>
      <point x="40" y="604" type="curve" smooth="yes"/>
      <point x="40" y="672"/>
      <point x="88" y="721"/>
      <point x="156" y="721" type="curve" smooth="yes"/>
      <point x="224" y="721"/>
      <point x="270" y="672"/>
      <point x="270" y="604" type="curve" smooth="yes"/>
      <point x="270" y="536"/>
      <point x="222" y="487"/>
      <point x="154" y="487" type="curve" smooth="yes"/>
      <point x="86" y="487"/>
      <point x="40" y="536"/>
    </contour>
    <contour>
      <point x="104" y="605" type="curve" smooth="yes"/>
      <point x="104" y="570"/>
      <point x="123" y="545"/>
      <point x="155" y="545" type="curve" smooth="yes"/>
      <point x="188" y="545"/>
      <point x="207" y="567"/>
      <point x="207" y="604" type="curve" smooth="yes"/>
      <point x="207" y="639"/>
      <point x="188" y="663"/>
      <point x="155" y="663" type="curve" smooth="yes"/>
      <point x="123" y="663"/>
      <point x="104" y="642"/>
    </contour>
  </outline>
</glyph>
<glyph name="uni00B2" format="1">
  <advance width="317"/>
  <unicode hex="00B2"/>
  <outline>
    <contour>
      <point x="159" y="686" type="curve" smooth="yes"/>
      <point x="227" y="686"/>
      <point x="270" y="657"/>
      <point x="270" y="592" type="curve" smooth="yes"/>
      <point x="270" y="540"/>
      <point x="235" y="495"/>
      <point x="182" y="440" type="curve" smooth="yes"/>
      <point x="173" y="431"/>
      <point x="159" y="419"/>
      <point x="142" y="407" type="curve"/>
      <point x="277" y="407" type="line"/>
      <point x="277" y="336" type="line"/>
      <point x="36" y="336" type="line"/>
      <point x="36" y="407" type="line"/>
      <point x="44" y="413"/>
      <point x="52" y="420"/>
      <point x="60" y="427" type="curve" smooth="yes"/>
      <point x="75" y="439"/>
      <point x="91" y="455"/>
      <point x="110" y="474" type="curve"/>
      <point x="158" y="527"/>
      <point x="178" y="552"/>
      <point x="178" y="583" type="curve" smooth="yes"/>
      <point x="178" y="606"/>
      <point x="169" y="617"/>
      <point x="151" y="617" type="curve" smooth="yes"/>
      <point x="132" y="617"/>
      <point x="111" y="608"/>
      <point x="95" y="600" type="curve" smooth="yes"/>
      <point x="86" y="595"/>
      <point x="76" y="590"/>
      <point x="67" y="584" type="curve"/>
      <point x="35" y="647" type="line"/>
      <point x="74" y="668"/>
      <point x="112" y="686"/>
    </contour>
  </outline>
</glyph>
<glyph name="uni00B3" format="1">
  <advance width="328"/>
  <unicode hex="00B3"/>
  <outline>
    <contour>
      <point x="163" y="686" type="curve" smooth="yes"/>
      <point x="231" y="686"/>
      <point x="268" y="652"/>
      <point x="268" y="603" type="curve" smooth="yes"/>
      <point x="268" y="564"/>
      <point x="244" y="543"/>
      <point x="223" y="530" type="curve"/>
      <point x="262" y="514"/>
      <point x="283" y="483"/>
      <point x="283" y="446" type="curve" smooth="yes"/>
      <point x="283" y="387"/>
      <point x="250" y="329"/>
      <point x="150" y="329" type="curve" smooth="yes"/>
      <point x="115" y="329"/>
      <point x="72" y="343"/>
      <point x="35" y="363" type="curve"/>
      <point x="61" y="425" type="line"/>
      <point x="89" y="411" type="line" smooth="yes"/>
      <point x="105" y="404"/>
      <point x="126" y="398"/>
      <point x="147" y="398" type="curve" smooth="yes"/>
      <point x="171" y="398"/>
      <point x="195" y="412"/>
      <point x="195" y="445" type="curve" smooth="yes"/>
      <point x="195" y="469"/>
      <point x="183" y="488"/>
      <point x="159" y="488" type="curve" smooth="yes"/>
      <point x="142" y="488"/>
      <point x="129" y="486"/>
      <point x="120" y="485" type="curve" smooth="yes"/>
      <point x="105" y="482" type="line"/>
      <point x="84" y="534" type="line"/>
      <point x="121" y="545"/>
      <point x="178" y="549"/>
      <point x="178" y="591" type="curve" smooth="yes"/>
      <point x="178" y="606"/>
      <point x="169" y="617"/>
      <point x="154" y="617" type="curve" smooth="yes"/>
      <point x="135" y="617"/>
      <point x="114" y="611"/>
      <point x="73" y="592" type="curve"/>
      <point x="43" y="656" type="line"/>
      <point x="84" y="675"/>
      <point x="118" y="686"/>
    </contour>
  </outline>
</glyph>
<glyph name="acute" format="1">
  <advance width="500"/>
  <unicode hex="00B4"/>
  <outline>
    <contour>
      <point x="234" y="506" type="move" name="_top"/>
    </contour>
    <contour>
      <point x="127" y="591" type="line"/>
      <point x="297" y="781" type="line"/>
      <point x="374" y="709" type="line"/>
      <point x="334" y="660"/>
      <point x="285" y="618"/>
      <point x="245" y="587" type="curve" smooth="yes"/>
      <point x="222" y="570"/>
      <point x="199" y="554"/>
      <point x="176" y="539" type="curve"/>
    </contour>
  </outline>
</glyph>
<glyph name="uni00B5" format="1">
  <advance width="554"/>
  <unicode hex="00B5"/>
  <outline>
    <contour>
      <point x="65" y="498" type="line"/>
      <point x="180" y="498" type="line"/>
      <point x="180" y="161" type="line"/>
      <point x="183" y="110"/>
      <point x="215" y="79"/>
      <point x="260" y="79" type="curve" smooth="yes"/>
      <point x="313" y="79"/>
      <point x="360" y="135"/>
      <point x="365" y="223" type="curve"/>
      <point x="365" y="498" type="line"/>
      <point x="480" y="498" type="line"/>
      <point x="480" y="241" type="line" smooth="yes"/>
      <point x="480" y="161"/>
      <point x="492" y="108"/>
      <point x="504" y="75" type="curve" smooth="yes"/>
      <point x="511" y="55"/>
      <point x="520" y="39"/>
      <point x="529" y="28" type="curve"/>
      <point x="438" y="-8" type="line"/>
      <point x="431" y="-1"/>
      <point x="425" y="7"/>
      <point x="419" y="16" type="curve" smooth="yes"/>
      <point x="408" y="32"/>
      <point x="397" y="55"/>
      <point x="390" y="86" type="curve"/>
      <point x="365" y="25"/>
      <point x="322" y="-6"/>
      <point x="260" y="-6" type="curve" smooth="yes"/>
      <point x="230" y="-6"/>
      <point x="203" y="2"/>
      <point x="180" y="18" type="curve"/>
      <point x="180" y="-201" type="line"/>
      <point x="65" y="-222" type="line"/>
    </contour>
  </outline>
</glyph>
<glyph name="paragraph" format="1">
  <advance width="578"/>
  <unicode hex="00B6"/>
  <outline>
    <contour>
      <point x="508" y="26" type="line" smooth="yes"/>
      <point x="508" y="-134"/>
      <point x="412" y="-183"/>
      <point x="330" y="-223" type="curve"/>
      <point x="283" y="-143" type="line"/>
      <point x="390" y="-89"/>
      <point x="388" y="-29"/>
      <point x="388" y="14" type="curve" smooth="yes"/>
      <point x="388" y="677" type="line"/>
      <point x="508" y="677" type="line"/>
    </contour>
    <contour>
      <point x="290" y="265" type="line"/>
      <point x="137" y="265"/>
      <point x="60" y="345"/>
      <point x="60" y="473" type="curve" smooth="yes"/>
      <point x="60" y="602"/>
      <point x="139" y="679"/>
      <point x="290" y="679" type="curve"/>
    </contour>
  </outline>
</glyph>
<glyph name="periodcentered" format="1">
  <advance width="249"/>
  <unicode hex="00B7"/>
  <outline>
    <contour>
      <point x="126" y="393" type="curve" smooth="yes"/>
      <point x="173" y="393"/>
      <point x="199" y="362"/>
      <point x="199" y="318" type="curve" smooth="yes"/>
      <point x="199" y="275"/>
      <point x="174" y="241"/>
      <point x="123" y="241" type="curve" smooth="yes"/>
      <point x="76" y="241"/>
      <point x="50" y="275"/>
      <point x="50" y="315" type="curve" smooth="yes"/>
      <point x="50" y="359"/>
      <point x="75" y="393"/>
    </contour>
  </outline>
</glyph>
<glyph name="cedilla" format="1">
  <advance width="500"/>
  <unicode hex="00B8"/>
  <outline>
    <contour>
      <point x="238" y="0" type="move" name="_bottom"/>
    </contour>
    <contour>
      <point x="274" y="3" type="line"/>
      <point x="263" y="-47" type="line"/>
      <point x="315" y="-51"/>
      <point x="353" y="-77"/>
      <point x="353" y="-126" type="curve" smooth="yes"/>
      <point x="353" y="-198"/>
      <point x="291" y="-219"/>
      <point x="235" y="-219" type="curve" smooth="yes"/>
      <point x="202" y="-219"/>
      <point x="171" y="-212"/>
      <point x="148" y="-201" type="curve"/>
      <point x="164" y="-147" type="line"/>
      <point x="179" y="-152"/>
      <point x="205" y="-160"/>
      <point x="228" y="-160" type="curve" smooth="yes"/>
      <point x="264" y="-160"/>
      <point x="278" y="-149"/>
      <point x="278" y="-129" type="curve" smooth="yes"/>
      <point x="278" y="-98"/>
      <point x="225" y="-85"/>
      <point x="186" y="-85" type="curve"/>
      <point x="208" y="3" type="line"/>
    </contour>
  </outline>
</glyph>
<glyph name="uni00B9" format="1">
  <advance width="267"/>
  <unicode hex="00B9"/>
  <outline>
    <contour>
      <point x="197" y="677" type="line"/>
      <point x="197" y="336" type="line"/>
      <point x="113" y="336" type="line"/>
      <point x="113" y="587" type="line"/>
      <point x="92" y="566"/>
      <point x="69" y="551"/>
      <point x="45" y="540" type="curve"/>
      <point x="10" y="604" type="line"/>
      <point x="25" y="609"/>
      <point x="40" y="616"/>
      <point x="55" y="623" type="curve" smooth="yes"/>
      <point x="80" y="635"/>
      <point x="111" y="654"/>
      <point x="136" y="677" type="curve"/>
    </contour>
  </outline>
</glyph>
<glyph name="ordmasculine" format="1">
  <advance width="410"/>
  <unicode hex="00BA"/>
  <outline>
    <contour>
      <point x="208" y="686" type="curve" smooth="yes"/>
      <point x="319" y="686"/>
      <point x="365" y="620"/>
      <point x="365" y="512" type="curve" smooth="yes"/>
      <point x="365" y="411"/>
      <point x="311" y="332"/>
      <point x="202" y="332" type="curve" smooth="yes"/>
      <point x="91" y="332"/>
      <point x="45" y="397"/>
      <point x="45" y="504" type="curve" smooth="yes"/>
      <point x="45" y="608"/>
      <point x="98" y="686"/>
    </contour>
    <contour>
      <point x="201" y="619" type="curve" smooth="yes"/>
      <point x="154" y="619"/>
      <point x="143" y="574"/>
      <point x="143" y="511" type="curve" smooth="yes"/>
      <point x="143" y="450"/>
      <point x="155" y="399"/>
      <point x="209" y="399" type="curve" smooth="yes"/>
      <point x="256" y="399"/>
      <point x="267" y="444"/>
      <point x="267" y="507" type="curve" smooth="yes"/>
      <point x="267" y="568"/>
      <point x="255" y="619"/>
    </contour>
  </outline>
</glyph>
<glyph name="guillemotright" format="1">
  <advance width="568"/>
  <unicode hex="00BB"/>
  <outline>
    <contour>
      <point x="303" y="463" type="line"/>
      <point x="330" y="440"/>
      <point x="356" y="416"/>
      <point x="382" y="391" type="curve" smooth="yes"/>
      <point x="426" y="348"/>
      <point x="479" y="294"/>
      <point x="518" y="245" type="curve"/>
      <point x="479" y="196"/>
      <point x="426" y="142"/>
      <point x="382" y="99" type="curve" smooth="yes"/>
      <point x="356" y="74"/>
      <point x="330" y="50"/>
      <point x="303" y="27" type="curve"/>
      <point x="255" y="82" type="line"/>
      <point x="385" y="245" type="line"/>
      <point x="255" y="408" type="line"/>
    </contour>
    <contour>
      <point x="83" y="463" type="line"/>
      <point x="110" y="440"/>
      <point x="136" y="416"/>
      <point x="162" y="391" type="curve" smooth="yes"/>
      <point x="206" y="348"/>
      <point x="259" y="294"/>
      <point x="298" y="245" type="curve"/>
      <point x="259" y="196"/>
      <point x="206" y="142"/>
      <point x="162" y="99" type="curve" smooth="yes"/>
      <point x="136" y="74"/>
      <point x="110" y="50"/>
      <point x="83" y="27" type="curve"/>
      <point x="35" y="82" type="line"/>
      <point x="165" y="245" type="line"/>
      <point x="35" y="408" type="line"/>
    </contour>
  </outline>
</glyph>
<glyph name="onequarter" format="1">
  <advance width="713"/>
  <unicode hex="00BC"/>
  <outline>
    <contour>
      <point x="413" y="587" type="line"/>
      <point x="508" y="587" type="line"/>
      <point x="234" y="0" type="line"/>
      <point x="139" y="0" type="line"/>
    </contour>
    <contour>
      <point x="649" y="155" type="line"/>
      <point x="698" y="155" type="line"/>
      <point x="688" y="92" type="line"/>
      <point x="649" y="92" type="line"/>
      <point x="649" y="0" type="line"/>
      <point x="565" y="0" type="line"/>
      <point x="565" y="92" type="line"/>
      <point x="408" y="92" type="line"/>
      <point x="408" y="132" type="line"/>
      <point x="498" y="350" type="line"/>
      <point x="581" y="350" type="line"/>
      <point x="498" y="155" type="line"/>
      <point x="565" y="155" type="line"/>
      <point x="565" y="247" type="line"/>
      <point x="649" y="267" type="line"/>
    </contour>
    <contour>
      <point x="192" y="586" type="line"/>
      <point x="192" y="235" type="line"/>
      <point x="108" y="235" type="line"/>
      <point x="108" y="496" type="line"/>
      <point x="87" y="475"/>
      <point x="64" y="460"/>
      <point x="40" y="449" type="curve"/>
      <point x="5" y="513" type="line"/>
      <point x="20" y="518"/>
      <point x="35" y="525"/>
      <point x="50" y="532" type="curve" smooth="yes"/>
      <point x="75" y="544"/>
      <point x="106" y="563"/>
      <point x="131" y="586" type="curve"/>
    </contour>
  </outline>
</glyph>
<glyph name="onehalf" format="1">
  <advance width="727"/>
  <unicode hex="00BD"/>
  <outline>
    <contour>
      <point x="413" y="587" type="line"/>
      <point x="508" y="587" type="line"/>
      <point x="234" y="0" type="line"/>
      <point x="139" y="0" type="line"/>
    </contour>
    <contour>
      <point x="569" y="350" type="curve" smooth="yes"/>
      <point x="637" y="350"/>
      <point x="680" y="321"/>
      <point x="680" y="256" type="curve" smooth="yes"/>
      <point x="680" y="204"/>
      <point x="645" y="159"/>
      <point x="592" y="104" type="curve" smooth="yes"/>
      <point x="583" y="95"/>
      <point x="569" y="83"/>
      <point x="552" y="71" type="curve"/>
      <point x="687" y="71" type="line"/>
      <point x="687" y="0" type="line"/>
      <point x="446" y="0" type="line"/>
      <point x="446" y="71" type="line"/>
      <point x="449" y="72"/>
      <point x="485" y="102"/>
      <point x="520" y="138" type="curve"/>
      <point x="568" y="191"/>
      <point x="588" y="216"/>
      <point x="588" y="247" type="curve" smooth="yes"/>
      <point x="588" y="270"/>
      <point x="579" y="281"/>
      <point x="561" y="281" type="curve" smooth="yes"/>
      <point x="542" y="281"/>
      <point x="521" y="272"/>
      <point x="505" y="264" type="curve" smooth="yes"/>
      <point x="496" y="259"/>
      <point x="486" y="254"/>
      <point x="477" y="248" type="curve"/>
      <point x="445" y="311" type="line"/>
      <point x="484" y="332"/>
      <point x="522" y="350"/>
    </contour>
    <contour>
      <point x="192" y="586" type="line"/>
      <point x="192" y="240" type="line"/>
      <point x="108" y="240" type="line"/>
      <point x="108" y="496" type="line"/>
      <point x="87" y="475"/>
      <point x="64" y="460"/>
      <point x="40" y="449" type="curve"/>
      <point x="5" y="513" type="line"/>
      <point x="20" y="518"/>
      <point x="35" y="525"/>
      <point x="50" y="532" type="curve" smooth="yes"/>
      <point x="75" y="544"/>
      <point x="106" y="563"/>
      <point x="131" y="586" type="curve"/>
    </contour>
  </outline>
</glyph>
<glyph name="threequarters" format="1">
  <advance width="788"/>
  <unicode hex="00BE"/>
  <outline>
    <contour>
      <point x="463" y="587" type="line"/>
      <point x="558" y="587" type="line"/>
      <point x="284" y="0" type="line"/>
      <point x="189" y="0" type="line"/>
    </contour>
    <contour>
      <point x="701" y="146" type="line"/>
      <point x="750" y="146" type="line"/>
      <point x="740" y="83" type="line"/>
      <point x="701" y="83" type="line"/>
      <point x="701" y="0" type="line"/>
      <point x="617" y="0" type="line"/>
      <point x="617" y="83" type="line"/>
      <point x="460" y="83" type="line"/>
      <point x="460" y="123" type="line"/>
      <point x="550" y="341" type="line"/>
      <point x="633" y="341" type="line"/>
      <point x="550" y="146" type="line"/>
      <point x="617" y="146" type="line"/>
      <point x="617" y="238" type="line"/>
      <point x="701" y="258" type="line"/>
    </contour>
    <contour>
      <point x="153" y="686" type="curve" smooth="yes"/>
      <point x="221" y="686"/>
      <point x="258" y="652"/>
      <point x="258" y="603" type="curve" smooth="yes"/>
      <point x="258" y="564"/>
      <point x="234" y="543"/>
      <point x="213" y="530" type="curve"/>
      <point x="252" y="514"/>
      <point x="273" y="483"/>
      <point x="273" y="446" type="curve" smooth="yes"/>
      <point x="273" y="387"/>
      <point x="240" y="329"/>
      <point x="140" y="329" type="curve" smooth="yes"/>
      <point x="105" y="329"/>
      <point x="62" y="343"/>
      <point x="25" y="363" type="curve"/>
      <point x="51" y="425" type="line"/>
      <point x="79" y="411" type="line" smooth="yes"/>
      <point x="95" y="404"/>
      <point x="116" y="398"/>
      <point x="137" y="398" type="curve" smooth="yes"/>
      <point x="161" y="398"/>
      <point x="185" y="412"/>
      <point x="185" y="445" type="curve" smooth="yes"/>
      <point x="185" y="469"/>
      <point x="173" y="488"/>
      <point x="149" y="488" type="curve" smooth="yes"/>
      <point x="132" y="488"/>
      <point x="119" y="486"/>
      <point x="110" y="485" type="curve" smooth="yes"/>
      <point x="95" y="482" type="line"/>
      <point x="74" y="534" type="line"/>
      <point x="111" y="545"/>
      <point x="168" y="549"/>
      <point x="168" y="591" type="curve" smooth="yes"/>
      <point x="168" y="606"/>
      <point x="159" y="617"/>
      <point x="144" y="617" type="curve" smooth="yes"/>
      <point x="125" y="617"/>
      <point x="104" y="611"/>
      <point x="63" y="592" type="curve"/>
      <point x="33" y="656" type="line"/>
      <point x="74" y="675"/>
      <point x="108" y="686"/>
    </contour>
  </outline>
</glyph>
<glyph name="questiondown" format="1">
  <advance width="434"/>
  <unicode hex="00BF"/>
  <outline>
    <contour>
      <point x="215" y="-192" type="curve" smooth="yes"/>
      <point x="98" y="-192"/>
      <point x="25" y="-149"/>
      <point x="25" y="-42" type="curve" smooth="yes"/>
      <point x="25" y="37"/>
      <point x="79" y="96"/>
      <point x="127" y="158" type="curve" smooth="yes"/>
      <point x="164" y="205"/>
      <point x="196" y="249"/>
      <point x="211" y="298" type="curve"/>
      <point x="296" y="275" type="line"/>
      <point x="296" y="135"/>
      <point x="154" y="52"/>
      <point x="154" y="-28" type="curve" smooth="yes"/>
      <point x="154" y="-76"/>
      <point x="185" y="-104"/>
      <point x="230" y="-104" type="curve" smooth="yes"/>
      <point x="273" y="-104"/>
      <point x="297" y="-89"/>
      <point x="355" y="-62" type="curve"/>
      <point x="394" y="-142" type="line"/>
      <point x="339" y="-167"/>
      <point x="283" y="-192"/>
    </contour>
    <contour>
      <point x="247" y="354" type="curve" smooth="yes"/>
      <point x="200" y="354"/>
      <point x="174" y="385"/>
      <point x="174" y="429" type="curve" smooth="yes"/>
      <point x="174" y="472"/>
      <point x="199" y="506"/>
      <point x="250" y="506" type="curve" smooth="yes"/>
      <point x="297" y="506"/>
      <point x="323" y="472"/>
      <point x="323" y="432" type="curve" smooth="yes"/>
      <point x="323" y="388"/>
      <point x="298" y="354"/>
    </contour>
  </outline>
</glyph>
<glyph name="Agrave" format="1">
  <advance width="606"/>
  <unicode hex="00C0"/>
  <outline>
    <contour>
      <point x="255" y="677" type="line"/>
      <point x="351" y="677" type="line"/>
      <point x="611" y="0" type="line"/>
      <point x="483" y="0" type="line"/>
      <point x="421" y="177" type="line"/>
      <point x="178" y="177" type="line"/>
      <point x="115" y="0" type="line"/>
      <point x="-5" y="0" type="line"/>
    </contour>
    <contour>
      <point x="390" y="266" type="line"/>
      <point x="349" y="383"/>
      <point x="317" y="487"/>
      <point x="301" y="543" type="curve"/>
      <point x="282" y="483"/>
      <point x="251" y="381"/>
      <point x="210" y="266" type="curve"/>
    </contour>
    <contour>
      <point x="358" y="718" type="line"/>
      <point x="327" y="727"/>
      <point x="297" y="737"/>
      <point x="267" y="750" type="curve" smooth="yes"/>
      <point x="216" y="771"/>
      <point x="154" y="804"/>
      <point x="107" y="847" type="curve"/>
      <point x="161" y="929" type="line"/>
      <point x="387" y="777" type="line"/>
    </contour>
  </outline>
</glyph>
<glyph name="Aacute" format="1">
  <advance width="606"/>
  <unicode hex="00C1"/>
  <outline>
    <contour>
      <point x="255" y="677" type="line"/>
      <point x="351" y="677" type="line"/>
      <point x="611" y="0" type="line"/>
      <point x="483" y="0" type="line"/>
      <point x="421" y="177" type="line"/>
      <point x="178" y="177" type="line"/>
      <point x="115" y="0" type="line"/>
      <point x="-5" y="0" type="line"/>
    </contour>
    <contour>
      <point x="390" y="266" type="line"/>
      <point x="349" y="383"/>
      <point x="317" y="487"/>
      <point x="301" y="543" type="curve"/>
      <point x="282" y="483"/>
      <point x="251" y="381"/>
      <point x="210" y="266" type="curve"/>
    </contour>
    <contour>
      <point x="212" y="777" type="line"/>
      <point x="438" y="929" type="line"/>
      <point x="492" y="847" type="line"/>
      <point x="445" y="804"/>
      <point x="383" y="771"/>
      <point x="332" y="750" type="curve" smooth="yes"/>
      <point x="302" y="737"/>
      <point x="272" y="727"/>
      <point x="241" y="718" type="curve"/>
    </contour>
  </outline>
</glyph>
<glyph name="Acircumflex" format="1">
  <advance width="606"/>
  <unicode hex="00C2"/>
  <outline>
    <contour>
      <point x="255" y="677" type="line"/>
      <point x="351" y="677" type="line"/>
      <point x="611" y="0" type="line"/>
      <point x="483" y="0" type="line"/>
      <point x="421" y="177" type="line"/>
      <point x="178" y="177" type="line"/>
      <point x="115" y="0" type="line"/>
      <point x="-5" y="0" type="line"/>
    </contour>
    <contour>
      <point x="390" y="266" type="line"/>
      <point x="349" y="383"/>
      <point x="317" y="487"/>
      <point x="301" y="543" type="curve"/>
      <point x="282" y="483"/>
      <point x="251" y="381"/>
      <point x="210" y="266" type="curve"/>
    </contour>
    <contour>
      <point x="103" y="772" type="line"/>
      <point x="301" y="930" type="line"/>
      <point x="499" y="772" type="line"/>
      <point x="455" y="718" type="line"/>
      <point x="440" y="725"/>
      <point x="424" y="732"/>
      <point x="407" y="741" type="curve" smooth="yes"/>
      <point x="378" y="756"/>
      <point x="340" y="779"/>
      <point x="301" y="808" type="curve"/>
      <point x="261" y="779"/>
      <point x="223" y="756"/>
      <point x="194" y="741" type="curve" smooth="yes"/>
      <point x="177" y="732"/>
      <point x="161" y="725"/>
      <point x="147" y="718" type="curve"/>
    </contour>
  </outline>
</glyph>
<glyph name="Atilde" format="1">
  <advance width="606"/>
  <unicode hex="00C3"/>
  <outline>
    <contour>
      <point x="255" y="677" type="line"/>
      <point x="351" y="677" type="line"/>
      <point x="611" y="0" type="line"/>
      <point x="483" y="0" type="line"/>
      <point x="421" y="177" type="line"/>
      <point x="178" y="177" type="line"/>
      <point x="115" y="0" type="line"/>
      <point x="-5" y="0" type="line"/>
    </contour>
    <contour>
      <point x="390" y="266" type="line"/>
      <point x="349" y="383"/>
      <point x="317" y="487"/>
      <point x="301" y="543" type="curve"/>
      <point x="282" y="483"/>
      <point x="251" y="381"/>
      <point x="210" y="266" type="curve"/>
    </contour>
    <contour>
      <point x="137" y="835" type="line"/>
      <point x="144" y="839"/>
      <point x="152" y="843"/>
      <point x="160" y="846" type="curve" smooth="yes"/>
      <point x="175" y="853"/>
      <point x="194" y="858"/>
      <point x="217" y="858" type="curve" smooth="yes"/>
      <point x="266" y="858"/>
      <point x="321" y="838"/>
      <point x="370" y="838" type="curve" smooth="yes"/>
      <point x="393" y="838"/>
      <point x="412" y="841"/>
      <point x="427" y="845" type="curve" smooth="yes"/>
      <point x="435" y="847"/>
      <point x="443" y="849"/>
      <point x="450" y="852" type="curve"/>
      <point x="450" y="777" type="line"/>
      <point x="443" y="772"/>
      <point x="435" y="768"/>
      <point x="427" y="765" type="curve" smooth="yes"/>
      <point x="412" y="758"/>
      <point x="393" y="754"/>
      <point x="370" y="754" type="curve" smooth="yes"/>
      <point x="321" y="754"/>
      <point x="266" y="774"/>
      <point x="217" y="774" type="curve" smooth="yes"/>
      <point x="194" y="774"/>
      <point x="175" y="770"/>
      <point x="160" y="767" type="curve"/>
      <point x="152" y="764"/>
      <point x="144" y="762"/>
      <point x="137" y="760" type="curve"/>
    </contour>
  </outline>
</glyph>
<glyph name="Adieresis" format="1">
  <advance width="606"/>
  <unicode hex="00C4"/>
  <outline>
    <contour>
      <point x="255" y="677" type="line"/>
      <point x="351" y="677" type="line"/>
      <point x="611" y="0" type="line"/>
      <point x="483" y="0" type="line"/>
      <point x="421" y="177" type="line"/>
      <point x="178" y="177" type="line"/>
      <point x="115" y="0" type="line"/>
      <point x="-5" y="0" type="line"/>
    </contour>
    <contour>
      <point x="390" y="266" type="line"/>
      <point x="349" y="383"/>
      <point x="317" y="487"/>
      <point x="301" y="543" type="curve"/>
      <point x="282" y="483"/>
      <point x="251" y="381"/>
      <point x="210" y="266" type="curve"/>
    </contour>
    <contour>
      <point x="204" y="875" type="curve" smooth="yes"/>
      <point x="243" y="875"/>
      <point x="265" y="848"/>
      <point x="265" y="812" type="curve" smooth="yes"/>
      <point x="265" y="775"/>
      <point x="244" y="747"/>
      <point x="201" y="747" type="curve" smooth="yes"/>
      <point x="162" y="747"/>
      <point x="140" y="774"/>
      <point x="140" y="809" type="curve" smooth="yes"/>
      <point x="140" y="848"/>
      <point x="161" y="875"/>
    </contour>
    <contour>
      <point x="404" y="875" type="curve" smooth="yes"/>
      <point x="443" y="875"/>
      <point x="465" y="848"/>
      <point x="465" y="812" type="curve" smooth="yes"/>
      <point x="465" y="775"/>
      <point x="444" y="747"/>
      <point x="401" y="747" type="curve" smooth="yes"/>
      <point x="362" y="747"/>
      <point x="340" y="774"/>
      <point x="340" y="809" type="curve" smooth="yes"/>
      <point x="340" y="848"/>
      <point x="361" y="875"/>
    </contour>
  </outline>
</glyph>
<glyph name="Aring" format="1">
  <advance width="606"/>
  <unicode hex="00C5"/>
  <outline>
    <contour>
      <point x="255" y="677" type="line"/>
      <point x="351" y="677" type="line"/>
      <point x="611" y="0" type="line"/>
      <point x="483" y="0" type="line"/>
      <point x="421" y="177" type="line"/>
      <point x="178" y="177" type="line"/>
      <point x="115" y="0" type="line"/>
      <point x="-5" y="0" type="line"/>
    </contour>
    <contour>
      <point x="390" y="266" type="line"/>
      <point x="349" y="383"/>
      <point x="317" y="487"/>
      <point x="301" y="543" type="curve"/>
      <point x="282" y="483"/>
      <point x="251" y="381"/>
      <point x="210" y="266" type="curve"/>
    </contour>
    <contour>
      <point x="203" y="727" type="curve" smooth="yes"/>
      <point x="203" y="786"/>
      <point x="245" y="828"/>
      <point x="304" y="828" type="curve" smooth="yes"/>
      <point x="361" y="828"/>
      <point x="402" y="786"/>
      <point x="402" y="727" type="curve" smooth="yes"/>
      <point x="402" y="670"/>
      <point x="360" y="626"/>
      <point x="301" y="626" type="curve" smooth="yes"/>
      <point x="244" y="626"/>
      <point x="203" y="670"/>
    </contour>
    <contour>
      <point x="259" y="728" type="curve" smooth="yes"/>
      <point x="259" y="697"/>
      <point x="275" y="676"/>
      <point x="302" y="676" type="curve" smooth="yes"/>
      <point x="330" y="676"/>
      <point x="346" y="695"/>
      <point x="346" y="727" type="curve" smooth="yes"/>
      <point x="346" y="758"/>
      <point x="330" y="777"/>
      <point x="302" y="777" type="curve" smooth="yes"/>
      <point x="273" y="777"/>
      <point x="259" y="761"/>
    </contour>
  </outline>
</glyph>
<glyph name="AE" format="1">
  <advance width="877"/>
  <unicode hex="00C6"/>
  <outline>
    <contour>
      <point x="405" y="677" type="line"/>
      <point x="837" y="677" type="line"/>
      <point x="837" y="586" type="line"/>
      <point x="554" y="586" type="line"/>
      <point x="554" y="398" type="line"/>
      <point x="787" y="398" type="line"/>
      <point x="772" y="307" type="line"/>
      <point x="554" y="307" type="line"/>
      <point x="554" y="91" type="line"/>
      <point x="852" y="91" type="line"/>
      <point x="852" y="0" type="line"/>
      <point x="436" y="0" type="line"/>
      <point x="436" y="177" type="line"/>
      <point x="235" y="177" type="line"/>
      <point x="134" y="0" type="line"/>
      <point x="-5" y="0" type="line"/>
    </contour>
    <contour>
      <point x="286" y="266" type="line"/>
      <point x="436" y="266" type="line"/>
      <point x="436" y="554" type="line"/>
      <point x="401" y="484"/>
      <point x="349" y="375"/>
      <point x="298" y="287" type="curve" smooth="yes"/>
    </contour>
  </outline>
</glyph>
<glyph name="Ccedilla" format="1">
  <advance width="524"/>
  <unicode hex="00C7"/>
  <outline>
    <contour>
      <point x="442" y="540" type="line"/>
      <point x="410" y="575"/>
      <point x="377" y="593"/>
      <point x="330" y="593" type="curve" smooth="yes"/>
      <point x="217" y="593"/>
      <point x="177" y="482"/>
      <point x="177" y="341" type="curve" smooth="yes"/>
      <point x="177" y="201"/>
      <point x="212" y="87"/>
      <point x="340" y="87" type="curve" smooth="yes"/>
      <point x="400" y="87"/>
      <point x="456" y="110"/>
      <point x="466" y="113" type="curve"/>
      <point x="494" y="28" type="line"/>
      <point x="481" y="23"/>
      <point x="468" y="18"/>
      <point x="453" y="14" type="curve" smooth="yes"/>
      <point x="426" y="6"/>
      <point x="393" y="-2"/>
      <point x="350" y="-5" type="curve"/>
      <point x="341" y="-47" type="line"/>
      <point x="393" y="-51"/>
      <point x="431" y="-77"/>
      <point x="431" y="-126" type="curve" smooth="yes"/>
      <point x="431" y="-198"/>
      <point x="369" y="-219"/>
      <point x="313" y="-219" type="curve" smooth="yes"/>
      <point x="280" y="-219"/>
      <point x="249" y="-212"/>
      <point x="226" y="-201" type="curve"/>
      <point x="242" y="-147" type="line"/>
      <point x="257" y="-152"/>
      <point x="283" y="-160"/>
      <point x="306" y="-160" type="curve" smooth="yes"/>
      <point x="342" y="-160"/>
      <point x="356" y="-149"/>
      <point x="356" y="-129" type="curve" smooth="yes"/>
      <point x="356" y="-98"/>
      <point x="303" y="-85"/>
      <point x="264" y="-85" type="curve"/>
      <point x="284" y="-4" type="line"/>
      <point x="127" y="9"/>
      <point x="47" y="125"/>
      <point x="47" y="330" type="curve" smooth="yes"/>
      <point x="47" y="541"/>
      <point x="142" y="686"/>
      <point x="342" y="686" type="curve" smooth="yes"/>
      <point x="423" y="686"/>
      <point x="472" y="651"/>
      <point x="504" y="614" type="curve"/>
    </contour>
  </outline>
</glyph>
<glyph name="Egrave" format="1">
  <advance width="513"/>
  <unicode hex="00C8"/>
  <outline>
    <contour>
      <point x="70" y="677" type="line"/>
      <point x="473" y="677" type="line"/>
      <point x="473" y="586" type="line"/>
      <point x="190" y="586" type="line"/>
      <point x="190" y="398" type="line"/>
      <point x="423" y="398" type="line"/>
      <point x="408" y="307" type="line"/>
      <point x="190" y="307" type="line"/>
      <point x="190" y="91" type="line"/>
      <point x="488" y="91" type="line"/>
      <point x="488" y="0" type="line"/>
      <point x="70" y="0" type="line"/>
    </contour>
    <contour>
      <point x="341" y="718" type="line"/>
      <point x="310" y="727"/>
      <point x="280" y="737"/>
      <point x="250" y="750" type="curve" smooth="yes"/>
      <point x="199" y="771"/>
      <point x="137" y="804"/>
      <point x="90" y="847" type="curve"/>
      <point x="144" y="929" type="line"/>
      <point x="370" y="777" type="line"/>
    </contour>
  </outline>
</glyph>
<glyph name="Ecircumflex" format="1">
  <advance width="513"/>
  <unicode hex="00CA"/>
  <outline>
    <contour>
      <point x="70" y="677" type="line"/>
      <point x="473" y="677" type="line"/>
      <point x="473" y="586" type="line"/>
      <point x="190" y="586" type="line"/>
      <point x="190" y="398" type="line"/>
      <point x="423" y="398" type="line"/>
      <point x="408" y="307" type="line"/>
      <point x="190" y="307" type="line"/>
      <point x="190" y="91" type="line"/>
      <point x="488" y="91" type="line"/>
      <point x="488" y="0" type="line"/>
      <point x="70" y="0" type="line"/>
    </contour>
    <contour>
      <point x="86" y="772" type="line"/>
      <point x="284" y="930" type="line"/>
      <point x="482" y="772" type="line"/>
      <point x="438" y="718" type="line"/>
      <point x="423" y="725"/>
      <point x="407" y="732"/>
      <point x="390" y="741" type="curve" smooth="yes"/>
      <point x="361" y="756"/>
      <point x="323" y="779"/>
      <point x="284" y="808" type="curve"/>
      <point x="244" y="779"/>
      <point x="206" y="756"/>
      <point x="177" y="741" type="curve" smooth="yes"/>
      <point x="160" y="732"/>
      <point x="144" y="725"/>
      <point x="130" y="718" type="curve"/>
    </contour>
  </outline>
</glyph>
<glyph name="Edieresis" format="1">
  <advance width="513"/>
  <unicode hex="00CB"/>
  <outline>
    <contour>
      <point x="70" y="677" type="line"/>
      <point x="473" y="677" type="line"/>
      <point x="473" y="586" type="line"/>
      <point x="190" y="586" type="line"/>
      <point x="190" y="398" type="line"/>
      <point x="423" y="398" type="line"/>
      <point x="408" y="307" type="line"/>
      <point x="190" y="307" type="line"/>
      <point x="190" y="91" type="line"/>
      <point x="488" y="91" type="line"/>
      <point x="488" y="0" type="line"/>
      <point x="70" y="0" type="line"/>
    </contour>
    <contour>
      <point x="158" y="875" type="curve" smooth="yes"/>
      <point x="197" y="875"/>
      <point x="219" y="848"/>
      <point x="219" y="812" type="curve" smooth="yes"/>
      <point x="219" y="775"/>
      <point x="198" y="747"/>
      <point x="155" y="747" type="curve" smooth="yes"/>
      <point x="116" y="747"/>
      <point x="94" y="774"/>
      <point x="94" y="809" type="curve" smooth="yes"/>
      <point x="94" y="848"/>
      <point x="115" y="875"/>
    </contour>
    <contour>
      <point x="358" y="875" type="curve" smooth="yes"/>
      <point x="397" y="875"/>
      <point x="419" y="848"/>
      <point x="419" y="812" type="curve" smooth="yes"/>
      <point x="419" y="775"/>
      <point x="398" y="747"/>
      <point x="355" y="747" type="curve" smooth="yes"/>
      <point x="316" y="747"/>
      <point x="294" y="774"/>
      <point x="294" y="809" type="curve" smooth="yes"/>
      <point x="294" y="848"/>
      <point x="315" y="875"/>
    </contour>
  </outline>
</glyph>
<glyph name="Igrave" format="1">
  <advance width="260"/>
  <unicode hex="00CC"/>
  <outline>
    <contour>
      <point x="70" y="677" type="line"/>
      <point x="190" y="677" type="line"/>
      <point x="190" y="0" type="line"/>
      <point x="70" y="0" type="line"/>
    </contour>
    <contour>
      <point x="188" y="718" type="line"/>
      <point x="157" y="727"/>
      <point x="127" y="737"/>
      <point x="97" y="750" type="curve" smooth="yes"/>
      <point x="46" y="771"/>
      <point x="-16" y="804"/>
      <point x="-63" y="847" type="curve"/>
      <point x="-9" y="929" type="line"/>
      <point x="217" y="777" type="line"/>
    </contour>
  </outline>
</glyph>
<glyph name="Iacute" format="1">
  <advance width="260"/>
  <unicode hex="00CD"/>
  <outline>
    <contour>
      <point x="70" y="677" type="line"/>
      <point x="190" y="677" type="line"/>
      <point x="190" y="0" type="line"/>
      <point x="70" y="0" type="line"/>
    </contour>
    <contour>
      <point x="42" y="777" type="line"/>
      <point x="268" y="929" type="line"/>
      <point x="322" y="847" type="line"/>
      <point x="275" y="804"/>
      <point x="213" y="771"/>
      <point x="162" y="750" type="curve" smooth="yes"/>
      <point x="132" y="737"/>
      <point x="102" y="727"/>
      <point x="71" y="718" type="curve"/>
    </contour>
  </outline>
</glyph>
<glyph name="Icircumflex" format="1">
  <advance width="260"/>
  <unicode hex="00CE"/>
  <outline>
    <contour>
      <point x="70" y="677" type="line"/>
      <point x="190" y="677" type="line"/>
      <point x="190" y="0" type="line"/>
      <point x="70" y="0" type="line"/>
    </contour>
    <contour>
      <point x="-67" y="772" type="line"/>
      <point x="131" y="930" type="line"/>
      <point x="329" y="772" type="line"/>
      <point x="285" y="718" type="line"/>
      <point x="270" y="725"/>
      <point x="254" y="732"/>
      <point x="237" y="741" type="curve" smooth="yes"/>
      <point x="208" y="756"/>
      <point x="170" y="779"/>
      <point x="131" y="808" type="curve"/>
      <point x="91" y="779"/>
      <point x="53" y="756"/>
      <point x="24" y="741" type="curve" smooth="yes"/>
      <point x="7" y="732"/>
      <point x="-9" y="725"/>
      <point x="-23" y="718" type="curve"/>
    </contour>
  </outline>
</glyph>
<glyph name="Idieresis" format="1">
  <advance width="260"/>
  <unicode hex="00CF"/>
  <outline>
    <contour>
      <point x="70" y="677" type="line"/>
      <point x="190" y="677" type="line"/>
      <point x="190" y="0" type="line"/>
      <point x="70" y="0" type="line"/>
    </contour>
    <contour>
      <point x="32" y="875" type="curve" smooth="yes"/>
      <point x="71" y="875"/>
      <point x="93" y="848"/>
      <point x="93" y="812" type="curve" smooth="yes"/>
      <point x="93" y="775"/>
      <point x="72" y="747"/>
      <point x="29" y="747" type="curve" smooth="yes"/>
      <point x="-10" y="747"/>
      <point x="-32" y="774"/>
      <point x="-32" y="809" type="curve" smooth="yes"/>
      <point x="-32" y="848"/>
      <point x="-11" y="875"/>
    </contour>
    <contour>
      <point x="232" y="875" type="curve" smooth="yes"/>
      <point x="271" y="875"/>
      <point x="293" y="848"/>
      <point x="293" y="812" type="curve" smooth="yes"/>
      <point x="293" y="775"/>
      <point x="272" y="747"/>
      <point x="229" y="747" type="curve" smooth="yes"/>
      <point x="190" y="747"/>
      <point x="168" y="774"/>
      <point x="168" y="809" type="curve" smooth="yes"/>
      <point x="168" y="848"/>
      <point x="189" y="875"/>
    </contour>
  </outline>
</glyph>
<glyph name="Ntilde" format="1">
  <advance width="660"/>
  <unicode hex="00D1"/>
  <outline>
    <contour>
      <point x="470" y="677" type="line"/>
      <point x="590" y="677" type="line"/>
      <point x="590" y="-1" type="line"/>
      <point x="490" y="-1" type="line"/>
      <point x="263" y="353" type="line" smooth="yes"/>
      <point x="238" y="392"/>
      <point x="206" y="445"/>
      <point x="179" y="486" type="curve"/>
      <point x="183" y="443"/>
      <point x="187" y="394"/>
      <point x="187" y="351" type="curve" smooth="yes"/>
      <point x="190" y="0" type="line"/>
      <point x="70" y="0" type="line"/>
      <point x="70" y="679" type="line"/>
      <point x="164" y="679" type="line"/>
      <point x="398" y="329" type="line" smooth="yes"/>
      <point x="425" y="290"/>
      <point x="454" y="244"/>
      <point x="479" y="205" type="curve"/>
      <point x="476" y="248"/>
      <point x="473" y="295"/>
      <point x="473" y="326" type="curve" smooth="yes"/>
    </contour>
    <contour>
      <point x="173" y="843" type="line"/>
      <point x="180" y="847"/>
      <point x="188" y="851"/>
      <point x="196" y="854" type="curve" smooth="yes"/>
      <point x="211" y="861"/>
      <point x="230" y="866"/>
      <point x="253" y="866" type="curve" smooth="yes"/>
      <point x="302" y="866"/>
      <point x="357" y="846"/>
      <point x="406" y="846" type="curve" smooth="yes"/>
      <point x="429" y="846"/>
      <point x="448" y="849"/>
      <point x="463" y="853" type="curve" smooth="yes"/>
      <point x="471" y="855"/>
      <point x="479" y="857"/>
      <point x="486" y="860" type="curve"/>
      <point x="486" y="785" type="line"/>
      <point x="479" y="780"/>
      <point x="471" y="776"/>
      <point x="463" y="773" type="curve" smooth="yes"/>
      <point x="448" y="766"/>
      <point x="429" y="762"/>
      <point x="406" y="762" type="curve" smooth="yes"/>
      <point x="357" y="762"/>
      <point x="302" y="782"/>
      <point x="253" y="782" type="curve" smooth="yes"/>
      <point x="230" y="782"/>
      <point x="211" y="778"/>
      <point x="196" y="775" type="curve"/>
      <point x="188" y="772"/>
      <point x="180" y="770"/>
      <point x="173" y="768" type="curve"/>
    </contour>
  </outline>
</glyph>
<glyph name="Ograve" format="1">
  <advance width="669"/>
  <unicode hex="00D2"/>
  <outline>
    <contour>
      <point x="341" y="686" type="curve" smooth="yes"/>
      <point x="541" y="686"/>
      <point x="624" y="555"/>
      <point x="624" y="344" type="curve" smooth="yes"/>
      <point x="624" y="136"/>
      <point x="532" y="-6"/>
      <point x="328" y="-6" type="curve" smooth="yes"/>
      <point x="128" y="-6"/>
      <point x="45" y="118"/>
      <point x="45" y="330" type="curve" smooth="yes"/>
      <point x="45" y="539"/>
      <point x="137" y="686"/>
    </contour>
    <contour>
      <point x="327" y="593" type="curve" smooth="yes"/>
      <point x="212" y="593"/>
      <point x="175" y="484"/>
      <point x="175" y="341" type="curve" smooth="yes"/>
      <point x="175" y="205"/>
      <point x="206" y="87"/>
      <point x="342" y="87" type="curve" smooth="yes"/>
      <point x="457" y="87"/>
      <point x="494" y="192"/>
      <point x="494" y="334" type="curve" smooth="yes"/>
      <point x="494" y="469"/>
      <point x="463" y="593"/>
    </contour>
    <contour>
      <point x="390" y="718" type="line"/>
      <point x="359" y="727"/>
      <point x="329" y="737"/>
      <point x="299" y="750" type="curve" smooth="yes"/>
      <point x="248" y="771"/>
      <point x="186" y="804"/>
      <point x="139" y="847" type="curve"/>
      <point x="193" y="929" type="line"/>
      <point x="419" y="777" type="line"/>
    </contour>
  </outline>
</glyph>
<glyph name="Oacute" format="1">
  <advance width="669"/>
  <unicode hex="00D3"/>
  <outline>
    <contour>
      <point x="341" y="686" type="curve" smooth="yes"/>
      <point x="541" y="686"/>
      <point x="624" y="555"/>
      <point x="624" y="344" type="curve" smooth="yes"/>
      <point x="624" y="136"/>
      <point x="532" y="-6"/>
      <point x="328" y="-6" type="curve" smooth="yes"/>
      <point x="128" y="-6"/>
      <point x="45" y="118"/>
      <point x="45" y="330" type="curve" smooth="yes"/>
      <point x="45" y="539"/>
      <point x="137" y="686"/>
    </contour>
    <contour>
      <point x="327" y="593" type="curve" smooth="yes"/>
      <point x="212" y="593"/>
      <point x="175" y="484"/>
      <point x="175" y="341" type="curve" smooth="yes"/>
      <point x="175" y="205"/>
      <point x="206" y="87"/>
      <point x="342" y="87" type="curve" smooth="yes"/>
      <point x="457" y="87"/>
      <point x="494" y="192"/>
      <point x="494" y="334" type="curve" smooth="yes"/>
      <point x="494" y="469"/>
      <point x="463" y="593"/>
    </contour>
    <contour>
      <point x="244" y="777" type="line"/>
      <point x="470" y="929" type="line"/>
      <point x="524" y="847" type="line"/>
      <point x="477" y="804"/>
      <point x="415" y="771"/>
      <point x="364" y="750" type="curve" smooth="yes"/>
      <point x="334" y="737"/>
      <point x="304" y="727"/>
      <point x="273" y="718" type="curve"/>
    </contour>
  </outline>
</glyph>
<glyph name="Ocircumflex" format="1">
  <advance width="669"/>
  <unicode hex="00D4"/>
  <outline>
    <contour>
      <point x="341" y="686" type="curve" smooth="yes"/>
      <point x="541" y="686"/>
      <point x="624" y="555"/>
      <point x="624" y="344" type="curve" smooth="yes"/>
      <point x="624" y="136"/>
      <point x="532" y="-6"/>
      <point x="328" y="-6" type="curve" smooth="yes"/>
      <point x="128" y="-6"/>
      <point x="45" y="118"/>
      <point x="45" y="330" type="curve" smooth="yes"/>
      <point x="45" y="539"/>
      <point x="137" y="686"/>
    </contour>
    <contour>
      <point x="327" y="593" type="curve" smooth="yes"/>
      <point x="212" y="593"/>
      <point x="175" y="484"/>
      <point x="175" y="341" type="curve" smooth="yes"/>
      <point x="175" y="205"/>
      <point x="206" y="87"/>
      <point x="342" y="87" type="curve" smooth="yes"/>
      <point x="457" y="87"/>
      <point x="494" y="192"/>
      <point x="494" y="334" type="curve" smooth="yes"/>
      <point x="494" y="469"/>
      <point x="463" y="593"/>
    </contour>
    <contour>
      <point x="135" y="772" type="line"/>
      <point x="333" y="930" type="line"/>
      <point x="531" y="772" type="line"/>
      <point x="487" y="718" type="line"/>
      <point x="472" y="725"/>
      <point x="456" y="732"/>
      <point x="439" y="741" type="curve" smooth="yes"/>
      <point x="410" y="756"/>
      <point x="372" y="779"/>
      <point x="333" y="808" type="curve"/>
      <point x="293" y="779"/>
      <point x="255" y="756"/>
      <point x="226" y="741" type="curve" smooth="yes"/>
      <point x="209" y="732"/>
      <point x="193" y="725"/>
      <point x="179" y="718" type="curve"/>
    </contour>
  </outline>
</glyph>
<glyph name="Otilde" format="1">
  <advance width="669"/>
  <unicode hex="00D5"/>
  <outline>
    <contour>
      <point x="341" y="686" type="curve" smooth="yes"/>
      <point x="541" y="686"/>
      <point x="624" y="555"/>
      <point x="624" y="344" type="curve" smooth="yes"/>
      <point x="624" y="136"/>
      <point x="532" y="-6"/>
      <point x="328" y="-6" type="curve" smooth="yes"/>
      <point x="128" y="-6"/>
      <point x="45" y="118"/>
      <point x="45" y="330" type="curve" smooth="yes"/>
      <point x="45" y="539"/>
      <point x="137" y="686"/>
    </contour>
    <contour>
      <point x="327" y="593" type="curve" smooth="yes"/>
      <point x="212" y="593"/>
      <point x="175" y="484"/>
      <point x="175" y="341" type="curve" smooth="yes"/>
      <point x="175" y="205"/>
      <point x="206" y="87"/>
      <point x="342" y="87" type="curve" smooth="yes"/>
      <point x="457" y="87"/>
      <point x="494" y="192"/>
      <point x="494" y="334" type="curve" smooth="yes"/>
      <point x="494" y="469"/>
      <point x="463" y="593"/>
    </contour>
    <contour>
      <point x="169" y="835" type="line"/>
      <point x="176" y="839"/>
      <point x="184" y="843"/>
      <point x="192" y="846" type="curve" smooth="yes"/>
      <point x="207" y="853"/>
      <point x="226" y="858"/>
      <point x="249" y="858" type="curve" smooth="yes"/>
      <point x="298" y="858"/>
      <point x="353" y="838"/>
      <point x="402" y="838" type="curve" smooth="yes"/>
      <point x="425" y="838"/>
      <point x="444" y="841"/>
      <point x="459" y="845" type="curve" smooth="yes"/>
      <point x="467" y="847"/>
      <point x="475" y="849"/>
      <point x="482" y="852" type="curve"/>
      <point x="482" y="777" type="line"/>
      <point x="475" y="772"/>
      <point x="467" y="768"/>
      <point x="459" y="765" type="curve" smooth="yes"/>
      <point x="444" y="758"/>
      <point x="425" y="754"/>
      <point x="402" y="754" type="curve" smooth="yes"/>
      <point x="353" y="754"/>
      <point x="298" y="774"/>
      <point x="249" y="774" type="curve" smooth="yes"/>
      <point x="226" y="774"/>
      <point x="207" y="770"/>
      <point x="192" y="767" type="curve"/>
      <point x="184" y="764"/>
      <point x="176" y="762"/>
      <point x="169" y="760" type="curve"/>
    </contour>
  </outline>
</glyph>
<glyph name="Odieresis" format="1">
  <advance width="669"/>
  <unicode hex="00D6"/>
  <outline>
    <contour>
      <point x="341" y="686" type="curve" smooth="yes"/>
      <point x="541" y="686"/>
      <point x="624" y="555"/>
      <point x="624" y="344" type="curve" smooth="yes"/>
      <point x="624" y="136"/>
      <point x="532" y="-6"/>
      <point x="328" y="-6" type="curve" smooth="yes"/>
      <point x="128" y="-6"/>
      <point x="45" y="118"/>
      <point x="45" y="330" type="curve" smooth="yes"/>
      <point x="45" y="539"/>
      <point x="137" y="686"/>
    </contour>
    <contour>
      <point x="327" y="593" type="curve" smooth="yes"/>
      <point x="212" y="593"/>
      <point x="175" y="484"/>
      <point x="175" y="341" type="curve" smooth="yes"/>
      <point x="175" y="205"/>
      <point x="206" y="87"/>
      <point x="342" y="87" type="curve" smooth="yes"/>
      <point x="457" y="87"/>
      <point x="494" y="192"/>
      <point x="494" y="334" type="curve" smooth="yes"/>
      <point x="494" y="469"/>
      <point x="463" y="593"/>
    </contour>
    <contour>
      <point x="236" y="875" type="curve" smooth="yes"/>
      <point x="275" y="875"/>
      <point x="297" y="848"/>
      <point x="297" y="812" type="curve" smooth="yes"/>
      <point x="297" y="775"/>
      <point x="276" y="747"/>
      <point x="233" y="747" type="curve" smooth="yes"/>
      <point x="194" y="747"/>
      <point x="172" y="774"/>
      <point x="172" y="809" type="curve" smooth="yes"/>
      <point x="172" y="848"/>
      <point x="193" y="875"/>
    </contour>
    <contour>
      <point x="436" y="875" type="curve" smooth="yes"/>
      <point x="475" y="875"/>
      <point x="497" y="848"/>
      <point x="497" y="812" type="curve" smooth="yes"/>
      <point x="497" y="775"/>
      <point x="476" y="747"/>
      <point x="433" y="747" type="curve" smooth="yes"/>
      <point x="394" y="747"/>
      <point x="372" y="774"/>
      <point x="372" y="809" type="curve" smooth="yes"/>
      <point x="372" y="848"/>
      <point x="393" y="875"/>
    </contour>
  </outline>
</glyph>
<glyph name="multiply" format="1">
  <advance width="516"/>
  <unicode hex="00D7"/>
  <outline>
    <contour>
      <point x="128" y="495" type="line"/>
      <point x="256" y="366" type="line"/>
      <point x="387" y="497" type="line"/>
      <point x="453" y="430" type="line"/>
      <point x="323" y="300" type="line"/>
      <point x="456" y="167" type="line"/>
      <point x="395" y="104" type="line"/>
      <point x="261" y="238" type="line"/>
      <point x="126" y="103" type="line"/>
      <point x="60" y="170" type="line"/>
      <point x="194" y="304" type="line"/>
      <point x="67" y="432" type="line"/>
    </contour>
  </outline>
</glyph>
<glyph name="Oslash" format="1">
  <advance width="669"/>
  <unicode hex="00D8"/>
  <outline>
    <contour>
      <point x="341" y="686" type="curve" smooth="yes"/>
      <point x="368" y="686"/>
      <point x="392" y="684"/>
      <point x="413" y="679" type="curve"/>
      <point x="439" y="742" type="line"/>
      <point x="539" y="702" type="line"/>
      <point x="513" y="637" type="line"/>
      <point x="590" y="581"/>
      <point x="624" y="480"/>
      <point x="624" y="344" type="curve" smooth="yes"/>
      <point x="624" y="136"/>
      <point x="532" y="-6"/>
      <point x="328" y="-6" type="curve" smooth="yes"/>
      <point x="301" y="-6"/>
      <point x="277" y="-4"/>
      <point x="254" y="0" type="curve"/>
      <point x="229" y="-63" type="line"/>
      <point x="130" y="-23" type="line"/>
      <point x="155" y="40" type="line"/>
      <point x="78" y="95"/>
      <point x="45" y="193"/>
      <point x="45" y="330" type="curve" smooth="yes"/>
      <point x="45" y="539"/>
      <point x="137" y="686"/>
    </contour>
    <contour>
      <point x="494" y="334" type="curve" smooth="yes"/>
      <point x="494" y="405"/>
      <point x="488" y="469"/>
      <point x="464" y="516" type="curve"/>
      <point x="292" y="92" type="line"/>
      <point x="307" y="89"/>
      <point x="323" y="87"/>
      <point x="342" y="87" type="curve" smooth="yes"/>
      <point x="457" y="87"/>
      <point x="494" y="192"/>
    </contour>
    <contour>
      <point x="327" y="593" type="curve" smooth="yes"/>
      <point x="212" y="593"/>
      <point x="175" y="484"/>
      <point x="175" y="341" type="curve" smooth="yes"/>
      <point x="175" y="270"/>
      <point x="181" y="209"/>
      <point x="204" y="162" type="curve"/>
      <point x="376" y="587" type="line"/>
      <point x="362" y="591"/>
      <point x="346" y="593"/>
    </contour>
  </outline>
</glyph>
<glyph name="Ugrave" format="1">
  <advance width="636"/>
  <unicode hex="00D9"/>
  <outline>
    <contour>
      <point x="179" y="677" type="line"/>
      <point x="179" y="259" type="line" smooth="yes"/>
      <point x="179" y="135"/>
      <point x="235" y="87"/>
      <point x="324" y="87" type="curve" smooth="yes"/>
      <point x="413" y="87"/>
      <point x="456" y="151"/>
      <point x="456" y="259" type="curve" smooth="yes"/>
      <point x="456" y="677" type="line"/>
      <point x="576" y="677" type="line"/>
      <point x="576" y="250" type="line" smooth="yes"/>
      <point x="576" y="111"/>
      <point x="509" y="-6"/>
      <point x="311" y="-6" type="curve" smooth="yes"/>
      <point x="122" y="-6"/>
      <point x="60" y="111"/>
      <point x="60" y="250" type="curve" smooth="yes"/>
      <point x="60" y="677" type="line"/>
    </contour>
    <contour>
      <point x="376" y="718" type="line"/>
      <point x="345" y="727"/>
      <point x="315" y="737"/>
      <point x="285" y="750" type="curve" smooth="yes"/>
      <point x="234" y="771"/>
      <point x="172" y="804"/>
      <point x="125" y="847" type="curve"/>
      <point x="179" y="929" type="line"/>
      <point x="405" y="777" type="line"/>
    </contour>
  </outline>
</glyph>
<glyph name="Uacute" format="1">
  <advance width="636"/>
  <unicode hex="00DA"/>
  <outline>
    <contour>
      <point x="179" y="677" type="line"/>
      <point x="179" y="259" type="line" smooth="yes"/>
      <point x="179" y="135"/>
      <point x="235" y="87"/>
      <point x="324" y="87" type="curve" smooth="yes"/>
      <point x="413" y="87"/>
      <point x="456" y="151"/>
      <point x="456" y="259" type="curve" smooth="yes"/>
      <point x="456" y="677" type="line"/>
      <point x="576" y="677" type="line"/>
      <point x="576" y="250" type="line" smooth="yes"/>
      <point x="576" y="111"/>
      <point x="509" y="-6"/>
      <point x="311" y="-6" type="curve" smooth="yes"/>
      <point x="122" y="-6"/>
      <point x="60" y="111"/>
      <point x="60" y="250" type="curve" smooth="yes"/>
      <point x="60" y="677" type="line"/>
    </contour>
    <contour>
      <point x="230" y="777" type="line"/>
      <point x="456" y="929" type="line"/>
      <point x="510" y="847" type="line"/>
      <point x="463" y="804"/>
      <point x="401" y="771"/>
      <point x="350" y="750" type="curve" smooth="yes"/>
      <point x="320" y="737"/>
      <point x="290" y="727"/>
      <point x="259" y="718" type="curve"/>
    </contour>
  </outline>
</glyph>
<glyph name="Ucircumflex" format="1">
  <advance width="636"/>
  <unicode hex="00DB"/>
  <outline>
    <contour>
      <point x="179" y="677" type="line"/>
      <point x="179" y="259" type="line" smooth="yes"/>
      <point x="179" y="135"/>
      <point x="235" y="87"/>
      <point x="324" y="87" type="curve" smooth="yes"/>
      <point x="413" y="87"/>
      <point x="456" y="151"/>
      <point x="456" y="259" type="curve" smooth="yes"/>
      <point x="456" y="677" type="line"/>
      <point x="576" y="677" type="line"/>
      <point x="576" y="250" type="line" smooth="yes"/>
      <point x="576" y="111"/>
      <point x="509" y="-6"/>
      <point x="311" y="-6" type="curve" smooth="yes"/>
      <point x="122" y="-6"/>
      <point x="60" y="111"/>
      <point x="60" y="250" type="curve" smooth="yes"/>
      <point x="60" y="677" type="line"/>
    </contour>
    <contour>
      <point x="121" y="772" type="line"/>
      <point x="319" y="930" type="line"/>
      <point x="517" y="772" type="line"/>
      <point x="473" y="718" type="line"/>
      <point x="458" y="725"/>
      <point x="442" y="732"/>
      <point x="425" y="741" type="curve" smooth="yes"/>
      <point x="396" y="756"/>
      <point x="358" y="779"/>
      <point x="319" y="808" type="curve"/>
      <point x="279" y="779"/>
      <point x="241" y="756"/>
      <point x="212" y="741" type="curve" smooth="yes"/>
      <point x="195" y="732"/>
      <point x="179" y="725"/>
      <point x="165" y="718" type="curve"/>
    </contour>
  </outline>
</glyph>
<glyph name="Udieresis" format="1">
  <advance width="636"/>
  <unicode hex="00DC"/>
  <outline>
    <contour>
      <point x="179" y="677" type="line"/>
      <point x="179" y="259" type="line" smooth="yes"/>
      <point x="179" y="135"/>
      <point x="235" y="87"/>
      <point x="324" y="87" type="curve" smooth="yes"/>
      <point x="413" y="87"/>
      <point x="456" y="151"/>
      <point x="456" y="259" type="curve" smooth="yes"/>
      <point x="456" y="677" type="line"/>
      <point x="576" y="677" type="line"/>
      <point x="576" y="250" type="line" smooth="yes"/>
      <point x="576" y="111"/>
      <point x="509" y="-6"/>
      <point x="311" y="-6" type="curve" smooth="yes"/>
      <point x="122" y="-6"/>
      <point x="60" y="111"/>
      <point x="60" y="250" type="curve" smooth="yes"/>
      <point x="60" y="677" type="line"/>
    </contour>
    <contour>
      <point x="219" y="875" type="curve" smooth="yes"/>
      <point x="258" y="875"/>
      <point x="280" y="848"/>
      <point x="280" y="812" type="curve" smooth="yes"/>
      <point x="280" y="775"/>
      <point x="259" y="747"/>
      <point x="216" y="747" type="curve" smooth="yes"/>
      <point x="177" y="747"/>
      <point x="155" y="774"/>
      <point x="155" y="809" type="curve" smooth="yes"/>
      <point x="155" y="848"/>
      <point x="176" y="875"/>
    </contour>
    <contour>
      <point x="419" y="875" type="curve" smooth="yes"/>
      <point x="458" y="875"/>
      <point x="480" y="848"/>
      <point x="480" y="812" type="curve" smooth="yes"/>
      <point x="480" y="775"/>
      <point x="459" y="747"/>
      <point x="416" y="747" type="curve" smooth="yes"/>
      <point x="377" y="747"/>
      <point x="355" y="774"/>
      <point x="355" y="809" type="curve" smooth="yes"/>
      <point x="355" y="848"/>
      <point x="376" y="875"/>
    </contour>
  </outline>
</glyph>
<glyph name="Yacute" format="1">
  <advance width="544"/>
  <unicode hex="00DD"/>
  <outline>
    <contour>
      <point x="210" y="259" type="line"/>
      <point x="0" y="677" type="line"/>
      <point x="130" y="677" type="line"/>
      <point x="272" y="372" type="line"/>
      <point x="416" y="677" type="line"/>
      <point x="544" y="677" type="line"/>
      <point x="330" y="254" type="line"/>
      <point x="330" y="0" type="line"/>
      <point x="210" y="0" type="line"/>
    </contour>
    <contour>
      <point x="186" y="777" type="line"/>
      <point x="412" y="929" type="line"/>
      <point x="466" y="847" type="line"/>
      <point x="419" y="804"/>
      <point x="357" y="771"/>
      <point x="306" y="750" type="curve" smooth="yes"/>
      <point x="276" y="737"/>
      <point x="246" y="727"/>
      <point x="215" y="718" type="curve"/>
    </contour>
  </outline>
</glyph>
<glyph name="Thorn" format="1">
  <advance width="537"/>
  <unicode hex="00DE"/>
  <outline>
    <contour>
      <point x="70" y="677" type="line"/>
      <point x="190" y="677" type="line"/>
      <point x="190" y="555" type="line"/>
      <point x="221" y="556"/>
      <point x="250" y="556"/>
      <point x="271" y="556" type="curve" smooth="yes"/>
      <point x="436" y="556"/>
      <point x="512" y="481"/>
      <point x="512" y="352" type="curve" smooth="yes"/>
      <point x="512" y="225"/>
      <point x="427" y="142"/>
      <point x="259" y="142" type="curve" smooth="yes"/>
      <point x="190" y="142" type="line"/>
      <point x="190" y="0" type="line"/>
      <point x="70" y="0" type="line"/>
    </contour>
    <contour>
      <point x="256" y="470" type="curve" smooth="yes"/>
      <point x="228" y="470"/>
      <point x="206" y="470"/>
      <point x="190" y="469" type="curve"/>
      <point x="190" y="231" type="line"/>
      <point x="266" y="231" type="line" smooth="yes"/>
      <point x="349" y="231"/>
      <point x="382" y="281"/>
      <point x="382" y="348" type="curve" smooth="yes"/>
      <point x="382" y="409"/>
      <point x="353" y="470"/>
    </contour>
  </outline>
</glyph>
<glyph name="germandbls" format="1">
  <advance width="579"/>
  <unicode hex="00DF"/>
  <outline>
    <contour>
      <point x="210" y="25" type="line" smooth="yes"/>
      <point x="210" y="-134"/>
      <point x="118" y="-183"/>
      <point x="38" y="-223" type="curve"/>
      <point x="-5" y="-154" type="line"/>
      <point x="95" y="-103"/>
      <point x="95" y="-28"/>
      <point x="95" y="14" type="curve" smooth="yes"/>
      <point x="95" y="479" type="line" smooth="yes"/>
      <point x="95" y="589"/>
      <point x="138" y="703"/>
      <point x="283" y="722" type="curve"/>
      <point x="439" y="741"/>
      <point x="507" y="666"/>
      <point x="507" y="585" type="curve" smooth="yes"/>
      <point x="507" y="470"/>
      <point x="392" y="460"/>
      <point x="392" y="402" type="curve" smooth="yes"/>
      <point x="392" y="311"/>
      <point x="549" y="315"/>
      <point x="549" y="152" type="curve" smooth="yes"/>
      <point x="549" y="58"/>
      <point x="475" y="-7"/>
      <point x="364" y="-7" type="curve" smooth="yes"/>
      <point x="332" y="-7"/>
      <point x="300" y="2"/>
      <point x="276" y="11" type="curve" smooth="yes"/>
      <point x="262" y="16"/>
      <point x="249" y="23"/>
      <point x="237" y="30" type="curve"/>
      <point x="271" y="106" type="line"/>
      <point x="280" y="101"/>
      <point x="289" y="96"/>
      <point x="298" y="93" type="curve" smooth="yes"/>
      <point x="314" y="86"/>
      <point x="333" y="80"/>
      <point x="349" y="80" type="curve" smooth="yes"/>
      <point x="401" y="80"/>
      <point x="432" y="100"/>
      <point x="432" y="144" type="curve" smooth="yes"/>
      <point x="432" y="237"/>
      <point x="284" y="226"/>
      <point x="284" y="382" type="curve" smooth="yes"/>
      <point x="284" y="482"/>
      <point x="392" y="505"/>
      <point x="392" y="575" type="curve" smooth="yes"/>
      <point x="392" y="624"/>
      <point x="345" y="639"/>
      <point x="300" y="636" type="curve"/>
      <point x="230" y="628"/>
      <point x="210" y="563"/>
      <point x="210" y="486" type="curve" smooth="yes"/>
    </contour>
  </outline>
</glyph>
<glyph name="agrave" format="1">
  <advance width="536"/>
  <unicode hex="00E0"/>
  <outline>
    <contour>
      <point x="467" y="241" type="line" smooth="yes"/>
      <point x="467" y="161"/>
      <point x="479" y="108"/>
      <point x="491" y="75" type="curve" smooth="yes"/>
      <point x="498" y="55"/>
      <point x="507" y="39"/>
      <point x="516" y="28" type="curve"/>
      <point x="425" y="-8" type="line"/>
      <point x="417" y="1"/>
      <point x="409" y="11"/>
      <point x="402" y="23" type="curve" smooth="yes"/>
      <point x="390" y="43"/>
      <point x="377" y="74"/>
      <point x="374" y="114" type="curve"/>
      <point x="351" y="34"/>
      <point x="304" y="-6"/>
      <point x="219" y="-6" type="curve" smooth="yes"/>
      <point x="94" y="-6"/>
      <point x="35" y="92"/>
      <point x="35" y="242" type="curve" smooth="yes"/>
      <point x="35" y="394"/>
      <point x="133" y="506"/>
      <point x="274" y="506" type="curve" smooth="yes"/>
      <point x="314" y="506"/>
      <point x="361" y="498"/>
      <point x="400" y="491" type="curve" smooth="yes"/>
      <point x="422" y="487"/>
      <point x="444" y="482"/>
      <point x="467" y="477" type="curve"/>
    </contour>
    <contour>
      <point x="238" y="75" type="curve" smooth="yes"/>
      <point x="303" y="75"/>
      <point x="352" y="173"/>
      <point x="352" y="271" type="curve" smooth="yes"/>
      <point x="352" y="414" type="line"/>
      <point x="339" y="417"/>
      <point x="307" y="425"/>
      <point x="287" y="425" type="curve" smooth="yes"/>
      <point x="188" y="425"/>
      <point x="159" y="352"/>
      <point x="159" y="252" type="curve" smooth="yes"/>
      <point x="159" y="160"/>
      <point x="166" y="75"/>
    </contour>
    <contour>
      <point x="328" y="539" type="line"/>
      <point x="305" y="554"/>
      <point x="282" y="570"/>
      <point x="259" y="587" type="curve" smooth="yes"/>
      <point x="219" y="618"/>
      <point x="169" y="660"/>
      <point x="130" y="709" type="curve"/>
      <point x="207" y="781" type="line"/>
      <point x="377" y="591" type="line"/>
    </contour>
  </outline>
</glyph>
<glyph name="acircumflex" format="1">
  <advance width="536"/>
  <unicode hex="00E2"/>
  <outline>
    <contour>
      <point x="467" y="241" type="line" smooth="yes"/>
      <point x="467" y="161"/>
      <point x="479" y="108"/>
      <point x="491" y="75" type="curve" smooth="yes"/>
      <point x="498" y="55"/>
      <point x="507" y="39"/>
      <point x="516" y="28" type="curve"/>
      <point x="425" y="-8" type="line"/>
      <point x="417" y="1"/>
      <point x="409" y="11"/>
      <point x="402" y="23" type="curve" smooth="yes"/>
      <point x="390" y="43"/>
      <point x="377" y="74"/>
      <point x="374" y="114" type="curve"/>
      <point x="351" y="34"/>
      <point x="304" y="-6"/>
      <point x="219" y="-6" type="curve" smooth="yes"/>
      <point x="94" y="-6"/>
      <point x="35" y="92"/>
      <point x="35" y="242" type="curve" smooth="yes"/>
      <point x="35" y="394"/>
      <point x="133" y="506"/>
      <point x="274" y="506" type="curve" smooth="yes"/>
      <point x="314" y="506"/>
      <point x="361" y="498"/>
      <point x="400" y="491" type="curve" smooth="yes"/>
      <point x="422" y="487"/>
      <point x="444" y="482"/>
      <point x="467" y="477" type="curve"/>
    </contour>
    <contour>
      <point x="238" y="75" type="curve" smooth="yes"/>
      <point x="303" y="75"/>
      <point x="352" y="173"/>
      <point x="352" y="271" type="curve" smooth="yes"/>
      <point x="352" y="414" type="line"/>
      <point x="339" y="417"/>
      <point x="307" y="425"/>
      <point x="287" y="425" type="curve" smooth="yes"/>
      <point x="188" y="425"/>
      <point x="159" y="352"/>
      <point x="159" y="252" type="curve" smooth="yes"/>
      <point x="159" y="160"/>
      <point x="166" y="75"/>
    </contour>
    <contour>
      <point x="80" y="593" type="line"/>
      <point x="268" y="781" type="line"/>
      <point x="456" y="593" type="line"/>
      <point x="412" y="539" type="line"/>
      <point x="399" y="546"/>
      <point x="384" y="555"/>
      <point x="368" y="566" type="curve" smooth="yes"/>
      <point x="341" y="585"/>
      <point x="305" y="610"/>
      <point x="268" y="642" type="curve"/>
      <point x="229" y="609"/>
      <point x="194" y="585"/>
      <point x="167" y="566" type="curve" smooth="yes"/>
      <point x="151" y="555"/>
      <point x="137" y="546"/>
      <point x="124" y="539" type="curve"/>
    </contour>
  </outline>
</glyph>
<glyph name="atilde" format="1">
  <advance width="536"/>
  <unicode hex="00E3"/>
  <outline>
    <contour>
      <point x="467" y="241" type="line" smooth="yes"/>
      <point x="467" y="161"/>
      <point x="479" y="108"/>
      <point x="491" y="75" type="curve" smooth="yes"/>
      <point x="498" y="55"/>
      <point x="507" y="39"/>
      <point x="516" y="28" type="curve"/>
      <point x="425" y="-8" type="line"/>
      <point x="417" y="1"/>
      <point x="409" y="11"/>
      <point x="402" y="23" type="curve" smooth="yes"/>
      <point x="390" y="43"/>
      <point x="377" y="74"/>
      <point x="374" y="114" type="curve"/>
      <point x="351" y="34"/>
      <point x="304" y="-6"/>
      <point x="219" y="-6" type="curve" smooth="yes"/>
      <point x="94" y="-6"/>
      <point x="35" y="92"/>
      <point x="35" y="242" type="curve" smooth="yes"/>
      <point x="35" y="394"/>
      <point x="133" y="506"/>
      <point x="274" y="506" type="curve" smooth="yes"/>
      <point x="314" y="506"/>
      <point x="361" y="498"/>
      <point x="400" y="491" type="curve" smooth="yes"/>
      <point x="422" y="487"/>
      <point x="444" y="482"/>
      <point x="467" y="477" type="curve"/>
    </contour>
    <contour>
      <point x="238" y="75" type="curve" smooth="yes"/>
      <point x="303" y="75"/>
      <point x="352" y="173"/>
      <point x="352" y="271" type="curve" smooth="yes"/>
      <point x="352" y="414" type="line"/>
      <point x="339" y="417"/>
      <point x="307" y="425"/>
      <point x="287" y="425" type="curve" smooth="yes"/>
      <point x="188" y="425"/>
      <point x="159" y="352"/>
      <point x="159" y="252" type="curve" smooth="yes"/>
      <point x="159" y="160"/>
      <point x="166" y="75"/>
    </contour>
    <contour>
      <point x="106" y="664" type="line"/>
      <point x="113" y="668"/>
      <point x="121" y="672"/>
      <point x="129" y="675" type="curve" smooth="yes"/>
      <point x="144" y="682"/>
      <point x="163" y="687"/>
      <point x="186" y="687" type="curve" smooth="yes"/>
      <point x="235" y="687"/>
      <point x="290" y="667"/>
      <point x="339" y="667" type="curve" smooth="yes"/>
      <point x="362" y="667"/>
      <point x="381" y="670"/>
      <point x="396" y="674" type="curve" smooth="yes"/>
      <point x="404" y="676"/>
      <point x="412" y="678"/>
      <point x="419" y="681" type="curve"/>
      <point x="419" y="606" type="line"/>
      <point x="412" y="601"/>
      <point x="404" y="597"/>
      <point x="396" y="594" type="curve" smooth="yes"/>
      <point x="381" y="587"/>
      <point x="362" y="583"/>
      <point x="339" y="583" type="curve" smooth="yes"/>
      <point x="290" y="583"/>
      <point x="235" y="603"/>
      <point x="186" y="603" type="curve" smooth="yes"/>
      <point x="163" y="603"/>
      <point x="144" y="599"/>
      <point x="129" y="596" type="curve"/>
      <point x="121" y="593"/>
      <point x="113" y="591"/>
      <point x="106" y="589" type="curve"/>
    </contour>
  </outline>
</glyph>
<glyph name="adieresis" format="1">
  <advance width="536"/>
  <unicode hex="00E4"/>
  <outline>
    <contour>
      <point x="467" y="241" type="line" smooth="yes"/>
      <point x="467" y="161"/>
      <point x="479" y="108"/>
      <point x="491" y="75" type="curve" smooth="yes"/>
      <point x="498" y="55"/>
      <point x="507" y="39"/>
      <point x="516" y="28" type="curve"/>
      <point x="425" y="-8" type="line"/>
      <point x="417" y="1"/>
      <point x="409" y="11"/>
      <point x="402" y="23" type="curve" smooth="yes"/>
      <point x="390" y="43"/>
      <point x="377" y="74"/>
      <point x="374" y="114" type="curve"/>
      <point x="351" y="34"/>
      <point x="304" y="-6"/>
      <point x="219" y="-6" type="curve" smooth="yes"/>
      <point x="94" y="-6"/>
      <point x="35" y="92"/>
      <point x="35" y="242" type="curve" smooth="yes"/>
      <point x="35" y="394"/>
      <point x="133" y="506"/>
      <point x="274" y="506" type="curve" smooth="yes"/>
      <point x="314" y="506"/>
      <point x="361" y="498"/>
      <point x="400" y="491" type="curve" smooth="yes"/>
      <point x="422" y="487"/>
      <point x="444" y="482"/>
      <point x="467" y="477" type="curve"/>
    </contour>
    <contour>
      <point x="238" y="75" type="curve" smooth="yes"/>
      <point x="303" y="75"/>
      <point x="352" y="173"/>
      <point x="352" y="271" type="curve" smooth="yes"/>
      <point x="352" y="414" type="line"/>
      <point x="339" y="417"/>
      <point x="307" y="425"/>
      <point x="287" y="425" type="curve" smooth="yes"/>
      <point x="188" y="425"/>
      <point x="159" y="352"/>
      <point x="159" y="252" type="curve" smooth="yes"/>
      <point x="159" y="160"/>
      <point x="166" y="75"/>
    </contour>
    <contour>
      <point x="169" y="715" type="curve" smooth="yes"/>
      <point x="208" y="715"/>
      <point x="230" y="688"/>
      <point x="230" y="652" type="curve" smooth="yes"/>
      <point x="230" y="615"/>
      <point x="209" y="587"/>
      <point x="166" y="587" type="curve" smooth="yes"/>
      <point x="127" y="587"/>
      <point x="105" y="614"/>
      <point x="105" y="649" type="curve" smooth="yes"/>
      <point x="105" y="688"/>
      <point x="126" y="715"/>
    </contour>
    <contour>
      <point x="369" y="715" type="curve" smooth="yes"/>
      <point x="408" y="715"/>
      <point x="430" y="688"/>
      <point x="430" y="652" type="curve" smooth="yes"/>
      <point x="430" y="615"/>
      <point x="409" y="587"/>
      <point x="366" y="587" type="curve" smooth="yes"/>
      <point x="327" y="587"/>
      <point x="305" y="614"/>
      <point x="305" y="649" type="curve" smooth="yes"/>
      <point x="305" y="688"/>
      <point x="326" y="715"/>
    </contour>
  </outline>
</glyph>
